<?xml version="1.0" encoding="UTF-8" standalone="yes"?>
<svg version="1.1" xmlns="http://www.w3.org/2000/svg" viewBox="0 0 718.0648363779083 398.7971726253964" width="1436.1296727558165" height="797.5943452507928">
  <defs>
    <style class="style-fonts">
      @font-face {
        font-family: "Virgil";
        src: url("https://excalidraw.com/Virgil.woff2");
      }
      @font-face {
        font-family: "Cascadia";
        src: url("https://excalidraw.com/Cascadia.woff2");
      }
    </style>
  </defs>
  <g stroke-linecap="round">
    <g transform="translate(374.3049147563007 193.30358914281618) rotate(0 -0.22983773965762566 15.386157769840082)">
      <path d="M-0.56 1.19 C-0.53 6, -0.73 23.83, -0.96 28.53 M1.35 0.77 C1.33 5.8, -1.68 25.56, -1.81 30" stroke="#1e1e1e" stroke-width="1" fill="none"/>
    </g>
  </g>
  <g stroke-linecap="round">
    <g transform="translate(237.71412286240263 193.30358914281618) rotate(0 0.16212207209318308 15.22935396634773)">
      <path d="M0.18 -0.13 C0.14 4.96, -0.64 26.59, -0.79 31.7 M-1.18 -1.24 C-0.79 4.01, 1.01 24.49, 1.5 29.97" stroke="#1e1e1e" stroke-width="1" fill="none"/>
    </g>
  </g>
  <g stroke-linecap="round" transform="translate(236.56753292995347 205.91607839975683) rotate(0 69.36869091317374 16.0522590542881)">
    <path d="M49.25 1.71 C59.34 0.71, 72.39 -0.86, 83.7 -0.33 C95.01 0.21, 108.54 3.04, 117.12 4.92 C125.71 6.79, 131.96 8.36, 135.22 10.93 C138.47 13.49, 139.17 17.77, 136.64 20.31 C134.11 22.84, 127.68 24.46, 120.04 26.15 C112.39 27.83, 101.88 29.55, 90.79 30.44 C79.69 31.33, 64.88 31.89, 53.47 31.48 C42.07 31.07, 30.86 29.91, 22.35 28 C13.85 26.1, 5.85 22.63, 2.44 20.06 C-0.98 17.49, -0.76 14.97, 1.87 12.59 C4.5 10.2, 9.11 7.89, 18.2 5.74 C27.3 3.6, 48.84 0.47, 56.44 -0.28 C64.05 -1.04, 63.59 0.77, 63.83 1.2 M69.78 -0.21 C80.89 -0.74, 95.48 0.18, 105.49 1.65 C115.5 3.12, 124.4 6.16, 129.84 8.62 C135.27 11.09, 138.22 14.06, 138.1 16.43 C137.98 18.8, 134.76 20.71, 129.1 22.83 C123.44 24.95, 114.14 27.72, 104.12 29.15 C94.1 30.58, 80.76 31.16, 68.98 31.4 C57.2 31.64, 43.52 31.92, 33.44 30.61 C23.37 29.29, 14.22 26.05, 8.52 23.5 C2.81 20.96, -0.79 18.09, -0.8 15.32 C-0.81 12.55, 2.53 9.26, 8.47 6.86 C14.42 4.46, 24.63 1.86, 34.9 0.9 C45.17 -0.06, 64.21 0.98, 70.09 1.1 C75.97 1.23, 69.97 1.58, 70.19 1.67" stroke="#1e1e1e" stroke-width="1" fill="none"/>
  </g>
  <g stroke-linecap="round" transform="translate(238.8607127948518 202.47630860240935) rotate(0 65.92892111582628 12.039194290716097)">
    <path d="M4.7 1.24 L127.27 -0.3 L130.27 4.28 L133.45 18.72 L128.9 23.89 L127.14 23.27 L2.65 22.94 L1.8 20.16 L-1.61 7.73 L-0.38 0.35 L5.56 0.15" stroke="none" stroke-width="0" fill="#ffffff"/>
    <path d="M6.02 0 M6.02 0 C44.24 1.06, 81.37 2.08, 125.84 0 M6.02 0 C44.54 0.53, 81.83 0.29, 125.84 0 M125.84 0 C130.05 1.79, 131.54 1.72, 131.86 6.02 M125.84 0 C131.2 -0.88, 131.97 2.72, 131.86 6.02 M131.86 6.02 C130.77 9.62, 131.17 12.43, 131.86 18.06 M131.86 6.02 C131.62 8.89, 131.48 11.88, 131.86 18.06 M131.86 18.06 C130.33 20.69, 129.39 22.51, 125.84 24.08 M131.86 18.06 C131.98 23.76, 130.15 26.14, 125.84 24.08 M125.84 24.08 C79.16 22, 30.67 23.32, 6.02 24.08 M125.84 24.08 C81.57 26, 35.91 24.9, 6.02 24.08 M6.02 24.08 C2.28 22.65, -1.03 21.29, 0 18.06 M6.02 24.08 C3.11 24.72, 1.38 21.23, 0 18.06 M0 18.06 C1.24 14.38, 1.06 8.85, 0 6.02 M0 18.06 C0.17 15.37, 0.12 12.06, 0 6.02 M0 6.02 C-2 1.76, 0.09 1.21, 6.02 0 M0 6.02 C1.86 1.57, 0.41 1.23, 6.02 0" stroke="#ffffff" stroke-width="1" fill="none"/>
  </g>
  <g stroke-linecap="round" transform="translate(236.56753292995347 177.25133008852805) rotate(0 68.79539594694904 16.0522590542881)">
    <path d="M80.4 -0.51 C91.15 -0.38, 103.2 1.99, 111.85 3.7 C120.5 5.41, 128.19 7.21, 132.28 9.77 C136.37 12.32, 137.98 16.2, 136.37 19.03 C134.75 21.86, 129.79 24.66, 122.59 26.74 C115.38 28.83, 103.98 30.7, 93.15 31.55 C82.33 32.4, 68.74 32.28, 57.63 31.85 C46.53 31.43, 35.24 30.78, 26.54 29 C17.84 27.23, 9.81 23.69, 5.43 21.21 C1.04 18.74, -1.26 16.64, 0.24 14.17 C1.74 11.69, 7.08 8.49, 14.44 6.36 C21.8 4.23, 31.79 2.48, 44.41 1.39 C57.03 0.3, 80.86 -0.14, 90.15 -0.18 C99.45 -0.21, 100.38 0.63, 100.18 1.19 M62.24 0.93 C73.09 0.09, 86.4 -0.96, 96.92 0.07 C107.44 1.11, 118.67 4.74, 125.39 7.16 C132.1 9.59, 136.15 12.12, 137.21 14.65 C138.28 17.17, 136.58 19.78, 131.78 22.33 C126.98 24.87, 117.92 28.46, 108.41 29.93 C98.9 31.39, 86.08 31.11, 74.73 31.14 C63.38 31.16, 50.43 30.93, 40.31 30.07 C30.19 29.21, 20.78 28.14, 14.02 25.97 C7.26 23.81, 1.06 19.95, -0.22 17.07 C-1.5 14.19, 1.36 11.26, 6.35 8.71 C11.35 6.16, 20.41 3.12, 29.73 1.76 C39.05 0.4, 56.63 0.79, 62.3 0.53 C67.97 0.28, 63.42 0.08, 63.75 0.23" stroke="none" stroke-width="0" fill="#ffffff"/>
    <path d="M101.97 2.56 C112.13 3.61, 121 4.94, 126.86 7.23 C132.73 9.51, 136.79 13.66, 137.18 16.26 C137.56 18.86, 134.37 20.75, 129.16 22.83 C123.95 24.92, 115.7 27.25, 105.9 28.75 C96.1 30.26, 81.96 31.6, 70.37 31.87 C58.78 32.14, 46.48 31.71, 36.36 30.36 C26.24 29.01, 15.67 26.05, 9.64 23.76 C3.62 21.47, 0.48 19.08, 0.19 16.63 C-0.09 14.18, 2.52 11.52, 7.93 9.05 C13.35 6.59, 22.95 3.21, 32.69 1.84 C42.44 0.47, 53.9 0.61, 66.41 0.84 C78.92 1.07, 100.1 2.65, 107.77 3.21 C115.43 3.76, 112.94 4.02, 112.4 4.15 M63.94 0.51 C74.48 0.23, 87.9 0.98, 98.2 1.84 C108.5 2.7, 119.09 3.64, 125.73 5.67 C132.37 7.7, 137.17 11.25, 138.04 14.03 C138.91 16.81, 136.17 19.68, 130.94 22.36 C125.72 25.03, 116.3 28.53, 106.69 30.07 C97.08 31.61, 84.73 31.64, 73.27 31.62 C61.81 31.59, 48.39 31.18, 37.96 29.91 C27.53 28.64, 17.05 26.33, 10.69 24.02 C4.34 21.71, 0.45 18.34, -0.17 16.03 C-0.78 13.72, 1.89 12.13, 6.98 10.15 C12.08 8.16, 20.69 5.78, 30.41 4.11 C40.13 2.43, 59.9 0.61, 65.31 0.09 C70.72 -0.43, 63.2 0.75, 62.88 0.99" stroke="#1e1e1e" stroke-width="1" fill="none"/>
  </g>
  <g stroke-linecap="round" transform="translate(28.137006435561787 172.0916753925069) rotate(0 14.332374155614389 13.185784223165228)">
    <path d="M13.56 0.87 C16.38 0.59, 20.49 1.28, 22.82 2.76 C25.16 4.24, 26.74 7.14, 27.55 9.74 C28.37 12.33, 28.91 15.71, 27.71 18.34 C26.51 20.96, 23.11 24.16, 20.36 25.47 C17.62 26.78, 14.3 27.13, 11.23 26.21 C8.16 25.29, 3.87 22.25, 1.92 19.97 C-0.03 17.68, -0.75 15.23, -0.48 12.5 C-0.21 9.77, 1.15 5.52, 3.53 3.58 C5.91 1.63, 12.02 1.26, 13.79 0.83 C15.56 0.4, 14.24 0.81, 14.13 1.01 M17.94 1.8 C20.81 2.38, 24.83 3.41, 26.36 5.67 C27.88 7.93, 27.67 12.34, 27.1 15.38 C26.54 18.42, 25.09 22.06, 22.96 23.9 C20.83 25.73, 17.27 26.29, 14.34 26.39 C11.4 26.49, 7.49 26.21, 5.36 24.49 C3.23 22.78, 1.95 19.14, 1.55 16.11 C1.15 13.07, 1.75 8.86, 2.94 6.27 C4.14 3.68, 6.09 1.65, 8.72 0.55 C11.35 -0.55, 17.15 -0.2, 18.71 -0.32 C20.27 -0.45, 18.19 -0.79, 18.08 -0.18" stroke="#1e1e1e" stroke-width="1" fill="none"/>
  </g>
  <g stroke-linecap="round">
    <g transform="translate(41.896085624951596 200.75642370373566) rotate(0 -2.5152181916870133 25.430441829800344)">
      <path d="M-0.57 -0.56 C-1.39 7.97, -4.6 42.77, -5.53 51.42 M1.34 1.76 C0.43 9.94, -4.97 41.86, -6.37 49.81" stroke="#1e1e1e" stroke-width="1" fill="none"/>
    </g>
  </g>
  <g stroke-linecap="round">
    <g transform="translate(39.602905760053275 214.51550289312547) rotate(0 -5.525146239492978 2.942199563752837)">
      <path d="M-0.5 0.52 C-2.24 1.29, -9.71 3.76, -11.51 4.6 M1.43 -0.26 C-0.37 0.72, -10.24 5.49, -12.48 6.14" stroke="#1e1e1e" stroke-width="1" fill="none"/>
    </g>
  </g>
  <g stroke-linecap="round">
    <g transform="translate(44.189265489849916 214.51550289312547) rotate(0 8.51897004417131 7.302822392916227)">
      <path d="M0.16 0.94 C3.21 3.31, 15.28 12.13, 18.26 14.22 M-1.22 0.38 C1.77 2.39, 14.71 9.97, 17.86 12.34" stroke="#1e1e1e" stroke-width="1" fill="none"/>
    </g>
  </g>
  <g stroke-linecap="round">
    <g transform="translate(35.016546030256634 255.7927404612949) rotate(0 -12.436546611556652 5.595557225519713)">
      <path d="M0.14 0.61 C-3.79 2.32, -19.93 9.7, -24.07 11.31 M-1.24 -0.11 C-5.28 1.79, -20.92 7.77, -25.02 9.7" stroke="#1e1e1e" stroke-width="1" fill="none"/>
    </g>
  </g>
  <g stroke-linecap="round">
    <g transform="translate(37.309725895154955 250.05979079904915) rotate(0 5.335193778471955 12.20163367993186)">
      <path d="M0.81 1.1 C2.73 5.08, 9.04 20.21, 10.9 23.78 M-0.22 0.63 C1.55 4.28, 7.7 18.27, 9.65 22.1" stroke="#1e1e1e" stroke-width="1" fill="none"/>
    </g>
  </g>
  <g stroke-linecap="round" transform="translate(63.68129434148541 209.92914316332883) rotate(0 6.879539594694904 17.19884898673726)">
    <path d="M3.44 0 M3.44 0 C6.03 -0.28, 8.7 0.63, 10.32 0 M3.44 0 C5.88 0.19, 8.74 0.15, 10.32 0 M10.32 0 C12.16 -1.92, 12.82 0.97, 13.76 3.44 M10.32 0 C13.1 1.22, 13.38 -0.66, 13.76 3.44 M13.76 3.44 C14.33 12.04, 15.44 21.38, 13.76 30.96 M13.76 3.44 C14.22 12.98, 14.01 22.59, 13.76 30.96 M13.76 30.96 C14.33 33.37, 14.36 35.91, 10.32 34.4 M13.76 30.96 C12.78 33.69, 10.86 32.91, 10.32 34.4 M10.32 34.4 C7.94 34.38, 5.93 34.39, 3.44 34.4 M10.32 34.4 C8.16 34.79, 6.91 34.23, 3.44 34.4 M3.44 34.4 C0.13 34.73, -1.82 31.77, 0 30.96 M3.44 34.4 C-0.65 34.43, -0.03 33.67, 0 30.96 M0 30.96 C-0.37 20.17, 0.51 8.85, 0 3.44 M0 30.96 C0.71 20.57, 0.47 10.61, 0 3.44 M0 3.44 C0.86 0.08, 1.48 1.92, 3.44 0 M0 3.44 C-0.98 3.44, -0.26 -1.84, 3.44 0" stroke="#2f9e44" stroke-width="1" fill="none"/>
  </g>
  <g stroke-linecap="round" transform="translate(463.8411807662389 86.09743045882055) rotate(0 122.11182780583465 151.34987108328792)">
    <path d="M32 0 M32 0 C82.89 -0.9, 131.15 1.45, 212.22 0 M32 0 C78.72 1.48, 125.73 2.18, 212.22 0 M212.22 0 C232.71 0.39, 242.7 9.38, 244.22 32 M212.22 0 C233.16 0.4, 242.06 9.21, 244.22 32 M244.22 32 C242.33 105.39, 244.21 177.4, 244.22 270.7 M244.22 32 C245.79 126.75, 245.46 220.61, 244.22 270.7 M244.22 270.7 C242.67 292.06, 233.53 303.06, 212.22 302.7 M244.22 270.7 C246.08 291.47, 233.74 302.19, 212.22 302.7 M212.22 302.7 C162.65 301.83, 111.53 303.12, 32 302.7 M212.22 302.7 C157.52 303.15, 102.13 304.65, 32 302.7 M32 302.7 C9.81 304.69, -1.22 290.44, 0 270.7 M32 302.7 C12.75 302.03, 1.41 294.32, 0 270.7 M0 270.7 C-2.07 201.83, -0.97 134.25, 0 32 M0 270.7 C1.2 223.03, 0.47 173.78, 0 32 M0 32 C1.28 11.38, 9.68 -1.06, 32 0 M0 32 C1.63 10.59, 8.89 -0.34, 32 0" stroke="#1e1e1e" stroke-width="1" fill="none"/>
  </g>
  <g stroke-linecap="round">
    <g transform="translate(375.7003459001036 106.73604924290527) rotate(0 -0.6602803727685682 14.132780205532754)">
      <path d="M-1.03 -0.89 C-1.46 3.85, -2.06 23.23, -1.93 27.98 M0.63 1.25 C0.53 6.19, 0.56 24.64, 0.37 29.16" stroke="#1e1e1e" stroke-width="1" fill="none"/>
    </g>
  </g>
  <g stroke-linecap="round">
    <g transform="translate(375.45150468875 150.8797616421976) rotate(0 0.24302684088797832 14.429632274312752)">
      <path d="M-0.66 0.2 C-0.69 5.07, -0.13 24.79, -0.24 29.59 M1.2 -0.73 C1.08 3.78, -0.15 23.35, -0.71 27.96" stroke="#1e1e1e" stroke-width="1" fill="none"/>
    </g>
  </g>
  <g stroke-linecap="round">
    <g transform="translate(238.8607127948519 150.8797616421976) rotate(0 -0.14216047191723646 15.85805409904367)">
      <path d="M0.91 0.93 C0.99 6.12, -0.06 26.43, -0.16 31.34 M-0.07 0.37 C-0.11 5.17, -1.15 24.24, -1.2 29.42" stroke="#1e1e1e" stroke-width="1" fill="none"/>
    </g>
  </g>
  <g stroke-linecap="round" transform="translate(237.71412286240275 163.4922508991383) rotate(0 69.36869091317374 16.0522590542881)">
    <path d="M76.68 0.9 C87.62 1.09, 100.27 1.96, 109.52 3.34 C118.77 4.73, 127.41 6.86, 132.16 9.21 C136.91 11.56, 139.24 14.82, 138.04 17.45 C136.84 20.08, 131.92 22.9, 124.96 24.97 C118 27.03, 106.8 28.75, 96.29 29.86 C85.78 30.98, 73.12 31.92, 61.9 31.66 C50.68 31.4, 38.41 29.92, 28.97 28.3 C19.53 26.69, 10.16 24.44, 5.29 21.95 C0.41 19.46, -1.81 15.84, -0.3 13.37 C1.21 10.9, 7.45 9.08, 14.35 7.15 C21.25 5.22, 29.37 2.79, 41.11 1.76 C52.84 0.74, 76.2 1.17, 84.78 1.01 C93.35 0.84, 92.65 0.7, 92.56 0.78 M97.18 2.56 C107.75 3.43, 119.68 3.65, 126.57 5.69 C133.46 7.73, 137.47 11.96, 138.53 14.78 C139.59 17.6, 137.68 20.4, 132.91 22.6 C128.13 24.81, 119.27 26.23, 109.87 28.02 C100.47 29.81, 87.87 32.84, 76.48 33.34 C65.09 33.84, 51.92 32.48, 41.51 31.04 C31.1 29.61, 20.89 26.85, 14.02 24.74 C7.14 22.62, 1.64 20.89, 0.27 18.35 C-1.1 15.81, 1.19 12.19, 5.8 9.49 C10.4 6.78, 18.34 3.74, 27.91 2.14 C37.48 0.54, 51.25 0.13, 63.19 -0.11 C75.14 -0.36, 93.85 0.6, 99.6 0.68 C105.34 0.76, 98.18 0.22, 97.68 0.37" stroke="#1e1e1e" stroke-width="1" fill="none"/>
  </g>
  <g stroke-linecap="round" transform="translate(240.00730272730107 160.05248110179093) rotate(0 65.92892111582628 12.039194290716097)">
    <path d="M5.75 0.64 L128.91 -0.49 L130.3 2.74 L133.09 18.83 L130.81 21.1 L125.05 23.52 L2.65 23.1 L-0.81 18.81 L-1.78 6.36 L0.8 2.88 L4.65 -1.11" stroke="none" stroke-width="0" fill="#ffffff"/>
    <path d="M6.02 0 M6.02 0 C37.13 2.31, 63.96 1.92, 125.84 0 M6.02 0 C33.97 1.07, 62.45 1.48, 125.84 0 M125.84 0 C129.08 -1.6, 130.17 3.44, 131.86 6.02 M125.84 0 C130.66 -1.69, 131.98 2.29, 131.86 6.02 M131.86 6.02 C130.92 10.73, 132.89 15.12, 131.86 18.06 M131.86 6.02 C131.96 10.3, 131.73 13.98, 131.86 18.06 M131.86 18.06 C129.92 21.01, 130.03 23.84, 125.84 24.08 M131.86 18.06 C133.62 20.84, 129.57 21.93, 125.84 24.08 M125.84 24.08 C80.14 23.79, 36.91 24.55, 6.02 24.08 M125.84 24.08 C101.08 23.89, 75.99 23.2, 6.02 24.08 M6.02 24.08 C0.14 25.53, 0.5 21.05, 0 18.06 M6.02 24.08 C3.44 22.07, -1.43 22.38, 0 18.06 M0 18.06 C-0.83 12.9, -1.11 9.86, 0 6.02 M0 18.06 C0.34 14.13, 0.19 10.39, 0 6.02 M0 6.02 C0.17 2.42, 0.14 0.16, 6.02 0 M0 6.02 C-0.21 2.3, 0.98 -0.97, 6.02 0" stroke="#ffffff" stroke-width="1" fill="none"/>
  </g>
  <g stroke-linecap="round" transform="translate(237.71412286240275 134.82750258790958) rotate(0 68.79539594694904 16.0522590542881)">
    <path d="M89.57 0.69 C100.18 1.06, 111.04 2.26, 118.9 4.28 C126.75 6.31, 134.2 9.96, 136.69 12.84 C139.19 15.71, 137.6 19.11, 133.88 21.51 C130.16 23.92, 122.72 25.51, 114.37 27.27 C106.02 29.04, 94.86 31.45, 83.78 32.11 C72.7 32.77, 58.99 32.26, 47.92 31.24 C36.85 30.22, 25.22 27.95, 17.35 25.99 C9.47 24.03, 3.03 21.99, 0.68 19.48 C-1.66 16.97, -0.26 13.37, 3.27 10.91 C6.8 8.45, 13.48 6.43, 21.86 4.72 C30.25 3.01, 42 1.26, 53.57 0.64 C65.14 0.02, 84.6 1.03, 91.27 1 C97.94 0.97, 93.88 0.25, 93.58 0.47 M74.53 1.23 C85.41 1.04, 96.47 0.16, 105.94 1.37 C115.41 2.58, 126.28 6.02, 131.32 8.47 C136.37 10.92, 137.04 13.5, 136.22 16.09 C135.4 18.67, 132.54 21.75, 126.4 24.01 C120.26 26.26, 109.77 28.17, 99.38 29.63 C88.99 31.09, 75.48 32.73, 64.05 32.77 C52.61 32.8, 40.05 31.26, 30.76 29.84 C21.47 28.41, 13.53 26.88, 8.31 24.21 C3.1 21.54, -0.95 16.69, -0.53 13.81 C-0.11 10.93, 4.37 9.16, 10.83 6.92 C17.28 4.68, 27.84 1.32, 38.22 0.37 C48.59 -0.58, 67.03 1.31, 73.08 1.22 C79.12 1.13, 74.4 -0.36, 74.49 -0.17" stroke="none" stroke-width="0" fill="#ffffff"/>
    <path d="M94.94 0.88 C105.47 1.56, 116.49 3.92, 123.46 6.02 C130.44 8.13, 135.49 10.93, 136.78 13.5 C138.06 16.07, 135.58 18.93, 131.18 21.43 C126.78 23.94, 119.25 26.88, 110.36 28.52 C101.47 30.17, 89.36 31.01, 77.86 31.3 C66.36 31.6, 52.14 31.36, 41.35 30.28 C30.57 29.19, 19.79 26.74, 13.13 24.8 C6.47 22.85, 2.73 21.05, 1.38 18.61 C0.04 16.18, 0.84 12.66, 5.07 10.19 C9.3 7.72, 17.63 5.57, 26.77 3.8 C35.91 2.04, 47.68 0.03, 59.91 -0.41 C72.13 -0.84, 92.81 0.78, 100.1 1.19 C107.4 1.61, 104.38 1.9, 103.66 2.08 M93.08 1.21 C103.63 2.05, 115.16 3.84, 122.51 5.68 C129.86 7.53, 135.25 9.4, 137.17 12.28 C139.08 15.17, 137.91 20.24, 134 23 C130.09 25.77, 122.46 27.49, 113.69 28.87 C104.91 30.26, 92.87 30.81, 81.36 31.32 C69.84 31.83, 55.63 32.74, 44.58 31.92 C33.53 31.1, 22.56 28.74, 15.04 26.4 C7.53 24.06, 1.22 20.57, -0.53 17.88 C-2.28 15.18, 0.06 12.73, 4.53 10.23 C9 7.72, 17.47 4.75, 26.27 2.85 C35.08 0.95, 46.07 -0.65, 57.37 -1.18 C68.67 -1.71, 88.28 -0.59, 94.06 -0.33 C99.84 -0.07, 92.62 -0.09, 92.05 0.38" stroke="#1e1e1e" stroke-width="1" fill="none"/>
  </g>
  <g stroke-linecap="round">
    <g transform="translate(239.10955400620554 106.73604924290527) rotate(0 -0.9609281661760747 14.527547599866807)">
      <path d="M-0.17 -0.5 C-0.23 4.64, -0.33 24.66, -0.13 29.89 M-1.72 -1.81 C-1.96 3.52, -1.57 25.21, -1.14 30.86" stroke="#1e1e1e" stroke-width="1" fill="none"/>
    </g>
  </g>
  <g stroke-linecap="round" transform="translate(237.96296407375638 119.34853849984592) rotate(0 69.36869091317374 16.0522590542881)">
    <path d="M43.14 1.76 C52.99 0.41, 66.67 -0.91, 77.9 -0.56 C89.13 -0.22, 101.16 2.12, 110.5 3.84 C119.84 5.55, 129.31 7.3, 133.93 9.72 C138.56 12.15, 139.93 15.84, 138.25 18.4 C136.57 20.95, 130.82 22.92, 123.85 25.04 C116.88 27.17, 107.12 30.01, 96.44 31.15 C85.75 32.29, 71.13 32.36, 59.74 31.91 C48.36 31.45, 37.13 29.96, 28.11 28.41 C19.09 26.86, 10.25 24.86, 5.62 22.61 C0.99 20.35, -1.13 17.58, 0.34 14.88 C1.81 12.19, 6.2 8.93, 14.42 6.45 C22.64 3.97, 42.53 0.84, 49.67 0.01 C56.81 -0.82, 56.82 1.11, 57.27 1.46 M87.9 -0.16 C99.04 0.39, 111.5 3.05, 119.73 4.83 C127.97 6.62, 134.51 7.75, 137.31 10.54 C140.11 13.33, 139.99 18.73, 136.54 21.58 C133.09 24.43, 124.82 25.9, 116.6 27.66 C108.38 29.41, 97.96 31.56, 87.2 32.09 C76.44 32.62, 63.27 31.4, 52.03 30.85 C40.8 30.3, 28.24 30.41, 19.79 28.8 C11.34 27.2, 4.18 23.94, 1.35 21.22 C-1.47 18.49, -0.45 15, 2.85 12.44 C6.14 9.88, 13.09 7.71, 21.12 5.84 C29.16 3.98, 40.14 2.24, 51.06 1.24 C61.98 0.24, 80.62 -0.13, 86.62 -0.17 C92.63 -0.21, 87.28 0.57, 87.08 1.01" stroke="#1e1e1e" stroke-width="1" fill="none"/>
  </g>
  <g stroke-linecap="round" transform="translate(240.2561439386547 115.90876870249849) rotate(0 65.92892111582626 12.039194290716097)">
    <path d="M7.39 0.87 L130.44 0.32 L132.68 2.33 L130.45 19.63 L130.26 22.2 L126.96 22.78 L5.21 24.8 L-0.54 19.05 L1.45 7.92 L2.18 -0.14 L7.43 -1.1" stroke="none" stroke-width="0" fill="#ffffff"/>
    <path d="M6.02 0 M6.02 0 C48.52 0.69, 88.32 2.63, 125.84 0 M6.02 0 C45.41 1.03, 86.69 1.49, 125.84 0 M125.84 0 C128.99 0.48, 133.51 3.55, 131.86 6.02 M125.84 0 C127.55 1.93, 134.09 2.5, 131.86 6.02 M131.86 6.02 C132.24 11.04, 132.81 13.56, 131.86 18.06 M131.86 6.02 C131.37 10.22, 131.98 14.27, 131.86 18.06 M131.86 18.06 C130.74 20.41, 127.86 24.86, 125.84 24.08 M131.86 18.06 C133.08 20.36, 128.83 22.03, 125.84 24.08 M125.84 24.08 C97.79 25.56, 66 25.24, 6.02 24.08 M125.84 24.08 C94.98 23.73, 64.3 24.67, 6.02 24.08 M6.02 24.08 C1.96 22.66, 0.78 23.45, 0 18.06 M6.02 24.08 C2.96 22.51, -1.59 23.26, 0 18.06 M0 18.06 C-0.49 13.73, -0.54 8.67, 0 6.02 M0 18.06 C0.32 13.43, 0.08 8.75, 0 6.02 M0 6.02 C0.3 1.52, 1.25 1.04, 6.02 0 M0 6.02 C-0.1 -0.17, 2.61 0.24, 6.02 0" stroke="#ffffff" stroke-width="1" fill="none"/>
  </g>
  <g stroke-linecap="round" transform="translate(237.96296407375638 90.6837901886172) rotate(0 68.79539594694904 16.0522590542881)">
    <path d="M45.92 0.43 C55.93 -0.66, 70.51 0.29, 81.8 0.73 C93.09 1.18, 104.9 1.31, 113.65 3.12 C122.4 4.92, 130.58 8.89, 134.3 11.55 C138.02 14.21, 138.29 16.64, 135.95 19.07 C133.61 21.51, 127.89 23.98, 120.25 26.16 C112.61 28.33, 100.95 31.23, 90.1 32.12 C79.26 33.01, 66.29 32.32, 55.19 31.52 C44.1 30.72, 32.13 29.11, 23.51 27.32 C14.89 25.52, 7.18 23.32, 3.47 20.77 C-0.24 18.21, -1.19 14.57, 1.24 12 C3.67 9.43, 9.91 7.11, 18.04 5.36 C26.17 3.6, 44.44 2.36, 50.04 1.46 C55.64 0.56, 51.31 -0.12, 51.63 -0.06 M82.83 -0.31 C93.57 -0.01, 107.04 2.67, 115.53 4.8 C124.02 6.93, 130.62 10.2, 133.78 12.46 C136.94 14.73, 137.04 16.17, 134.47 18.41 C131.9 20.66, 125.78 23.85, 118.36 25.93 C110.95 28.02, 100.59 29.84, 89.96 30.94 C79.33 32.03, 65.91 33.22, 54.57 32.5 C43.22 31.78, 30.7 28.83, 21.9 26.62 C13.1 24.42, 5.15 21.45, 1.78 19.27 C-1.6 17.1, -0.97 16.07, 1.65 13.57 C4.27 11.07, 9.69 6.42, 17.5 4.26 C25.31 2.11, 37.34 1.36, 48.52 0.63 C59.7 -0.09, 78.42 -0.13, 84.57 -0.07 C90.71 -0.02, 85.76 0.68, 85.38 0.96" stroke="none" stroke-width="0" fill="#ffffff"/>
    <path d="M57.95 0.73 C68.56 0.15, 82.92 -0.49, 93.73 0.32 C104.53 1.12, 115.45 3.44, 122.79 5.58 C130.14 7.71, 136.25 10.54, 137.78 13.14 C139.31 15.73, 136.44 18.72, 131.97 21.15 C127.51 23.59, 119.96 25.87, 110.98 27.72 C102.01 29.58, 89.37 31.91, 78.13 32.29 C66.9 32.67, 54 30.92, 43.58 30 C33.16 29.08, 22.75 28.59, 15.62 26.76 C8.5 24.94, 2.49 21.78, 0.83 19.03 C-0.83 16.29, 1.45 12.74, 5.65 10.3 C9.85 7.86, 15.21 6.18, 26.01 4.39 C36.81 2.59, 61.25 0.25, 70.44 -0.47 C79.63 -1.19, 81.33 -0.28, 81.14 0.06 M42.31 1.27 C52.37 -0.01, 68.26 0.58, 79.8 0.98 C91.35 1.38, 102.58 2.15, 111.57 3.64 C120.56 5.12, 129.65 7.26, 133.75 9.89 C137.84 12.52, 138.18 16.92, 136.14 19.4 C134.11 21.89, 128.36 22.83, 121.56 24.82 C114.77 26.8, 105.92 30.01, 95.36 31.32 C84.79 32.64, 69.7 33.31, 58.18 32.71 C46.67 32.1, 35.19 29.39, 26.25 27.68 C17.31 25.97, 8.79 24.82, 4.53 22.44 C0.26 20.06, -0.95 15.94, 0.66 13.41 C2.27 10.89, 7.05 9.46, 14.2 7.28 C21.36 5.1, 38.78 1.09, 43.58 0.35 C48.38 -0.4, 42.53 2.51, 43.01 2.79" stroke="#1e1e1e" stroke-width="1" fill="none"/>
  </g>
  <g stroke-linecap="round">
    <g transform="translate(483.3332096178746 139.98715728393063) rotate(0 102.69212676859368 0.3019791580778133)">
      <path d="M-0.14 0.11 C34.47 0.29, 172.65 1.51, 207.06 1.55 M-1.67 -0.87 C32.89 -1.11, 171.93 -0.72, 206.46 -0.36" stroke="#1e1e1e" stroke-width="2" fill="none"/>
    </g>
  </g>
  <g stroke-linecap="round">
    <g transform="translate(523.463857253595 114.76217877004933) rotate(0 -0.732492172633556 126.18708505575981)">
      <path d="M-0.36 0.82 C-0.77 42.89, -2.7 210.41, -3.11 252.17 M1.65 0.21 C1.68 41.99, 0.08 208.5, -0.83 250.6" stroke="#1e1e1e" stroke-width="1" fill="none"/>
    </g>
  </g>
  <g stroke-linecap="round">
    <g transform="translate(571.6206344164593 119.34853849984597) rotate(0 -0.7700319699235365 121.10507930460079)">
      <path d="M0.4 -0.07 C0.06 40.38, -1.49 203.01, -1.94 243.36 M-0.85 -1.15 C-0.82 38.85, 0.21 200.73, 0.35 241.39" stroke="#1e1e1e" stroke-width="1" fill="none"/>
    </g>
  </g>
  <g stroke-linecap="round">
    <g transform="translate(614.0444619170778 117.05535863494765) rotate(0 -0.3711395672745539 125.20428029720362)">
      <path d="M1.02 1.06 C0.61 42.55, -1.55 208.68, -1.76 249.83 M0.1 0.57 C0.03 41.66, 0.74 206.87, 0.63 248.25" stroke="#1e1e1e" stroke-width="1" fill="none"/>
    </g>
  </g>
  <g stroke-linecap="round">
    <g transform="translate(658.7614692825948 114.76217877004933) rotate(0 -0.2711992827585732 127.49630464599528)">
      <path d="M-1.05 -0.91 C-1 41.68, -0.48 213.18, -0.13 255.9 M0.6 1.23 C0.52 43.4, -1.18 211.33, -1.14 253.89" stroke="#1e1e1e" stroke-width="1" fill="none"/>
    </g>
  </g>
  <g stroke-linecap="round">
    <g transform="translate(487.91956934767126 181.26439485210005) rotate(0 101.04976434497814 0.6330620997101164)">
      <path d="M-0.89 0.18 C32.87 0.35, 169.09 0.63, 202.99 1.12 M0.84 -0.78 C34.42 -0.51, 168.62 1.71, 202.06 2.04" stroke="#1e1e1e" stroke-width="1" fill="none"/>
    </g>
  </g>
  <g stroke-linecap="round">
    <g transform="translate(492.5059290774679 225.98140221761696) rotate(0 98.33837559604925 0.4715003229193542)">
      <path d="M1.05 -0.23 C33.47 0, 162.08 0.82, 194.2 1.32 M0.14 -1.4 C32.98 -1.05, 163.88 2, 196.53 2.34" stroke="#1e1e1e" stroke-width="1" fill="none"/>
    </g>
  </g>
  <g stroke-linecap="round">
    <g transform="translate(491.35933914501874 274.1381793804813) rotate(0 99.82941380675413 2.037336711751294)">
      <path d="M0.43 1.14 C33.3 1.84, 165.35 3.09, 198.35 3.38 M-0.8 0.69 C32.33 1.15, 166.86 1.8, 200.46 1.83" stroke="#1e1e1e" stroke-width="1" fill="none"/>
    </g>
  </g>
  <g stroke-linecap="round">
    <g transform="translate(494.7991089423662 318.8551867459982) rotate(0 97.75567048570045 1.1906044045909994)">
      <path d="M0.79 -1.08 C33.35 -0.57, 163.34 3.1, 195.76 3.47 M-0.25 0.96 C32.19 1.14, 162.75 1.82, 195.25 1.96" stroke="#1e1e1e" stroke-width="1" fill="none"/>
    </g>
  </g>
  <g stroke-linecap="round">
    <g transform="translate(398.48555461663744 161.77236600046456) rotate(0 27.96077053721595 0.7834802194721533)">
      <path d="M-0.99 -0.66 C8.43 -0.45, 47.56 2.09, 56.91 2.22 M0.69 1.61 C9.99 1.43, 46.88 0.78, 56.35 0.67" stroke="#1e1e1e" stroke-width="1" fill="none"/>
    </g>
    <g transform="translate(398.48555461663744 161.77236600046456) rotate(0 27.96077053721595 0.7834802194721533)">
      <path d="M29 11.89 C40.48 5.88, 45.71 5.68, 55.36 1.11 M29.3 11.58 C36.2 7.54, 41.51 5.77, 57.12 1.39" stroke="#1e1e1e" stroke-width="1" fill="none"/>
    </g>
    <g transform="translate(398.48555461663744 161.77236600046456) rotate(0 27.96077053721595 0.7834802194721533)">
      <path d="M28.71 -7.33 C40.44 -7, 45.76 -0.85, 55.36 1.11 M29.01 -7.64 C36.04 -7.68, 41.41 -5.46, 57.12 1.39" stroke="#1e1e1e" stroke-width="1" fill="none"/>
    </g>
  </g>
  <g stroke-linecap="round">
    <g transform="translate(87.75968292291766 230.56776194741354) rotate(0 59.62052412223377 -28.108155668578746)">
      <path d="M-0.24 1.17 C19.79 -7.97, 100.82 -45.99, 121.07 -55.58 M-1.83 0.74 C17.93 -8.69, 99.51 -48.06, 119.87 -57.39" stroke="#1e1e1e" stroke-width="1" fill="none"/>
    </g>
    <g transform="translate(87.75968292291766 230.56776194741354) rotate(0 59.62052412223377 -28.108155668578746)">
      <path d="M100.71 -36.86 C107.76 -44.42, 114.26 -50.88, 118.7 -58.39 M98.89 -35.7 C102.97 -40.35, 108.19 -43.48, 119.49 -56.72" stroke="#1e1e1e" stroke-width="1" fill="none"/>
    </g>
    <g transform="translate(87.75968292291766 230.56776194741354) rotate(0 59.62052412223377 -28.108155668578746)">
      <path d="M91.95 -55.42 C102.14 -56.05, 111.91 -55.6, 118.7 -58.39 M90.13 -54.26 C95.91 -55.12, 102.88 -54.54, 119.49 -56.72" stroke="#1e1e1e" stroke-width="1" fill="none"/>
    </g>
  </g>
  <g stroke-linecap="round" transform="translate(41.21857441691474 10) rotate(0 14.332374155614389 13.185784223165228)">
    <path d="M18.54 1.69 C21.31 2.26, 24.39 3.95, 26.2 6.22 C28.01 8.49, 29.77 12.52, 29.41 15.29 C29.05 18.07, 26.7 21, 24.05 22.86 C21.41 24.73, 16.64 26.32, 13.54 26.47 C10.43 26.63, 7.67 25.69, 5.41 23.82 C3.16 21.94, 0.56 18.22, 0 15.25 C-0.57 12.28, 0.32 8.49, 2.01 5.99 C3.71 3.49, 6.99 1.09, 10.18 0.23 C13.36 -0.63, 19.15 0.51, 21.14 0.85 C23.13 1.2, 22.32 1.9, 22.13 2.29 M19.22 0.92 C21.65 2.26, 24.98 5.52, 26.65 8.32 C28.33 11.13, 29.71 15.06, 29.26 17.76 C28.82 20.46, 26.55 23.22, 23.98 24.55 C21.42 25.87, 17.26 26.29, 13.87 25.71 C10.48 25.14, 6.14 22.92, 3.63 21.11 C1.12 19.3, -1.19 17.54, -1.18 14.87 C-1.18 12.19, 1.89 7.39, 3.65 5.07 C5.42 2.75, 6.39 1.38, 9.39 0.92 C12.39 0.46, 19.81 2.05, 21.65 2.33 C23.49 2.61, 20.91 2.7, 20.44 2.6" stroke="#1e1e1e" stroke-width="1" fill="none"/>
  </g>
  <g stroke-linecap="round">
    <g transform="translate(54.97765360630455 38.66474831122878) rotate(0 -2.258195787817235 24.616407200149894)">
      <path d="M0.83 -0.36 C-0.16 7.98, -3.95 41.32, -4.86 49.69 M-0.2 -1.59 C-1.37 6.91, -4.57 42.09, -5.34 50.82" stroke="#1e1e1e" stroke-width="1" fill="none"/>
    </g>
  </g>
  <g stroke-linecap="round">
    <g transform="translate(52.68447374140623 52.423827500618586) rotate(0 -4.93601090015837 2.204164584573334)">
      <path d="M0.88 -0.76 C-0.99 -0.04, -8.25 2.88, -10.37 3.96 M-0.12 1.45 C-2.12 2.35, -8.63 4.75, -10.75 5.17" stroke="#1e1e1e" stroke-width="1" fill="none"/>
    </g>
  </g>
  <g stroke-linecap="round">
    <g transform="translate(57.27083347120287 52.423827500618586) rotate(0 8.506045287474864 7.1383725444674155)">
      <path d="M1.09 -0.62 C3.75 1.99, 14.15 12.41, 16.81 14.9 M0.21 1.66 C2.59 4.04, 12.99 11.61, 15.65 13.38" stroke="#1e1e1e" stroke-width="1" fill="none"/>
    </g>
  </g>
  <g stroke-linecap="round">
    <g transform="translate(48.09811401160959 93.70106506878801) rotate(0 -11.831675724651532 5.784151054635572)">
      <path d="M-0.39 1.14 C-4.61 3.06, -20.21 9.51, -24.23 10.87 M1.6 0.69 C-2.89 2.31, -20.74 7.48, -25.26 9.04" stroke="#1e1e1e" stroke-width="1" fill="none"/>
    </g>
  </g>
  <g stroke-linecap="round">
    <g transform="translate(50.39129387650791 87.96811540654232) rotate(0 4.651129705812716 11.355251979790495)">
      <path d="M-0.16 0.55 C1.74 4.02, 9.04 18.13, 11 21.91 M-1.7 -0.2 C0.04 3.89, 7.71 18.76, 9.81 22.91" stroke="#1e1e1e" stroke-width="1" fill="none"/>
    </g>
  </g>
  <g stroke-linecap="round" transform="translate(76.76286232283836 47.837467770821945) rotate(0 6.879539594694904 17.19884898673726)">
    <path d="M3.44 0 M3.44 0 C4.83 0.1, 7.56 0.37, 10.32 0 M3.44 0 C5.12 0.27, 7.05 0, 10.32 0 M10.32 0 C11.17 -1.21, 12.67 0.28, 13.76 3.44 M10.32 0 C13.69 2.03, 15.34 -1.04, 13.76 3.44 M13.76 3.44 C14.56 10.9, 15.15 17.4, 13.76 30.96 M13.76 3.44 C13.58 11.74, 13.1 22.25, 13.76 30.96 M13.76 30.96 C15.11 32.59, 10.87 35.05, 10.32 34.4 M13.76 30.96 C15.58 34.88, 12.76 36.08, 10.32 34.4 M10.32 34.4 C8.83 33.79, 6.54 35.01, 3.44 34.4 M10.32 34.4 C8.93 34.35, 7.24 34.01, 3.44 34.4 M3.44 34.4 C2.16 35.17, 0.1 34.58, 0 30.96 M3.44 34.4 C3.24 33.52, 1.35 32.72, 0 30.96 M0 30.96 C1.65 19.42, -0.93 10.45, 0 3.44 M0 30.96 C1.08 24.93, 0.5 17.86, 0 3.44 M0 3.44 C1.32 -0.72, 1.46 -1.11, 3.44 0 M0 3.44 C-0.44 -0.53, 1.91 -2.08, 3.44 0" stroke="#1971c2" stroke-width="1" fill="none"/>
  </g>
  <g stroke-linecap="round">
    <g transform="translate(102.6653520447572 65.45881167473465) rotate(0 52.21609263784013 41.70730807985325)">
      <path d="M-0.13 0.23 C17.51 14.42, 88.56 70.07, 106.09 84.11 M-1.66 -0.7 C15.86 13.22, 87.84 68.33, 105.46 82.2" stroke="#1e1e1e" stroke-width="1" fill="none"/>
    </g>
    <g transform="translate(102.6653520447572 65.45881167473465) rotate(0 52.21609263784013 41.70730807985325)">
      <path d="M77.27 74.04 C86.62 75.25, 96.36 79.12, 105.8 83.82 M77.82 72.1 C87.3 75.93, 97.09 79.89, 105.79 82.96" stroke="#1e1e1e" stroke-width="1" fill="none"/>
    </g>
    <g transform="translate(102.6653520447572 65.45881167473465) rotate(0 52.21609263784013 41.70730807985325)">
      <path d="M89.85 57.83 C95.03 64.2, 100.76 73.25, 105.8 83.82 M90.4 55.89 C95.44 65.55, 100.7 75.35, 105.79 82.96" stroke="#1e1e1e" stroke-width="1" fill="none"/>
    </g>
  </g>
  <g stroke-linecap="round">
    <g transform="translate(79.24966195119642 75.67293287538132) rotate(0 5.457772360763549 -0.3586505467817176)">
      <path d="M0.34 -0.42 C2.36 -0.33, 10 -0.42, 11.86 -0.38 M-0.95 -1.68 C0.98 -1.34, 9.15 0.51, 11.09 0.96" stroke="#1971c2" stroke-width="1" fill="none"/>
    </g>
  </g>
  <g stroke-linecap="round">
    <g transform="translate(64.98867009762866 238.28634169800472) rotate(0 6.605272883512399 0.429479129386408)">
      <path d="M0.6 0.55 C2.53 0.64, 9.36 0.05, 11.4 -0.12 M-0.55 -0.21 C1.79 0.09, 11.59 0.97, 13.76 1.07" stroke="#2f9e44" stroke-width="1" fill="none"/>
    </g>
  </g>
  <g stroke-linecap="round" transform="translate(83.08915975792623 77.31843193540834) rotate(0 0.8227495300135104 1.3712492166891934)">
    <path d="M0.52 -0.73 C0.73 -0.86, 1.11 -0.72, 1.44 -0.58 C1.77 -0.45, 2.59 -0.38, 2.49 0.07 C2.38 0.52, 0.92 1.84, 0.79 2.12 C0.65 2.4, 1.75 1.52, 1.69 1.75 C1.64 1.99, 0.6 3.43, 0.46 3.55 C0.32 3.67, 0.82 2.93, 0.86 2.46 C0.89 2, 0.77 1.21, 0.67 0.77 C0.58 0.33, 0.35 -0.17, 0.3 -0.19 C0.25 -0.21, 0.15 0.64, 0.38 0.63 C0.61 0.63, 1.61 0.01, 1.68 -0.21 M-0.21 1.46 C0.08 1.62, 1.68 0.59, 1.87 0.72 C2.07 0.86, 1.24 2.18, 0.96 2.28 C0.69 2.37, 0.28 1.26, 0.23 1.28 C0.18 1.29, 0.56 2.36, 0.66 2.36 C0.76 2.36, 0.77 1.51, 0.81 1.27 C0.85 1.03, 1.12 0.84, 0.9 0.92 C0.68 1.01, -0.48 1.99, -0.52 1.78 C-0.56 1.57, 0.25 -0.04, 0.65 -0.33 C1.05 -0.61, 1.83 -0.04, 1.86 0.07 C1.9 0.17, 1.15 0.36, 0.85 0.32" stroke="none" stroke-width="0" fill="#ffffff"/>
    <path d="M-0.16 0.23 C0.18 0.27, 0.99 0.78, 1.43 0.99 C1.87 1.21, 2.31 1.34, 2.48 1.51 C2.66 1.67, 2.77 1.85, 2.49 1.98 C2.21 2.12, 1.16 2.13, 0.79 2.31 C0.42 2.49, 0.4 3.19, 0.25 3.08 C0.1 2.97, -0.14 1.99, -0.11 1.64 C-0.09 1.3, 0.26 1.02, 0.39 1.03 C0.53 1.05, 0.81 1.86, 0.69 1.74 C0.56 1.62, -0.54 0.7, -0.36 0.32 C-0.19 -0.06, 1.55 -0.4, 1.74 -0.54 M1.05 1.33 C1.57 1.23, 1.91 -0.76, 2.17 -0.93 C2.43 -1.1, 2.53 -0.2, 2.6 0.3 C2.67 0.81, 2.9 1.95, 2.59 2.09 C2.28 2.23, 1.21 1.07, 0.75 1.13 C0.3 1.2, 0.15 2.22, -0.13 2.49 C-0.4 2.75, -0.84 2.89, -0.87 2.72 C-0.89 2.55, -0.43 2.02, -0.27 1.47 C-0.12 0.92, -0.22 -0.43, 0.06 -0.6 C0.34 -0.76, 1.47 0.24, 1.4 0.5 C1.32 0.75, -0.46 1.08, -0.39 0.93" stroke="#1971c2" stroke-width="1" fill="none"/>
  </g>
  <g stroke-linecap="round" transform="translate(69.10241774769626 239.9485890347479) rotate(0 0.8227495300135104 1.3712492166891934)">
    <path d="M1.13 -0.64 C1.25 -0.63, 1.15 -0.25, 1.21 0.09 C1.27 0.42, 1.34 1.03, 1.48 1.39 C1.62 1.75, 2.13 1.92, 2.08 2.26 C2.02 2.59, 1.41 3.4, 1.13 3.41 C0.85 3.42, 0.62 2.7, 0.39 2.34 C0.16 1.98, -0.32 1.67, -0.25 1.26 C-0.18 0.85, 0.52 -0.09, 0.8 -0.12 C1.09 -0.15, 1.31 1.12, 1.43 1.08 C1.55 1.04, 1.6 -0.06, 1.53 -0.36 C1.45 -0.66, 1.02 -0.89, 1 -0.73 M1.87 -0.95 C1.85 -0.95, 1.29 0.46, 1.37 0.97 C1.46 1.48, 2.4 1.82, 2.36 2.11 C2.32 2.4, 1.33 2.57, 1.15 2.74 C0.98 2.91, 1.27 3.05, 1.29 3.13 C1.31 3.21, 1.71 3.63, 1.28 3.23 C0.85 2.84, -0.9 1.37, -1.29 0.78 C-1.67 0.2, -1.48 0.01, -1.04 -0.26 C-0.61 -0.53, 0.84 -1.13, 1.3 -0.86 C1.77 -0.58, 2 1.14, 1.75 1.39 C1.5 1.63, 0.07 0.68, -0.19 0.64" stroke="none" stroke-width="0" fill="#ffffff"/>
    <path d="M1.59 0.94 C1.64 0.94, 1.04 -0.33, 1.08 -0.34 C1.12 -0.36, 1.78 0.5, 1.83 0.86 C1.87 1.22, 1.52 1.63, 1.36 1.81 C1.19 1.99, 0.95 1.93, 0.84 1.93 C0.72 1.93, 0.63 1.94, 0.65 1.79 C0.68 1.65, 1.2 1.14, 0.97 1.05 C0.73 0.96, -0.73 1.51, -0.75 1.24 C-0.77 0.97, 0.6 -0.51, 0.85 -0.57 C1.1 -0.63, 0.6 0.76, 0.74 0.89 C0.89 1.01, 1.53 0.43, 1.69 0.17 M1.79 1.47 C2.11 1.58, 1.26 0.44, 1.03 0.62 C0.8 0.79, 0.41 2.35, 0.41 2.53 C0.4 2.71, 1.12 1.45, 0.99 1.7 C0.87 1.95, -0.31 3.89, -0.34 4.03 C-0.38 4.18, 0.82 2.81, 0.78 2.56 C0.74 2.3, -0.28 2.97, -0.58 2.51 C-0.89 2.05, -1.19 0.24, -1.05 -0.2 C-0.91 -0.64, -0.16 0.01, 0.26 -0.14 C0.68 -0.28, 1.21 -1.01, 1.47 -1.08 C1.72 -1.14, 2 -0.95, 1.8 -0.55" stroke="#2f9e44" stroke-width="1" fill="none"/>
  </g>
  <g stroke-linecap="round" transform="translate(485.3131141333219 230.19811580216117) rotate(0 100.92846453031632 20.44955817280919)">
    <path d="M8.69 0.48 L195.63 0.44 L203.11 4.67 L202.16 34.08 L200.49 37.23 L191.24 42.36 L4.68 40.93 L-0.36 34.67 L-1.98 11.94 L2.5 3.92 L9.94 -1.38" stroke="none" stroke-width="0" fill="#69db7c55"/>
    <path d="M10.22 0 M10.22 0 C53.31 -0.9, 92.4 -1.82, 191.63 0 M10.22 0 C47.3 -0.71, 85.76 0.14, 191.63 0 M191.63 0 C198.03 -0.71, 201.04 3.27, 201.86 10.22 M191.63 0 C197.42 -1.2, 199.75 2.14, 201.86 10.22 M201.86 10.22 C201.88 20.17, 200.06 25.21, 201.86 30.67 M201.86 10.22 C201.1 17.33, 202.14 23.67, 201.86 30.67 M201.86 30.67 C200.46 37.11, 197.51 41.38, 191.63 40.9 M201.86 30.67 C203.94 37.18, 198.85 40.98, 191.63 40.9 M191.63 40.9 C125.74 40.71, 59.99 41.13, 10.22 40.9 M191.63 40.9 C150.06 41.6, 109.25 40.78, 10.22 40.9 M10.22 40.9 C4.27 41.78, 1.07 38.62, 0 30.67 M10.22 40.9 C2.28 41.49, -0.38 35.51, 0 30.67 M0 30.67 C-1.09 21.07, 0.15 13.11, 0 10.22 M0 30.67 C0.15 22.1, -0.53 13.6, 0 10.22 M0 10.22 C1.3 3.33, 2.46 0.54, 10.22 0 M0 10.22 C-1.84 5.67, 1.81 -2.09, 10.22 0" stroke="transparent" stroke-width="1" fill="none"/>
  </g>
  <g stroke-linecap="round" transform="translate(488.61142996764585 323.2106223300997) rotate(0 100.92846453031632 20.44955817280919)">
    <path d="M10.71 1.81 L195.84 0.99 L201.29 7.12 L200.29 33.23 L200.2 39.89 L193.58 42.87 L4.34 40.27 L1.45 35.25 L-0.06 11.97 L0.84 3.42 L11.1 1.07" stroke="none" stroke-width="0" fill="#69db7c55"/>
    <path d="M10.22 0 M10.22 0 C74.55 -2.19, 141.19 -1.36, 191.63 0 M10.22 0 C69.77 0.66, 130.25 0.86, 191.63 0 M191.63 0 C198.38 0, 201.02 2.04, 201.86 10.22 M191.63 0 C196.69 1.49, 201.77 2.32, 201.86 10.22 M201.86 10.22 C200.3 15.09, 200.73 24.76, 201.86 30.67 M201.86 10.22 C202.68 15.84, 201.97 22.69, 201.86 30.67 M201.86 30.67 C203.09 38.8, 196.69 40.58, 191.63 40.9 M201.86 30.67 C200.27 35.64, 198.06 41.71, 191.63 40.9 M191.63 40.9 C153.86 39.79, 114.35 38.01, 10.22 40.9 M191.63 40.9 C139.91 39.81, 89.19 39.89, 10.22 40.9 M10.22 40.9 C5.24 40.17, -0.63 39.28, 0 30.67 M10.22 40.9 C3.46 42.74, 0.68 38.68, 0 30.67 M0 30.67 C0.97 24.57, 1.14 20.62, 0 10.22 M0 30.67 C-0.26 23.5, 0.97 16.27, 0 10.22 M0 10.22 C1.99 2.29, 3.94 1.94, 10.22 0 M0 10.22 C-1.66 4.37, 1.55 2.04, 10.22 0" stroke="transparent" stroke-width="1" fill="none"/>
  </g>
  <g stroke-linecap="round" transform="translate(488.61142996764585 278.35352698329245) rotate(0 100.92846453031632 20.44955817280919)">
    <path d="M10.76 -1.6 L198.07 -0.75 L199.4 4.79 L202.38 35.59 L199.89 38.63 L193.15 38.96 L5.86 38.84 L1.87 36.46 L-1.76 9.91 L1.17 0.94 L9.88 0.71" stroke="none" stroke-width="0" fill="#a5d8ff55"/>
    <path d="M10.22 0 M10.22 0 C48.21 2.2, 84.46 0.42, 191.63 0 M10.22 0 C61.5 -0.35, 113.78 -0.27, 191.63 0 M191.63 0 C200.28 -0.73, 201.23 5.2, 201.86 10.22 M191.63 0 C198.5 1.84, 202.54 4.59, 201.86 10.22 M201.86 10.22 C202.98 15.97, 203.15 23.85, 201.86 30.67 M201.86 10.22 C201.2 16.92, 202.43 23.57, 201.86 30.67 M201.86 30.67 C203.84 36.37, 198.98 42.84, 191.63 40.9 M201.86 30.67 C200.19 38.46, 196.59 42.94, 191.63 40.9 M191.63 40.9 C127.94 42.05, 63.02 40.4, 10.22 40.9 M191.63 40.9 C152.13 41.67, 115.27 41.03, 10.22 40.9 M10.22 40.9 C2 39.31, -0.94 36.16, 0 30.67 M10.22 40.9 C5.68 43.05, -0.64 38.49, 0 30.67 M0 30.67 C0.91 22.25, 1.15 17.5, 0 10.22 M0 30.67 C0.2 24.9, 0.21 19.09, 0 10.22 M0 10.22 C0.78 2.21, 4.63 -0.48, 10.22 0 M0 10.22 C2.01 3.12, 1.63 -0.19, 10.22 0" stroke="transparent" stroke-width="1" fill="none"/>
  </g>
  <g stroke-linecap="round" transform="translate(494.4775013669742 184.08995680417212) rotate(0 100.92846453031632 20.44955817280919)">
    <path d="M11.01 1.74 L194.33 1.72 L199.73 7.08 L201.92 35.19 L199.08 39.61 L191.99 41.71 L6.12 41.82 L1.42 33.95 L1.23 9.75 L4.31 2.31 L8.68 -0.16" stroke="none" stroke-width="0" fill="#a5d8ff55"/>
    <path d="M10.22 0 M10.22 0 C76.02 0.03, 142.08 -3, 191.63 0 M10.22 0 C54.24 1.69, 99.59 -0.02, 191.63 0 M191.63 0 C197.92 -0.9, 203.61 1.87, 201.86 10.22 M191.63 0 C196.71 -1.95, 204.11 4.88, 201.86 10.22 M201.86 10.22 C202.62 17.57, 200.3 25.37, 201.86 30.67 M201.86 10.22 C202.11 14.95, 201.1 18.81, 201.86 30.67 M201.86 30.67 C200.81 39.4, 199.87 40.2, 191.63 40.9 M201.86 30.67 C203.62 36.92, 200.65 41.21, 191.63 40.9 M191.63 40.9 C155.02 39.67, 118.73 40.49, 10.22 40.9 M191.63 40.9 C155.03 40.54, 117.15 42.17, 10.22 40.9 M10.22 40.9 C1.82 41.74, -1.39 38.67, 0 30.67 M10.22 40.9 C1.68 39.69, -0.85 39.6, 0 30.67 M0 30.67 C1.72 21.41, 0.2 16.02, 0 10.22 M0 30.67 C-0.52 24.77, 0.52 19.25, 0 10.22 M0 10.22 C-0.47 5.32, 2.26 1.97, 10.22 0 M0 10.22 C-1.3 2.61, 5.12 0.37, 10.22 0" stroke="transparent" stroke-width="1" fill="none"/>
  </g>
  <g stroke-linecap="round" transform="translate(492.17426847156804 140.32853179145513) rotate(0 100.92846453031632 20.44955817280919)">
    <path d="M8.68 -1.51 L194.41 2.59 L202.5 6.5 L199.34 36.63 L200.26 38.79 L190.27 42.24 L3.76 39.19 L-0.09 35.87 L1.26 8.92 L3.34 1.51 L12.14 1.42" stroke="none" stroke-width="0" fill="#a5d8ff55"/>
    <path d="M10.22 0 M10.22 0 C60.23 0.73, 104.5 0.35, 191.63 0 M10.22 0 C48.55 0.23, 84.61 -0.13, 191.63 0 M191.63 0 C198.81 1.54, 200.48 3.92, 201.86 10.22 M191.63 0 C200.62 -1.82, 202.83 1.8, 201.86 10.22 M201.86 10.22 C200.97 19.4, 203.24 25.38, 201.86 30.67 M201.86 10.22 C202.16 15.79, 201.68 21.24, 201.86 30.67 M201.86 30.67 C200.36 36.72, 197.46 42.2, 191.63 40.9 M201.86 30.67 C200.45 36.95, 200.65 39.58, 191.63 40.9 M191.63 40.9 C120.79 40.59, 47.6 39.11, 10.22 40.9 M191.63 40.9 C119.35 41.12, 48.59 40.96, 10.22 40.9 M10.22 40.9 C4.14 41.46, 0.81 37.78, 0 30.67 M10.22 40.9 C1.24 40.9, -1.14 35.7, 0 30.67 M0 30.67 C-1.79 25.75, -0.28 18.17, 0 10.22 M0 30.67 C-0.59 22.59, -0.47 14.49, 0 10.22 M0 10.22 C0.46 3.97, 4.48 1.61, 10.22 0 M0 10.22 C-0.51 4.74, 2.63 2.22, 10.22 0" stroke="transparent" stroke-width="1" fill="none"/>
  </g>
  <mask/>
  <mask/>
  <mask/>
  <mask/>
  <mask/>
  <mask/>
  <mask/>
  <mask/>
  <mask/>
  <mask/>
  <mask/>
  <mask/>
  <mask/>
  <mask/>
  <mask/>
  <mask/>
  <mask/>
  <mask/>
  <mask/>
  <mask/>
  <mask/>
  <mask/>
  <mask/>
  <mask/>
  <mask/>
  <mask/>
  <mask/>
  <mask/>
  <mask/>
  <mask/>
</svg>