<?xml version="1.0" encoding="UTF-8" standalone="yes"?>
<svg version="1.1" xmlns="http://www.w3.org/2000/svg" viewBox="0 0 739.4797123229234 344.2318746754299" width="1478.9594246458469" height="688.4637493508598">
  <defs>
    <style class="style-fonts">
      @font-face {
        font-family: "Virgil";
        src: url("https://excalidraw.com/Virgil.woff2");
      }
      @font-face {
        font-family: "Cascadia";
        src: url("https://excalidraw.com/Cascadia.woff2");
      }
    </style>
  </defs>
  <g stroke-linecap="round" transform="translate(28.137006435561787 186.35990726580326) rotate(0 14.332374155614389 13.185784223165228)">
    <path d="M13.56 0.87 C16.38 0.59, 20.49 1.28, 22.82 2.76 C25.16 4.24, 26.74 7.14, 27.55 9.74 C28.37 12.33, 28.91 15.71, 27.71 18.34 C26.51 20.96, 23.11 24.16, 20.36 25.47 C17.62 26.78, 14.3 27.13, 11.23 26.21 C8.16 25.29, 3.87 22.25, 1.92 19.97 C-0.03 17.68, -0.75 15.23, -0.48 12.5 C-0.21 9.77, 1.15 5.52, 3.53 3.58 C5.91 1.63, 12.02 1.26, 13.79 0.83 C15.56 0.4, 14.24 0.81, 14.13 1.01 M17.94 1.8 C20.81 2.38, 24.83 3.41, 26.36 5.67 C27.88 7.93, 27.67 12.34, 27.1 15.38 C26.54 18.42, 25.09 22.06, 22.96 23.9 C20.83 25.73, 17.27 26.29, 14.34 26.39 C11.4 26.49, 7.49 26.21, 5.36 24.49 C3.23 22.78, 1.95 19.14, 1.55 16.11 C1.15 13.07, 1.75 8.86, 2.94 6.27 C4.14 3.68, 6.09 1.65, 8.72 0.55 C11.35 -0.55, 17.15 -0.2, 18.71 -0.32 C20.27 -0.45, 18.19 -0.79, 18.08 -0.18" stroke="#1e1e1e" stroke-width="1" fill="none"/>
  </g>
  <g stroke-linecap="round">
    <g transform="translate(41.896085624951596 215.02465557703204) rotate(0 -2.5152181916870133 25.430441829800344)">
      <path d="M-0.57 -0.56 C-1.39 7.97, -4.6 42.77, -5.53 51.42 M1.34 1.76 C0.43 9.94, -4.97 41.86, -6.37 49.81" stroke="#1e1e1e" stroke-width="1" fill="none"/>
    </g>
  </g>
  <g stroke-linecap="round">
    <g transform="translate(39.602905760053275 228.78373476642184) rotate(0 -5.525146239492978 2.942199563752837)">
      <path d="M-0.5 0.52 C-2.24 1.29, -9.71 3.76, -11.51 4.6 M1.43 -0.26 C-0.37 0.72, -10.24 5.49, -12.48 6.14" stroke="#1e1e1e" stroke-width="1" fill="none"/>
    </g>
  </g>
  <g stroke-linecap="round">
    <g transform="translate(44.189265489849916 228.78373476642184) rotate(0 8.51897004417131 7.302822392916227)">
      <path d="M0.16 0.94 C3.21 3.31, 15.28 12.13, 18.26 14.22 M-1.22 0.38 C1.77 2.39, 14.71 9.97, 17.86 12.34" stroke="#1e1e1e" stroke-width="1" fill="none"/>
    </g>
  </g>
  <g stroke-linecap="round">
    <g transform="translate(35.016546030256634 270.06097233459127) rotate(0 -12.436546611556652 5.595557225519713)">
      <path d="M0.14 0.61 C-3.79 2.32, -19.93 9.7, -24.07 11.31 M-1.24 -0.11 C-5.28 1.79, -20.92 7.77, -25.02 9.7" stroke="#1e1e1e" stroke-width="1" fill="none"/>
    </g>
  </g>
  <g stroke-linecap="round">
    <g transform="translate(37.309725895154955 264.3280226723455) rotate(0 5.335193778471955 12.20163367993186)">
      <path d="M0.81 1.1 C2.73 5.08, 9.04 20.21, 10.9 23.78 M-0.22 0.63 C1.55 4.28, 7.7 18.27, 9.65 22.1" stroke="#1e1e1e" stroke-width="1" fill="none"/>
    </g>
  </g>
  <g stroke-linecap="round" transform="translate(63.68129434148541 224.1973750366252) rotate(0 6.879539594694904 17.19884898673726)">
    <path d="M3.44 0 M3.44 0 C6.03 -0.28, 8.7 0.63, 10.32 0 M3.44 0 C5.88 0.19, 8.74 0.15, 10.32 0 M10.32 0 C12.16 -1.92, 12.82 0.97, 13.76 3.44 M10.32 0 C13.1 1.22, 13.38 -0.66, 13.76 3.44 M13.76 3.44 C14.33 12.04, 15.44 21.38, 13.76 30.96 M13.76 3.44 C14.22 12.98, 14.01 22.59, 13.76 30.96 M13.76 30.96 C14.33 33.37, 14.36 35.91, 10.32 34.4 M13.76 30.96 C12.78 33.69, 10.86 32.91, 10.32 34.4 M10.32 34.4 C7.94 34.38, 5.93 34.39, 3.44 34.4 M10.32 34.4 C8.16 34.79, 6.91 34.23, 3.44 34.4 M3.44 34.4 C0.13 34.73, -1.82 31.77, 0 30.96 M3.44 34.4 C-0.65 34.43, -0.03 33.67, 0 30.96 M0 30.96 C-0.37 20.17, 0.51 8.85, 0 3.44 M0 30.96 C0.71 20.57, 0.47 10.61, 0 3.44 M0 3.44 C0.86 0.08, 1.48 1.92, 3.44 0 M0 3.44 C-0.98 3.44, -0.26 -1.84, 3.44 0" stroke="#2f9e44" stroke-width="1" fill="none"/>
  </g>
  <g stroke-linecap="round" transform="translate(485.2560567112541 31.532132508854033) rotate(0 122.11182780583465 151.34987108328792)">
    <path d="M32 0 M32 0 C82.89 -0.9, 131.15 1.45, 212.22 0 M32 0 C78.72 1.48, 125.73 2.18, 212.22 0 M212.22 0 C232.71 0.39, 242.7 9.38, 244.22 32 M212.22 0 C233.16 0.4, 242.06 9.21, 244.22 32 M244.22 32 C242.33 105.39, 244.21 177.4, 244.22 270.7 M244.22 32 C245.79 126.75, 245.46 220.61, 244.22 270.7 M244.22 270.7 C242.67 292.06, 233.53 303.06, 212.22 302.7 M244.22 270.7 C246.08 291.47, 233.74 302.19, 212.22 302.7 M212.22 302.7 C162.65 301.83, 111.53 303.12, 32 302.7 M212.22 302.7 C157.52 303.15, 102.13 304.65, 32 302.7 M32 302.7 C9.81 304.69, -1.22 290.44, 0 270.7 M32 302.7 C12.75 302.03, 1.41 294.32, 0 270.7 M0 270.7 C-2.07 201.83, -0.97 134.25, 0 32 M0 270.7 C1.2 223.03, 0.47 173.78, 0 32 M0 32 C1.28 11.38, 9.68 -1.06, 32 0 M0 32 C1.63 10.59, 8.89 -0.34, 32 0" stroke="#1e1e1e" stroke-width="1" fill="none"/>
  </g>
  <g stroke-linecap="round">
    <g transform="translate(504.7480855628898 85.42185933396411) rotate(0 102.69212676859368 0.3019791580778133)">
      <path d="M-0.14 0.11 C34.47 0.29, 172.65 1.51, 207.06 1.55 M-1.67 -0.87 C32.89 -1.11, 171.93 -0.72, 206.46 -0.36" stroke="#1e1e1e" stroke-width="2" fill="none"/>
    </g>
  </g>
  <g stroke-linecap="round">
    <g transform="translate(544.8787331986102 60.19688082008281) rotate(0 -0.732492172633556 126.18708505575984)">
      <path d="M-0.36 0.82 C-0.77 42.89, -2.7 210.41, -3.11 252.17 M1.65 0.21 C1.68 41.99, 0.08 208.5, -0.83 250.6" stroke="#1e1e1e" stroke-width="1" fill="none"/>
    </g>
  </g>
  <g stroke-linecap="round">
    <g transform="translate(593.0355103614745 64.78324054987945) rotate(0 -0.7700319699235365 121.10507930460079)">
      <path d="M0.4 -0.07 C0.06 40.38, -1.49 203.01, -1.94 243.36 M-0.85 -1.15 C-0.82 38.85, 0.21 200.73, 0.35 241.39" stroke="#1e1e1e" stroke-width="1" fill="none"/>
    </g>
  </g>
  <g stroke-linecap="round">
    <g transform="translate(635.459337862093 62.49006068498113) rotate(0 -0.3711395672745539 125.20428029720364)">
      <path d="M1.02 1.06 C0.61 42.55, -1.55 208.68, -1.76 249.83 M0.1 0.57 C0.03 41.66, 0.74 206.87, 0.63 248.25" stroke="#1e1e1e" stroke-width="1" fill="none"/>
    </g>
  </g>
  <g stroke-linecap="round">
    <g transform="translate(680.17634522761 60.19688082008281) rotate(0 -0.2711992827585732 127.49630464599528)">
      <path d="M-1.05 -0.91 C-1 41.68, -0.48 213.18, -0.13 255.9 M0.6 1.23 C0.52 43.4, -1.18 211.33, -1.14 253.89" stroke="#1e1e1e" stroke-width="1" fill="none"/>
    </g>
  </g>
  <g stroke-linecap="round">
    <g transform="translate(509.33444529268644 126.69909690213353) rotate(0 101.04976434497814 0.6330620997101164)">
      <path d="M-0.89 0.18 C32.87 0.35, 169.09 0.63, 202.99 1.12 M0.84 -0.78 C34.42 -0.51, 168.62 1.71, 202.06 2.04" stroke="#1e1e1e" stroke-width="1" fill="none"/>
    </g>
  </g>
  <g stroke-linecap="round">
    <g transform="translate(513.9208050224831 171.41610426765044) rotate(0 98.33837559604925 0.4715003229193542)">
      <path d="M1.05 -0.23 C33.47 0, 162.08 0.82, 194.2 1.32 M0.14 -1.4 C32.98 -1.05, 163.88 2, 196.53 2.34" stroke="#1e1e1e" stroke-width="1" fill="none"/>
    </g>
  </g>
  <g stroke-linecap="round">
    <g transform="translate(512.774215090034 219.57288143051477) rotate(0 99.82941380675413 2.037336711751294)">
      <path d="M0.43 1.14 C33.3 1.84, 165.35 3.09, 198.35 3.38 M-0.8 0.69 C32.33 1.15, 166.86 1.8, 200.46 1.83" stroke="#1e1e1e" stroke-width="1" fill="none"/>
    </g>
  </g>
  <g stroke-linecap="round">
    <g transform="translate(516.2139848873815 264.2898887960317) rotate(0 97.75567048570045 1.1906044045909994)">
      <path d="M0.79 -1.08 C33.35 -0.57, 163.34 3.1, 195.76 3.47 M-0.25 0.96 C32.19 1.14, 162.75 1.82, 195.25 1.96" stroke="#1e1e1e" stroke-width="1" fill="none"/>
    </g>
  </g>
  <g stroke-linecap="round">
    <g transform="translate(289.520028137673 235.2318923954678) rotate(0 88.16677532799481 -23.794788152963946)">
      <path d="M-0.24 1.17 C29.31 -6.53, 148.39 -38.8, 178.16 -46.95 M-1.83 0.74 C27.45 -7.25, 147.09 -40.88, 176.96 -48.76" stroke="#1e1e1e" stroke-width="1" fill="none"/>
    </g>
    <g transform="translate(289.520028137673 235.2318923954678) rotate(0 88.16677532799481 -23.794788152963946)">
      <path d="M154.43 -32.21 C162.71 -38.29, 170.47 -43.26, 175.79 -49.76 M152.61 -31.05 C157.36 -34.88, 163.25 -37.21, 176.59 -48.09" stroke="#1e1e1e" stroke-width="1" fill="none"/>
    </g>
    <g transform="translate(289.520028137673 235.2318923954678) rotate(0 88.16677532799481 -23.794788152963946)">
      <path d="M149.01 -52 C159.19 -50.7, 168.96 -48.3, 175.79 -49.76 M147.2 -50.84 C152.96 -50.66, 159.94 -49.04, 176.59 -48.09" stroke="#1e1e1e" stroke-width="1" fill="none"/>
    </g>
  </g>
  <g stroke-linecap="round" transform="translate(41.21857441691474 24.268231873296372) rotate(0 14.332374155614389 13.185784223165228)">
    <path d="M18.54 1.69 C21.31 2.26, 24.39 3.95, 26.2 6.22 C28.01 8.49, 29.77 12.52, 29.41 15.29 C29.05 18.07, 26.7 21, 24.05 22.86 C21.41 24.73, 16.64 26.32, 13.54 26.47 C10.43 26.63, 7.67 25.69, 5.41 23.82 C3.16 21.94, 0.56 18.22, 0 15.25 C-0.57 12.28, 0.32 8.49, 2.01 5.99 C3.71 3.49, 6.99 1.09, 10.18 0.23 C13.36 -0.63, 19.15 0.51, 21.14 0.85 C23.13 1.2, 22.32 1.9, 22.13 2.29 M19.22 0.92 C21.65 2.26, 24.98 5.52, 26.65 8.32 C28.33 11.13, 29.71 15.06, 29.26 17.76 C28.82 20.46, 26.55 23.22, 23.98 24.55 C21.42 25.87, 17.26 26.29, 13.87 25.71 C10.48 25.14, 6.14 22.92, 3.63 21.11 C1.12 19.3, -1.19 17.54, -1.18 14.87 C-1.18 12.19, 1.89 7.39, 3.65 5.07 C5.42 2.75, 6.39 1.38, 9.39 0.92 C12.39 0.46, 19.81 2.05, 21.65 2.33 C23.49 2.61, 20.91 2.7, 20.44 2.6" stroke="#1e1e1e" stroke-width="1" fill="none"/>
  </g>
  <g stroke-linecap="round">
    <g transform="translate(54.97765360630455 52.93298018452515) rotate(0 -2.258195787817235 24.616407200149894)">
      <path d="M0.83 -0.36 C-0.16 7.98, -3.95 41.32, -4.86 49.69 M-0.2 -1.59 C-1.37 6.91, -4.57 42.09, -5.34 50.82" stroke="#1e1e1e" stroke-width="1" fill="none"/>
    </g>
  </g>
  <g stroke-linecap="round">
    <g transform="translate(52.68447374140623 66.69205937391496) rotate(0 -4.93601090015837 2.204164584573334)">
      <path d="M0.88 -0.76 C-0.99 -0.04, -8.25 2.88, -10.37 3.96 M-0.12 1.45 C-2.12 2.35, -8.63 4.75, -10.75 5.17" stroke="#1e1e1e" stroke-width="1" fill="none"/>
    </g>
  </g>
  <g stroke-linecap="round">
    <g transform="translate(57.27083347120287 66.69205937391496) rotate(0 8.506045287474864 7.1383725444674155)">
      <path d="M1.09 -0.62 C3.75 1.99, 14.15 12.41, 16.81 14.9 M0.21 1.66 C2.59 4.04, 12.99 11.61, 15.65 13.38" stroke="#1e1e1e" stroke-width="1" fill="none"/>
    </g>
  </g>
  <g stroke-linecap="round">
    <g transform="translate(48.09811401160959 107.96929694208438) rotate(0 -11.831675724651532 5.784151054635572)">
      <path d="M-0.39 1.14 C-4.61 3.06, -20.21 9.51, -24.23 10.87 M1.6 0.69 C-2.89 2.31, -20.74 7.48, -25.26 9.04" stroke="#1e1e1e" stroke-width="1" fill="none"/>
    </g>
  </g>
  <g stroke-linecap="round">
    <g transform="translate(50.39129387650791 102.2363472798387) rotate(0 4.651129705812716 11.355251979790495)">
      <path d="M-0.16 0.55 C1.74 4.02, 9.04 18.13, 11 21.91 M-1.7 -0.2 C0.04 3.89, 7.71 18.76, 9.81 22.91" stroke="#1e1e1e" stroke-width="1" fill="none"/>
    </g>
  </g>
  <g stroke-linecap="round" transform="translate(76.76286232283836 62.10569964411832) rotate(0 6.879539594694904 17.19884898673726)">
    <path d="M3.44 0 M3.44 0 C4.83 0.1, 7.56 0.37, 10.32 0 M3.44 0 C5.12 0.27, 7.05 0, 10.32 0 M10.32 0 C11.17 -1.21, 12.67 0.28, 13.76 3.44 M10.32 0 C13.69 2.03, 15.34 -1.04, 13.76 3.44 M13.76 3.44 C14.56 10.9, 15.15 17.4, 13.76 30.96 M13.76 3.44 C13.58 11.74, 13.1 22.25, 13.76 30.96 M13.76 30.96 C15.11 32.59, 10.87 35.05, 10.32 34.4 M13.76 30.96 C15.58 34.88, 12.76 36.08, 10.32 34.4 M10.32 34.4 C8.83 33.79, 6.54 35.01, 3.44 34.4 M10.32 34.4 C8.93 34.35, 7.24 34.01, 3.44 34.4 M3.44 34.4 C2.16 35.17, 0.1 34.58, 0 30.96 M3.44 34.4 C3.24 33.52, 1.35 32.72, 0 30.96 M0 30.96 C1.65 19.42, -0.93 10.45, 0 3.44 M0 30.96 C1.08 24.93, 0.5 17.86, 0 3.44 M0 3.44 C1.32 -0.72, 1.46 -1.11, 3.44 0 M0 3.44 C-0.44 -0.53, 1.91 -2.08, 3.44 0" stroke="#1971c2" stroke-width="1" fill="none"/>
  </g>
  <g stroke-linecap="round">
    <g transform="translate(289.28069956560324 78.19740955195846) rotate(0 94.28102752983415 45.53139307003454)">
      <path d="M-0.13 0.23 C31.53 15.7, 158.67 76.44, 190.22 91.76 M-1.66 -0.7 C29.88 14.5, 157.95 74.7, 189.59 89.85" stroke="#1e1e1e" stroke-width="1" fill="none"/>
    </g>
    <g transform="translate(289.28069956560324 78.19740955195846) rotate(0 94.28102752983415 45.53139307003454)">
      <path d="M160.1 88.05 C169.92 87.23, 180.08 89.07, 189.93 91.47 M160.65 86.11 C170.56 87.65, 180.82 89.32, 189.92 90.61" stroke="#1e1e1e" stroke-width="1" fill="none"/>
    </g>
    <g transform="translate(289.28069956560324 78.19740955195846) rotate(0 94.28102752983415 45.53139307003454)">
      <path d="M168.89 69.51 C175.74 74.6, 183.09 82.37, 189.93 91.47 M169.44 67.57 C176.29 75.78, 183.39 84.13, 189.92 90.61" stroke="#1e1e1e" stroke-width="1" fill="none"/>
    </g>
  </g>
  <g stroke-linecap="round">
    <g transform="translate(79.24966195119642 89.94116474867769) rotate(0 5.457772360763549 -0.3586505467817176)">
      <path d="M0.34 -0.42 C2.36 -0.33, 10 -0.42, 11.86 -0.38 M-0.95 -1.68 C0.98 -1.34, 9.15 0.51, 11.09 0.96" stroke="#1971c2" stroke-width="1" fill="none"/>
    </g>
  </g>
  <g stroke-linecap="round">
    <g transform="translate(64.98867009762866 252.5545735713011) rotate(0 6.605272883512399 0.429479129386408)">
      <path d="M0.6 0.55 C2.53 0.64, 9.36 0.05, 11.4 -0.12 M-0.55 -0.21 C1.79 0.09, 11.59 0.97, 13.76 1.07" stroke="#2f9e44" stroke-width="1" fill="none"/>
    </g>
  </g>
  <g stroke-linecap="round" transform="translate(83.08915975792623 91.58666380870471) rotate(0 0.8227495300135104 1.3712492166891934)">
    <path d="M0.52 -0.73 C0.73 -0.86, 1.11 -0.72, 1.44 -0.58 C1.77 -0.45, 2.59 -0.38, 2.49 0.07 C2.38 0.52, 0.92 1.84, 0.79 2.12 C0.65 2.4, 1.75 1.52, 1.69 1.75 C1.64 1.99, 0.6 3.43, 0.46 3.55 C0.32 3.67, 0.82 2.93, 0.86 2.46 C0.89 2, 0.77 1.21, 0.67 0.77 C0.58 0.33, 0.35 -0.17, 0.3 -0.19 C0.25 -0.21, 0.15 0.64, 0.38 0.63 C0.61 0.63, 1.61 0.01, 1.68 -0.21 M-0.21 1.46 C0.08 1.62, 1.68 0.59, 1.87 0.72 C2.07 0.86, 1.24 2.18, 0.96 2.28 C0.69 2.37, 0.28 1.26, 0.23 1.28 C0.18 1.29, 0.56 2.36, 0.66 2.36 C0.76 2.36, 0.77 1.51, 0.81 1.27 C0.85 1.03, 1.12 0.84, 0.9 0.92 C0.68 1.01, -0.48 1.99, -0.52 1.78 C-0.56 1.57, 0.25 -0.04, 0.65 -0.33 C1.05 -0.61, 1.83 -0.04, 1.86 0.07 C1.9 0.17, 1.15 0.36, 0.85 0.32" stroke="none" stroke-width="0" fill="#ffffff"/>
    <path d="M-0.16 0.23 C0.18 0.27, 0.99 0.78, 1.43 0.99 C1.87 1.21, 2.31 1.34, 2.48 1.51 C2.66 1.67, 2.77 1.85, 2.49 1.98 C2.21 2.12, 1.16 2.13, 0.79 2.31 C0.42 2.49, 0.4 3.19, 0.25 3.08 C0.1 2.97, -0.14 1.99, -0.11 1.64 C-0.09 1.3, 0.26 1.02, 0.39 1.03 C0.53 1.05, 0.81 1.86, 0.69 1.74 C0.56 1.62, -0.54 0.7, -0.36 0.32 C-0.19 -0.06, 1.55 -0.4, 1.74 -0.54 M1.05 1.33 C1.57 1.23, 1.91 -0.76, 2.17 -0.93 C2.43 -1.1, 2.53 -0.2, 2.6 0.3 C2.67 0.81, 2.9 1.95, 2.59 2.09 C2.28 2.23, 1.21 1.07, 0.75 1.13 C0.3 1.2, 0.15 2.22, -0.13 2.49 C-0.4 2.75, -0.84 2.89, -0.87 2.72 C-0.89 2.55, -0.43 2.02, -0.27 1.47 C-0.12 0.92, -0.22 -0.43, 0.06 -0.6 C0.34 -0.76, 1.47 0.24, 1.4 0.5 C1.32 0.75, -0.46 1.08, -0.39 0.93" stroke="#1971c2" stroke-width="1" fill="none"/>
  </g>
  <g stroke-linecap="round" transform="translate(69.10241774769626 254.21682090804427) rotate(0 0.8227495300135104 1.3712492166891934)">
    <path d="M1.13 -0.64 C1.25 -0.63, 1.15 -0.25, 1.21 0.09 C1.27 0.42, 1.34 1.03, 1.48 1.39 C1.62 1.75, 2.13 1.92, 2.08 2.26 C2.02 2.59, 1.41 3.4, 1.13 3.41 C0.85 3.42, 0.62 2.7, 0.39 2.34 C0.16 1.98, -0.32 1.67, -0.25 1.26 C-0.18 0.85, 0.52 -0.09, 0.8 -0.12 C1.09 -0.15, 1.31 1.12, 1.43 1.08 C1.55 1.04, 1.6 -0.06, 1.53 -0.36 C1.45 -0.66, 1.02 -0.89, 1 -0.73 M1.87 -0.95 C1.85 -0.95, 1.29 0.46, 1.37 0.97 C1.46 1.48, 2.4 1.82, 2.36 2.11 C2.32 2.4, 1.33 2.57, 1.15 2.74 C0.98 2.91, 1.27 3.05, 1.29 3.13 C1.31 3.21, 1.71 3.63, 1.28 3.23 C0.85 2.84, -0.9 1.37, -1.29 0.78 C-1.67 0.2, -1.48 0.01, -1.04 -0.26 C-0.61 -0.53, 0.84 -1.13, 1.3 -0.86 C1.77 -0.58, 2 1.14, 1.75 1.39 C1.5 1.63, 0.07 0.68, -0.19 0.64" stroke="none" stroke-width="0" fill="#ffffff"/>
    <path d="M1.59 0.94 C1.64 0.94, 1.04 -0.33, 1.08 -0.34 C1.12 -0.36, 1.78 0.5, 1.83 0.86 C1.87 1.22, 1.52 1.63, 1.36 1.81 C1.19 1.99, 0.95 1.93, 0.84 1.93 C0.72 1.93, 0.63 1.94, 0.65 1.79 C0.68 1.65, 1.2 1.14, 0.97 1.05 C0.73 0.96, -0.73 1.51, -0.75 1.24 C-0.77 0.97, 0.6 -0.51, 0.85 -0.57 C1.1 -0.63, 0.6 0.76, 0.74 0.89 C0.89 1.01, 1.53 0.43, 1.69 0.17 M1.79 1.47 C2.11 1.58, 1.26 0.44, 1.03 0.62 C0.8 0.79, 0.41 2.35, 0.41 2.53 C0.4 2.71, 1.12 1.45, 0.99 1.7 C0.87 1.95, -0.31 3.89, -0.34 4.03 C-0.38 4.18, 0.82 2.81, 0.78 2.56 C0.74 2.3, -0.28 2.97, -0.58 2.51 C-0.89 2.05, -1.19 0.24, -1.05 -0.2 C-0.91 -0.64, -0.16 0.01, 0.26 -0.14 C0.68 -0.28, 1.21 -1.01, 1.47 -1.08 C1.72 -1.14, 2 -0.95, 1.8 -0.55" stroke="#2f9e44" stroke-width="1" fill="none"/>
  </g>
  <g stroke-linecap="round" transform="translate(506.7279900783371 175.63281785219465) rotate(0 100.92846453031632 20.44955817280919)">
    <path d="M8.69 0.48 L195.63 0.44 L203.11 4.67 L202.16 34.08 L200.49 37.23 L191.24 42.36 L4.68 40.93 L-0.36 34.67 L-1.98 11.94 L2.5 3.92 L9.94 -1.38" stroke="none" stroke-width="0" fill="#69db7c55"/>
    <path d="M10.22 0 M10.22 0 C53.31 -0.9, 92.4 -1.82, 191.63 0 M10.22 0 C47.3 -0.71, 85.76 0.14, 191.63 0 M191.63 0 C198.03 -0.71, 201.04 3.27, 201.86 10.22 M191.63 0 C197.42 -1.2, 199.75 2.14, 201.86 10.22 M201.86 10.22 C201.88 20.17, 200.06 25.21, 201.86 30.67 M201.86 10.22 C201.1 17.33, 202.14 23.67, 201.86 30.67 M201.86 30.67 C200.46 37.11, 197.51 41.38, 191.63 40.9 M201.86 30.67 C203.94 37.18, 198.85 40.98, 191.63 40.9 M191.63 40.9 C125.74 40.71, 59.99 41.13, 10.22 40.9 M191.63 40.9 C150.06 41.6, 109.25 40.78, 10.22 40.9 M10.22 40.9 C4.27 41.78, 1.07 38.62, 0 30.67 M10.22 40.9 C2.28 41.49, -0.38 35.51, 0 30.67 M0 30.67 C-1.09 21.07, 0.15 13.11, 0 10.22 M0 30.67 C0.15 22.1, -0.53 13.6, 0 10.22 M0 10.22 C1.3 3.33, 2.46 0.54, 10.22 0 M0 10.22 C-1.84 5.67, 1.81 -2.09, 10.22 0" stroke="transparent" stroke-width="1" fill="none"/>
  </g>
  <g stroke-linecap="round" transform="translate(510.02630591266103 268.64532438013316) rotate(0 100.92846453031632 20.44955817280919)">
    <path d="M10.71 1.81 L195.84 0.99 L201.29 7.12 L200.29 33.23 L200.2 39.89 L193.58 42.87 L4.34 40.27 L1.45 35.25 L-0.06 11.97 L0.84 3.42 L11.1 1.07" stroke="none" stroke-width="0" fill="#69db7c55"/>
    <path d="M10.22 0 M10.22 0 C74.55 -2.19, 141.19 -1.36, 191.63 0 M10.22 0 C69.77 0.66, 130.25 0.86, 191.63 0 M191.63 0 C198.38 0, 201.02 2.04, 201.86 10.22 M191.63 0 C196.69 1.49, 201.77 2.32, 201.86 10.22 M201.86 10.22 C200.3 15.09, 200.73 24.76, 201.86 30.67 M201.86 10.22 C202.68 15.84, 201.97 22.69, 201.86 30.67 M201.86 30.67 C203.09 38.8, 196.69 40.58, 191.63 40.9 M201.86 30.67 C200.27 35.64, 198.06 41.71, 191.63 40.9 M191.63 40.9 C153.86 39.79, 114.35 38.01, 10.22 40.9 M191.63 40.9 C139.91 39.81, 89.19 39.89, 10.22 40.9 M10.22 40.9 C5.24 40.17, -0.63 39.28, 0 30.67 M10.22 40.9 C3.46 42.74, 0.68 38.68, 0 30.67 M0 30.67 C0.97 24.57, 1.14 20.62, 0 10.22 M0 30.67 C-0.26 23.5, 0.97 16.27, 0 10.22 M0 10.22 C1.99 2.29, 3.94 1.94, 10.22 0 M0 10.22 C-1.66 4.37, 1.55 2.04, 10.22 0" stroke="transparent" stroke-width="1" fill="none"/>
  </g>
  <g stroke-linecap="round" transform="translate(510.02630591266103 223.78822903332593) rotate(0 100.92846453031632 20.44955817280919)">
    <path d="M10.76 -1.6 L198.07 -0.75 L199.4 4.79 L202.38 35.59 L199.89 38.63 L193.15 38.96 L5.86 38.84 L1.87 36.46 L-1.76 9.91 L1.17 0.94 L9.88 0.71" stroke="none" stroke-width="0" fill="#a5d8ff55"/>
    <path d="M10.22 0 M10.22 0 C48.21 2.2, 84.46 0.42, 191.63 0 M10.22 0 C61.5 -0.35, 113.78 -0.27, 191.63 0 M191.63 0 C200.28 -0.73, 201.23 5.2, 201.86 10.22 M191.63 0 C198.5 1.84, 202.54 4.59, 201.86 10.22 M201.86 10.22 C202.98 15.97, 203.15 23.85, 201.86 30.67 M201.86 10.22 C201.2 16.92, 202.43 23.57, 201.86 30.67 M201.86 30.67 C203.84 36.37, 198.98 42.84, 191.63 40.9 M201.86 30.67 C200.19 38.46, 196.59 42.94, 191.63 40.9 M191.63 40.9 C127.94 42.05, 63.02 40.4, 10.22 40.9 M191.63 40.9 C152.13 41.67, 115.27 41.03, 10.22 40.9 M10.22 40.9 C2 39.31, -0.94 36.16, 0 30.67 M10.22 40.9 C5.68 43.05, -0.64 38.49, 0 30.67 M0 30.67 C0.91 22.25, 1.15 17.5, 0 10.22 M0 30.67 C0.2 24.9, 0.21 19.09, 0 10.22 M0 10.22 C0.78 2.21, 4.63 -0.48, 10.22 0 M0 10.22 C2.01 3.12, 1.63 -0.19, 10.22 0" stroke="transparent" stroke-width="1" fill="none"/>
  </g>
  <g stroke-linecap="round" transform="translate(515.8923773119894 129.5246588542056) rotate(0 100.92846453031632 20.44955817280919)">
    <path d="M11.01 1.74 L194.33 1.72 L199.73 7.08 L201.92 35.19 L199.08 39.61 L191.99 41.71 L6.12 41.82 L1.42 33.95 L1.23 9.75 L4.31 2.31 L8.68 -0.16" stroke="none" stroke-width="0" fill="#a5d8ff55"/>
    <path d="M10.22 0 M10.22 0 C76.02 0.03, 142.08 -3, 191.63 0 M10.22 0 C54.24 1.69, 99.59 -0.02, 191.63 0 M191.63 0 C197.92 -0.9, 203.61 1.87, 201.86 10.22 M191.63 0 C196.71 -1.95, 204.11 4.88, 201.86 10.22 M201.86 10.22 C202.62 17.57, 200.3 25.37, 201.86 30.67 M201.86 10.22 C202.11 14.95, 201.1 18.81, 201.86 30.67 M201.86 30.67 C200.81 39.4, 199.87 40.2, 191.63 40.9 M201.86 30.67 C203.62 36.92, 200.65 41.21, 191.63 40.9 M191.63 40.9 C155.02 39.67, 118.73 40.49, 10.22 40.9 M191.63 40.9 C155.03 40.54, 117.15 42.17, 10.22 40.9 M10.22 40.9 C1.82 41.74, -1.39 38.67, 0 30.67 M10.22 40.9 C1.68 39.69, -0.85 39.6, 0 30.67 M0 30.67 C1.72 21.41, 0.2 16.02, 0 10.22 M0 30.67 C-0.52 24.77, 0.52 19.25, 0 10.22 M0 10.22 C-0.47 5.32, 2.26 1.97, 10.22 0 M0 10.22 C-1.3 2.61, 5.12 0.37, 10.22 0" stroke="transparent" stroke-width="1" fill="none"/>
  </g>
  <g stroke-linecap="round" transform="translate(513.5891444165833 85.76323384148861) rotate(0 100.92846453031632 20.44955817280919)">
    <path d="M8.68 -1.51 L194.41 2.59 L202.5 6.5 L199.34 36.63 L200.26 38.79 L190.27 42.24 L3.76 39.19 L-0.09 35.87 L1.26 8.92 L3.34 1.51 L12.14 1.42" stroke="none" stroke-width="0" fill="#a5d8ff55"/>
    <path d="M10.22 0 M10.22 0 C60.23 0.73, 104.5 0.35, 191.63 0 M10.22 0 C48.55 0.23, 84.61 -0.13, 191.63 0 M191.63 0 C198.81 1.54, 200.48 3.92, 201.86 10.22 M191.63 0 C200.62 -1.82, 202.83 1.8, 201.86 10.22 M201.86 10.22 C200.97 19.4, 203.24 25.38, 201.86 30.67 M201.86 10.22 C202.16 15.79, 201.68 21.24, 201.86 30.67 M201.86 30.67 C200.36 36.72, 197.46 42.2, 191.63 40.9 M201.86 30.67 C200.45 36.95, 200.65 39.58, 191.63 40.9 M191.63 40.9 C120.79 40.59, 47.6 39.11, 10.22 40.9 M191.63 40.9 C119.35 41.12, 48.59 40.96, 10.22 40.9 M10.22 40.9 C4.14 41.46, 0.81 37.78, 0 30.67 M10.22 40.9 C1.24 40.9, -1.14 35.7, 0 30.67 M0 30.67 C-1.79 25.75, -0.28 18.17, 0 10.22 M0 30.67 C-0.59 22.59, -0.47 14.49, 0 10.22 M0 10.22 C0.46 3.97, 4.48 1.61, 10.22 0 M0 10.22 C-0.51 4.74, 2.63 2.22, 10.22 0" stroke="transparent" stroke-width="1" fill="none"/>
  </g>
  <g stroke-linecap="round" transform="translate(114.77835008803423 10) rotate(0 83.18532015091272 70.2792692914449)">
    <path d="M32 0 M32 0 C62.33 2.43, 93.24 1.32, 134.37 0 M32 0 C56.33 -1.1, 81.93 -1.12, 134.37 0 M134.37 0 C156.73 0.63, 165.19 10.38, 166.37 32 M134.37 0 C155.57 0.9, 165.73 10.23, 166.37 32 M166.37 32 C166.18 46.85, 165.3 65.49, 166.37 108.56 M166.37 32 C167.2 53.65, 165.98 77.85, 166.37 108.56 M166.37 108.56 C167.46 128.91, 154.99 140.04, 134.37 140.56 M166.37 108.56 C164.85 131.67, 157.18 139.03, 134.37 140.56 M134.37 140.56 C97.17 139.79, 57.38 140.82, 32 140.56 M134.37 140.56 C93.85 140.89, 53.09 142.06, 32 140.56 M32 140.56 C8.85 140.92, -1.51 130.19, 0 108.56 M32 140.56 C10.19 140.5, 0.56 129.02, 0 108.56 M0 108.56 C0.8 81.57, -0.27 55.66, 0 32 M0 108.56 C-0.27 85.35, -0.11 61.95, 0 32 M0 32 C0.46 8.67, 12.04 1.43, 32 0 M0 32 C-1.8 10.76, 10.46 -0.93, 32 0" stroke="#1e1e1e" stroke-width="1" fill="none"/>
  </g>
  <g stroke-linecap="round">
    <g transform="translate(128.0567579994476 46.71089246096619) rotate(0 70.46692468204178 0.6448538891394833)">
      <path d="M0.98 0.66 C24.62 0.66, 117.44 0.07, 140.91 0.13 M0.03 -0.04 C23.62 0.09, 116.52 0.91, 140.12 1.33" stroke="#1e1e1e" stroke-width="2" fill="none"/>
    </g>
  </g>
  <g stroke-linecap="round">
    <g transform="translate(155.3946566405927 29.52707045796069) rotate(0 -0.4032203167797377 53.549642607535986)">
      <path d="M0.31 -0.65 C0.08 17.2, 0.09 89.9, -0.38 107.75 M-0.99 1.62 C-1.35 19.03, -0.85 88.16, -0.71 105.76" stroke="#1e1e1e" stroke-width="1" fill="none"/>
    </g>
  </g>
  <g stroke-linecap="round">
    <g transform="translate(188.20013500996663 32.6514017312345) rotate(0 -0.8225129370733129 54.81890296577001)">
      <path d="M1.18 0.26 C0.66 18.58, -2.24 91.14, -2.82 109.31 M0.34 -0.66 C0.15 17.84, -0.03 91.85, -0.64 110.29" stroke="#1e1e1e" stroke-width="1" fill="none"/>
    </g>
  </g>
  <g stroke-linecap="round">
    <g transform="translate(217.10019928774847 31.089236094597595) rotate(0 -1.4122327175705607 56.550835821531365)">
      <path d="M-1 -1.05 C-1.58 17.77, -2.27 93.9, -2.3 113.19 M0.68 1.01 C-0.21 19.92, -3.11 95.57, -3.5 114.15" stroke="#1e1e1e" stroke-width="1" fill="none"/>
    </g>
  </g>
  <g stroke-linecap="round">
    <g transform="translate(247.56242920216727 29.52707045796069) rotate(0 0.5082339358843058 54.95573654550719)">
      <path d="M-0.48 -1.08 C-0.21 17.59, 0.65 92.41, 0.61 110.99 M1.47 0.96 C1.72 19.36, -0.07 90.62, -0.01 109.07" stroke="#1e1e1e" stroke-width="1" fill="none"/>
    </g>
  </g>
  <g stroke-linecap="round">
    <g transform="translate(131.18108927272135 74.82987392042958) rotate(0 69.679148197483 1.1817336940731025)">
      <path d="M0.61 0.38 C23.62 0.79, 114.62 1.11, 137.54 1.39 M-0.52 -0.47 C22.91 0.22, 116.9 2.77, 139.88 2.84" stroke="#1e1e1e" stroke-width="1" fill="none"/>
    </g>
  </g>
  <g stroke-linecap="round">
    <g transform="translate(134.3054205459951 105.29210383484826) rotate(0 66.00206934947956 0.35575952143543077)">
      <path d="M-0.71 -0.17 C21.31 0.1, 110.52 1.78, 132.71 2.03 M1.12 -1.31 C22.92 -1.43, 110 -0.49, 131.73 0.15" stroke="#1e1e1e" stroke-width="1" fill="none"/>
    </g>
  </g>
  <g stroke-linecap="round" transform="translate(137.90452650224114 108.66651947527339) rotate(0 68.75473723679076 13.930698394382432)">
    <path d="M5.83 -0.1 L131.7 -0.55 L137.09 3.8 L137.94 22.2 L136.77 24.37 L129.1 29.46 L5.01 26.44 L-0.28 23.42 L-1.33 8.51 L3.02 0.41 L8.29 -1.47" stroke="none" stroke-width="0" fill="#a5d8ff55"/>
    <path d="M6.97 0 M6.97 0 C35.5 0.94, 69.84 2.04, 130.54 0 M6.97 0 C52.41 1.27, 98.21 0.69, 130.54 0 M130.54 0 C133.68 0.3, 137.09 2.27, 137.51 6.97 M130.54 0 C135.75 -0.88, 138.62 3.21, 137.51 6.97 M137.51 6.97 C137.6 12.3, 137.57 16.48, 137.51 20.9 M137.51 6.97 C137.13 10.03, 137.59 13.58, 137.51 20.9 M137.51 20.9 C138.89 26.97, 133.62 27.94, 130.54 27.86 M137.51 20.9 C137.3 24.61, 136.38 29.1, 130.54 27.86 M130.54 27.86 C103.96 30.9, 74.28 29.98, 6.97 27.86 M130.54 27.86 C103.26 27.55, 75.36 28.17, 6.97 27.86 M6.97 27.86 C4.27 28.84, -1.21 26.76, 0 20.9 M6.97 27.86 C0.56 30.03, 0.47 25.37, 0 20.9 M0 20.9 C0.43 16.83, 0.46 14.31, 0 6.97 M0 20.9 C-0.7 15.49, 0.12 11.64, 0 6.97 M0 6.97 C-1.2 3.67, 3.8 1.23, 6.97 0 M0 6.97 C-0.49 4.18, 0.73 -1.46, 6.97 0" stroke="transparent" stroke-width="1" fill="none"/>
  </g>
  <g stroke-linecap="round" transform="translate(135.64849987786812 76.75471019397298) rotate(0 68.75473723679076 13.930698394382432)">
    <path d="M5.07 -0.98 L133.61 0.32 L137.94 2.18 L138.08 22.19 L134.33 27.72 L131.63 26.88 L3.2 26.9 L-0.89 25.49 L1.28 5.64 L3.07 0.28 L5.9 0.32" stroke="none" stroke-width="0" fill="#a5d8ff55"/>
    <path d="M6.97 0 M6.97 0 C44.56 1.41, 79.86 -0.9, 130.54 0 M6.97 0 C38.03 -0.76, 70.16 -0.79, 130.54 0 M130.54 0 C134.77 -0.05, 137.99 1.56, 137.51 6.97 M130.54 0 C136.3 0.89, 138.94 3.58, 137.51 6.97 M137.51 6.97 C137.5 10.34, 136.99 14.05, 137.51 20.9 M137.51 6.97 C137.61 9.99, 137.93 14.91, 137.51 20.9 M137.51 20.9 C135.94 25.62, 135.01 27.05, 130.54 27.86 M137.51 20.9 C138.7 26.78, 133.58 26.11, 130.54 27.86 M130.54 27.86 C83.45 30.14, 33.71 29.47, 6.97 27.86 M130.54 27.86 C99.7 29.13, 69.42 28.71, 6.97 27.86 M6.97 27.86 C1.11 29.08, -1.53 27.42, 0 20.9 M6.97 27.86 C2.8 27.69, -0.44 26.51, 0 20.9 M0 20.9 C0.47 17.72, 0.69 12.41, 0 6.97 M0 20.9 C0.29 17.42, -0.29 13.24, 0 6.97 M0 6.97 C1.48 3.55, 1.9 1.61, 6.97 0 M0 6.97 C-1.59 0.86, 2.63 -2.19, 6.97 0" stroke="transparent" stroke-width="1" fill="none"/>
  </g>
  <g stroke-linecap="round" transform="translate(134.0794858910238 46.94344444393164) rotate(0 68.75473723679076 13.930698394382432)">
    <path d="M6.98 -0.12 L134.45 -1.3 L138.08 2.17 L135.63 25.54 L136.86 25.14 L129.83 27.34 L2.59 28.97 L1.71 22.62 L1.33 5.5 L0.68 2.06 L6.75 -1.96" stroke="none" stroke-width="0" fill="#a5d8ff55"/>
    <path d="M6.97 0 M6.97 0 C50.48 -1.57, 90.27 -2.43, 130.54 0 M6.97 0 C52.66 -0.07, 99.65 -0.25, 130.54 0 M130.54 0 C135.67 -0.76, 138.47 3.09, 137.51 6.97 M130.54 0 C136.61 1.26, 137.13 2.35, 137.51 6.97 M137.51 6.97 C136.98 10.62, 137.05 15.31, 137.51 20.9 M137.51 6.97 C138.02 10.47, 137 13, 137.51 20.9 M137.51 20.9 C137.33 24.73, 136.23 28.94, 130.54 27.86 M137.51 20.9 C135.9 23.79, 137.16 29.96, 130.54 27.86 M130.54 27.86 C79.74 28.9, 30.99 29.35, 6.97 27.86 M130.54 27.86 C90.85 29.47, 48.61 29.59, 6.97 27.86 M6.97 27.86 C0.79 29.74, 0.41 25.39, 0 20.9 M6.97 27.86 C1.88 28.83, 0.39 26.34, 0 20.9 M0 20.9 C0.69 17.21, -0.17 11.51, 0 6.97 M0 20.9 C-0.45 18.15, 0.48 14.89, 0 6.97 M0 6.97 C-0.42 3.93, 0.94 -1.27, 6.97 0 M0 6.97 C0.3 0.13, 0.03 2.07, 6.97 0" stroke="transparent" stroke-width="1" fill="none"/>
  </g>
  <g stroke-linecap="round" transform="translate(101.85562036634481 184.37827555226625) rotate(0 83.18532015091272 56.03283270185338)">
    <path d="M28.02 0 M28.02 0 C60.11 0.94, 87.46 0.37, 138.35 0 M28.02 0 C55.99 -1.39, 82.49 -0.78, 138.35 0 M138.35 0 C157.18 -1.91, 168.33 9.04, 166.37 28.02 M138.35 0 C159.25 0.48, 166.64 7.07, 166.37 28.02 M166.37 28.02 C167.28 43.81, 165.93 60.77, 166.37 84.05 M166.37 28.02 C167.17 43.29, 166.52 60.32, 166.37 84.05 M166.37 84.05 C164.38 103.94, 158.83 111.99, 138.35 112.07 M166.37 84.05 C167.05 101.6, 158.39 111.73, 138.35 112.07 M138.35 112.07 C96.31 113.92, 55.41 111.93, 28.02 112.07 M138.35 112.07 C101.59 112.61, 63.36 112.99, 28.02 112.07 M28.02 112.07 C8.66 112.8, -1.81 104.26, 0 84.05 M28.02 112.07 C8.98 112.7, 0.04 103.43, 0 84.05 M0 84.05 C0.26 64.94, -0.8 44.46, 0 28.02 M0 84.05 C0.08 69.59, -0.52 52.46, 0 28.02 M0 28.02 C1.5 8.41, 9.23 -0.62, 28.02 0 M0 28.02 C0.29 7.45, 10.58 0.73, 28.02 0" stroke="#1e1e1e" stroke-width="1" fill="none"/>
  </g>
  <g stroke-linecap="round">
    <g transform="translate(115.13402827775819 221.08916801323232) rotate(0 69.41417112802729 0.29301401836988816)">
      <path d="M0.01 -0.87 C23.56 -1.01, 116.75 -0.23, 140.27 0.16 M-1.44 1.28 C22.01 1.21, 115.47 1.68, 139.15 1.36" stroke="#1e1e1e" stroke-width="2" fill="none"/>
    </g>
  </g>
  <g stroke-linecap="round">
    <g transform="translate(142.4719269189033 203.90534601022694) rotate(0 0.6882225541370204 43.35201047599608)">
      <path d="M-0.33 -0.63 C-0.12 14.07, 0.97 72.94, 1.27 87.33 M1.7 1.66 C1.8 16.09, 0.69 71.39, 0.6 85.54" stroke="#1e1e1e" stroke-width="1" fill="none"/>
    </g>
  </g>
  <g stroke-linecap="round">
    <g transform="translate(175.27740528827724 207.02967728350075) rotate(0 -0.5516604292082548 40.91945861871969)">
      <path d="M0.52 0.63 C0.4 14.22, -0.64 67.4, -1.07 80.9 M-0.66 -0.09 C-0.85 13.67, -1.24 68.11, -1.63 81.93" stroke="#1e1e1e" stroke-width="1" fill="none"/>
    </g>
  </g>
  <g stroke-linecap="round">
    <g transform="translate(204.17746956605902 205.46751164686373) rotate(0 -1.2070627040850894 42.98684961959475)">
      <path d="M0.75 -0.97 C0.32 13.18, -1.67 71.27, -2.08 85.53 M-0.32 1.13 C-0.98 15.41, -2.81 72.91, -3.16 86.94" stroke="#1e1e1e" stroke-width="1" fill="none"/>
    </g>
  </g>
  <g stroke-linecap="round">
    <g transform="translate(234.63969948047782 203.90534601022694) rotate(0 0.49934637090191814 43.716675212192285)">
      <path d="M-0.26 -0.24 C-0.37 14.57, -0.15 73.06, 0.09 87.91 M1.81 -1.41 C1.48 13.59, -0.68 73.59, -0.81 88.85" stroke="#1e1e1e" stroke-width="1" fill="none"/>
    </g>
  </g>
  <g stroke-linecap="round">
    <g transform="translate(118.25835955103194 249.2081494726957) rotate(0 69.05435887802552 0.8421960395260726)">
      <path d="M0.09 -1.15 C23.37 -0.87, 116.21 0.89, 139.43 1.39 M-1.32 0.87 C21.93 1.35, 115.67 2.43, 139.1 2.83" stroke="#1e1e1e" stroke-width="1" fill="none"/>
    </g>
  </g>
  <g stroke-linecap="round" transform="translate(122.72577015617868 224.5099877563847) rotate(0 68.75473723679076 13.930698394382432)">
    <path d="M8.89 0.42 L133.83 -1.53 L136.75 5.77 L136.01 24.33 L135.64 25.16 L131.46 27.62 L4.23 26.21 L1.86 22.21 L0.12 7 L-0.25 2.95 L8.77 -0.08" stroke="none" stroke-width="0" fill="#b2f2bb55"/>
    <path d="M6.97 0 M6.97 0 C47.38 0.68, 89.67 0.7, 130.54 0 M6.97 0 C36.28 1.17, 65.78 1.46, 130.54 0 M130.54 0 C137.16 -0.49, 138.51 2.59, 137.51 6.97 M130.54 0 C134.41 0.84, 135.43 4.09, 137.51 6.97 M137.51 6.97 C137.97 11.58, 136.97 14.09, 137.51 20.9 M137.51 6.97 C137.3 10.99, 137.69 14.83, 137.51 20.9 M137.51 20.9 C137.93 27.37, 134.41 26.18, 130.54 27.86 M137.51 20.9 C139.24 24.47, 135.06 27.15, 130.54 27.86 M130.54 27.86 C92.52 27.24, 53.26 27.27, 6.97 27.86 M130.54 27.86 C85.99 26.8, 41.54 28.33, 6.97 27.86 M6.97 27.86 C0.38 29.66, -0.17 27.3, 0 20.9 M6.97 27.86 C2.7 26.54, -1.92 26.93, 0 20.9 M0 20.9 C-0.12 15.62, -0.56 12.43, 0 6.97 M0 20.9 C-0.55 17.07, -0.72 13.52, 0 6.97 M0 6.97 C1.33 0.72, 1.71 -0.73, 6.97 0 M0 6.97 C-0.71 2.89, 1.26 -0.84, 6.97 0" stroke="transparent" stroke-width="1" fill="none"/>
  </g>
  <g stroke-linecap="round" transform="translate(118.35433532829715 253.5495596681268) rotate(0 68.75473723679076 17.5)">
    <path d="M8.99 -1.97 L132.27 2.4 L135.89 5.31 L136.84 29.12 L133.51 34.21 L129.07 33.78 L6.35 32.72 L0.67 30.12 L-1.99 9.96 L3.99 2.11 L9.34 -0.98" stroke="none" stroke-width="0" fill="#b2f2bb55"/>
    <path d="M8.75 0 M8.75 0 C53.13 0.59, 93.74 0.22, 128.76 0 M8.75 0 C36.75 0.21, 67.24 -0.75, 128.76 0 M128.76 0 C135.59 0.27, 136.83 3.65, 137.51 8.75 M128.76 0 C132.51 1.76, 137.15 3.55, 137.51 8.75 M137.51 8.75 C136.84 13.04, 137.59 19.62, 137.51 26.25 M137.51 8.75 C137.65 12.42, 137.63 18.25, 137.51 26.25 M137.51 26.25 C136.73 30.4, 136.1 34.07, 128.76 35 M137.51 26.25 C137.38 31.37, 134.89 33.11, 128.76 35 M128.76 35 C86.31 32.98, 45.05 35.49, 8.75 35 M128.76 35 C95.89 34.83, 61.44 34.98, 8.75 35 M8.75 35 C2.75 36.76, 0.33 30.93, 0 26.25 M8.75 35 C1 36.39, 0.39 33.67, 0 26.25 M0 26.25 C-0.58 19.83, -0.62 13.9, 0 8.75 M0 26.25 C-0.66 22.05, 0.69 17.19, 0 8.75 M0 8.75 C-0.61 2.19, 2.3 0.49, 8.75 0 M0 8.75 C-1.06 2.07, 3.37 -0.31, 8.75 0" stroke="transparent" stroke-width="1" fill="none"/>
  </g>
  <mask/>
  <mask/>
  <mask/>
  <mask/>
  <mask/>
  <mask/>
  <mask/>
  <mask/>
  <mask/>
  <mask/>
  <mask/>
  <mask/>
  <mask/>
  <mask/>
  <mask/>
  <mask/>
  <mask/>
  <mask/>
  <mask/>
  <mask/>
  <mask/>
  <mask/>
  <mask/>
  <mask/>
  <mask/>
  <mask/>
  <mask/>
  <mask/>
  <mask/>
  <mask/>
  <mask/>
  <mask/>
  <mask/>
  <mask/>
  <mask/>
  <mask/>
</svg>