<?xml version="1.0" encoding="UTF-8" standalone="yes"?>
<svg version="1.1" xmlns="http://www.w3.org/2000/svg" viewBox="0 0 840.5202848658749 350.07458778237435" width="1681.0405697317499" height="700.1491755647487">
  <defs>
    <style class="style-fonts">
      @font-face {
        font-family: "Virgil";
        src: url("https://excalidraw.com/Virgil.woff2");
      }
      @font-face {
        font-family: "Cascadia";
        src: url("https://excalidraw.com/Cascadia.woff2");
      }
      @font-face {
        font-family: "Assistant";
        src: url("https://excalidraw.com/Assistant-Regular.woff2");
      }
    </style>
  </defs>
  <g stroke-linecap="round">
    <g transform="translate(650.379768990356 204.64775646269857) rotate(0 0 16.574535197397438)">
      <path d="M0.04 0.81 C-0.14 6.05, -0.03 27.28, -0.22 32.5 M-1.4 0.2 C-1.83 6.09, -1.72 28.24, -1.28 33.7" stroke="#1971c2" stroke-width="4" fill="none"/>
    </g>
  </g>
  <g stroke-linecap="round">
    <g transform="translate(828.1793283806197 206.15453238973464) rotate(0 -1.5067759270361876 17.32792316091559)">
      <path d="M0.21 -0.1 C-0.38 5.65, -3.5 29.83, -3.89 35.67 M-1.14 -1.2 C-1.33 4.74, -1.43 27.82, -1.64 34.08" stroke="#1971c2" stroke-width="4" fill="none"/>
    </g>
  </g>
  <g stroke-linecap="round" transform="translate(645.8594412092478 231.76972314934892) rotate(0 89.65316765864986 15.821147233879401)">
    <path d="M122.62 2.61 C134.9 3.87, 146.36 5.89, 155.36 7.33 C164.37 8.76, 173.06 9.19, 176.65 11.21 C180.24 13.22, 179.93 17.04, 176.88 19.41 C173.83 21.78, 167.59 23.79, 158.34 25.45 C149.1 27.11, 134.85 28.31, 121.43 29.37 C108.02 30.44, 91.59 32.05, 77.86 31.84 C64.13 31.63, 50.67 29.78, 39.06 28.12 C27.44 26.46, 14.64 24.09, 8.17 21.86 C1.69 19.63, -0.24 17.07, 0.21 14.74 C0.65 12.4, 4.52 9.78, 10.83 7.85 C17.13 5.91, 26.34 4.32, 38.03 3.13 C49.71 1.94, 62.72 0.77, 80.95 0.7 C99.17 0.62, 134.05 1.35, 147.39 2.69 C160.73 4.03, 162.47 8.3, 160.96 8.72 M55.27 -1.41 C67.91 -2.41, 89.2 -1.45, 103.29 -1.1 C117.38 -0.76, 128.48 -0.75, 139.79 0.64 C151.11 2.03, 164.47 4.82, 171.16 7.23 C177.85 9.63, 179.97 12.4, 179.94 15.08 C179.9 17.76, 177.86 20.58, 170.94 23.32 C164.02 26.06, 150.55 30.16, 138.41 31.52 C126.28 32.89, 111.45 31.93, 98.14 31.49 C84.83 31.06, 71.36 29.35, 58.54 28.92 C45.71 28.48, 30.07 30.17, 21.19 28.89 C12.31 27.61, 8.74 23.77, 5.24 21.24 C1.73 18.7, -2.53 16.41, 0.15 13.68 C2.83 10.94, 11.57 7.24, 21.32 4.82 C31.07 2.4, 52.82 0.08, 58.65 -0.84 C64.49 -1.76, 56.17 -1.3, 56.32 -0.69" stroke="#1971c2" stroke-width="4" fill="none"/>
  </g>
  <g stroke-linecap="round" transform="translate(653.9000967714645 223.18163609787928) rotate(0 83.62606395050523 10.547431489252915)">
    <path d="M5.27 0 C53.03 0.01, 102.93 2.81, 161.98 0 C165.64 1.01, 172.8 -3.26, 167.25 5.27 C165.88 6.96, 170.06 13.14, 167.25 15.82 C170.07 24.24, 167.95 24.77, 161.98 21.09 C116.64 20.02, 75.31 24.61, 5.27 21.09 C1.24 25, -2.35 16.22, 0 15.82 C0.66 13.1, 0.35 8.88, 0 5.27 C-1.74 -1.47, -3.3 3.14, 5.27 0" stroke="none" stroke-width="0" fill="#ffffff"/>
    <path d="M5.27 0 C64.16 -4.69, 132.88 -1.33, 161.98 0 M5.27 0 C66.86 -0.44, 129.55 -2.01, 161.98 0 M161.98 0 C167.17 -3.6, 171.21 2.69, 167.25 5.27 M161.98 0 C166.52 1.92, 163.39 -1.91, 167.25 5.27 M167.25 5.27 C165.09 10.06, 168.91 14.03, 167.25 15.82 M167.25 5.27 C166.35 8.22, 167.52 8.83, 167.25 15.82 M167.25 15.82 C168.48 20.92, 164.76 18.24, 161.98 21.09 M167.25 15.82 C165.94 21.38, 163.44 23.86, 161.98 21.09 M161.98 21.09 C110.38 23.83, 51.63 21.51, 5.27 21.09 M161.98 21.09 C105.83 17.86, 51.66 20.12, 5.27 21.09 M5.27 21.09 C2.33 20.72, -0.61 21.43, 0 15.82 M5.27 21.09 C4.85 21.98, 2.55 23.66, 0 15.82 M0 15.82 C-0.53 12.8, -1.45 9.52, 0 5.27 M0 15.82 C0.56 13, 0.24 10.93, 0 5.27 M0 5.27 C1.4 0.55, 0.46 0.16, 5.27 0 M0 5.27 C2.22 -2.18, 6.2 2.15, 5.27 0" stroke="transparent" stroke-width="4" fill="none"/>
  </g>
  <g stroke-linecap="round" transform="translate(645.8594412092477 186.5664453382651) rotate(0 90.4065556221679 17.32792316091553)">
    <path d="M124.17 0.12 C137.02 1.01, 152.3 4.99, 161.29 6.97 C170.29 8.95, 175.72 9.45, 178.15 11.99 C180.59 14.52, 179.58 19.06, 175.93 22.18 C172.27 25.29, 165.75 28.48, 156.24 30.68 C146.73 32.89, 131.85 34.91, 118.87 35.42 C105.9 35.93, 92.21 34.16, 78.41 33.73 C64.61 33.31, 47.26 34.45, 36.07 32.88 C24.87 31.32, 17.07 26.84, 11.23 24.33 C5.4 21.82, 0.8 20.66, 1.05 17.83 C1.31 15, 6.12 10.17, 12.77 7.34 C19.41 4.51, 29.43 2.37, 40.93 0.86 C52.43 -0.66, 63.84 -2.26, 81.76 -1.75 C99.68 -1.24, 134.61 2.09, 148.47 3.93 C162.34 5.77, 165.63 9.3, 164.95 9.28 M22.46 5.64 C30.64 3.9, 44.65 2.48, 58.66 2.05 C72.68 1.62, 91.82 2.4, 106.56 3.06 C121.31 3.71, 136.75 4.45, 147.14 5.98 C157.54 7.5, 163.55 10.2, 168.95 12.21 C174.35 14.21, 179.65 16.13, 179.56 18.01 C179.48 19.89, 174.91 21.55, 168.43 23.5 C161.95 25.44, 152.77 27.67, 140.68 29.66 C128.6 31.64, 110.37 34.6, 95.92 35.42 C81.48 36.24, 66.61 35.38, 54.01 34.57 C41.4 33.76, 28.5 32.82, 20.28 30.55 C12.07 28.29, 7.19 24.07, 4.72 20.99 C2.25 17.91, 2.38 15.1, 5.47 12.06 C8.55 9.02, 20.21 4.14, 23.23 2.74 C26.26 1.35, 22.11 3.44, 23.61 3.72" stroke="#1971c2" stroke-width="4" fill="none"/>
  </g>
  <g stroke-linecap="round">
    <g transform="translate(651.0283994385328 151.15721105291595) rotate(0 0 16.574535197397438)">
      <path d="M0.67 -0.75 C0.7 4.57, 0.51 26.68, 0.42 32.32 M-0.43 1.48 C-0.54 6.89, -0.28 27.93, -0.31 33.42" stroke="#1971c2" stroke-width="4" fill="none"/>
    </g>
  </g>
  <g stroke-linecap="round">
    <g transform="translate(828.8279588287966 152.66398697995191) rotate(0 -1.5067759270361876 17.32792316091559)">
      <path d="M0.42 -0.83 C-0.18 5.07, -2.3 28.79, -2.9 34.63 M-0.82 1.35 C-1.62 7.52, -3.25 30.5, -3.79 36.15" stroke="#1971c2" stroke-width="4" fill="none"/>
    </g>
  </g>
  <g stroke-linecap="round" transform="translate(646.5080716574247 178.2791777395662) rotate(0 89.65316765864986 15.821147233879401)">
    <path d="M67.26 -1.31 C79.23 -2.48, 94.65 -1.1, 108.3 -0.07 C121.95 0.96, 138.33 2.95, 149.17 4.85 C160.01 6.75, 168.22 9.11, 173.35 11.32 C178.48 13.52, 181.05 16.07, 179.94 18.1 C178.83 20.12, 174.66 21.84, 166.7 23.46 C158.73 25.08, 144.51 26.33, 132.15 27.8 C119.8 29.28, 106.25 32.03, 92.58 32.29 C78.91 32.55, 62.83 30.56, 50.13 29.36 C37.43 28.15, 24.75 27.08, 16.38 25.08 C8 23.07, 1.58 19.87, -0.1 17.32 C-1.78 14.77, 1.77 11.69, 6.29 9.76 C10.82 7.83, 9.28 7.01, 27.06 5.73 C44.84 4.46, 92.14 2.42, 112.98 2.12 C133.82 1.81, 152.41 4.05, 152.1 3.9 M30.98 2.46 C40.12 0.49, 56.6 2.29, 70 1.98 C83.41 1.67, 98.08 0.63, 111.41 0.61 C124.73 0.59, 139.33 0.54, 149.95 1.86 C160.58 3.18, 170.7 5.59, 175.16 8.54 C179.63 11.49, 179.07 16.5, 176.75 19.55 C174.43 22.6, 168.75 25.03, 161.24 26.85 C153.73 28.67, 143.53 30.03, 131.7 30.48 C119.87 30.93, 104.57 29.43, 90.27 29.54 C75.97 29.64, 58.36 32.19, 45.92 31.08 C33.49 29.97, 23.03 25.07, 15.63 22.87 C8.24 20.67, 3.38 20.24, 1.56 17.87 C-0.26 15.5, 0.39 10.69, 4.72 8.64 C9.06 6.59, 23.52 5.85, 27.56 5.56 C31.61 5.28, 27.37 7.03, 28.98 6.93" stroke="none" stroke-width="0" fill="#ffffff"/>
    <path d="M77.78 0.44 C90.88 -0.04, 108.25 1.62, 121.18 2.1 C134.1 2.57, 145.96 1.6, 155.32 3.28 C164.68 4.96, 173.66 9.22, 177.35 12.17 C181.05 15.11, 180.74 18.9, 177.49 20.94 C174.24 22.97, 167.06 22.78, 157.84 24.37 C148.61 25.96, 135.02 29.36, 122.13 30.49 C109.23 31.63, 93.95 31.49, 80.47 31.18 C67 30.88, 52.9 30.22, 41.26 28.65 C29.62 27.07, 17.48 23.83, 10.64 21.72 C3.81 19.61, 0.12 17.98, 0.23 15.98 C0.34 13.97, 4.66 11.74, 11.28 9.69 C17.9 7.65, 23.09 5.39, 39.92 3.7 C56.76 2.02, 95.83 -0.15, 112.27 -0.41 C128.72 -0.67, 138.9 1.6, 138.58 2.14 M90.67 0.52 C103.67 -0.09, 119.8 -0.25, 132.33 0.59 C144.86 1.44, 158.09 2.98, 165.84 5.59 C173.6 8.2, 177.64 13.43, 178.86 16.26 C180.09 19.08, 178.85 20.16, 173.19 22.52 C167.53 24.89, 155.2 29.32, 144.89 30.44 C134.59 31.57, 124.61 29.28, 111.35 29.25 C98.09 29.22, 78.83 30.52, 65.31 30.27 C51.8 30.03, 39.9 29.57, 30.28 27.78 C20.66 26, 12.33 21.63, 7.59 19.56 C2.85 17.49, 0.28 17.09, 1.86 15.36 C3.44 13.64, 9.42 11.83, 17.08 9.2 C24.74 6.57, 35.76 1.49, 47.81 -0.42 C59.86 -2.33, 82.43 -2.07, 89.37 -2.27 C96.32 -2.47, 88.71 -2.5, 89.49 -1.63" stroke="#1971c2" stroke-width="4" fill="none"/>
  </g>
  <g stroke-linecap="round" transform="translate(654.5487272196414 169.69109068809666) rotate(0 83.62606395050523 10.547431489252915)">
    <path d="M5.27 0 C46.13 5.85, 83.69 2.18, 161.98 0 C163.2 -0.17, 164.29 -0.5, 167.25 5.27 C169.32 8.53, 169.42 11.84, 167.25 15.82 C164.05 19.8, 163.17 16.98, 161.98 21.09 C105.42 28.27, 57.7 25.47, 5.27 21.09 C2.11 23.97, -3.75 23.1, 0 15.82 C-2.47 15.34, -0.23 11.28, 0 5.27 C-0.57 -2.17, -3.62 2.2, 5.27 0" stroke="none" stroke-width="0" fill="#ffffff"/>
    <path d="M5.27 0 C52.3 1.97, 101.5 1.02, 161.98 0 M5.27 0 C53.13 2.37, 105.15 2.19, 161.98 0 M161.98 0 C168.38 1.27, 163.54 1.88, 167.25 5.27 M161.98 0 C165.31 2.22, 166.43 6.31, 167.25 5.27 M167.25 5.27 C167.5 8.34, 168.65 12.51, 167.25 15.82 M167.25 5.27 C166.88 8.63, 166.83 14.23, 167.25 15.82 M167.25 15.82 C168.89 19.42, 166.24 22.7, 161.98 21.09 M167.25 15.82 C165.8 20.13, 164.4 18.98, 161.98 21.09 M161.98 21.09 C110.79 21.66, 55.3 17.45, 5.27 21.09 M161.98 21.09 C100.96 18.44, 42.28 19.22, 5.27 21.09 M5.27 21.09 C5.01 19.03, 1.26 21.73, 0 15.82 M5.27 21.09 C1.88 25.16, -2.95 16.15, 0 15.82 M0 15.82 C-1.21 15.31, 1.1 11.61, 0 5.27 M0 15.82 C0.86 12.93, -0.93 8.38, 0 5.27 M0 5.27 C-0.88 5.36, 4.03 1.42, 5.27 0 M0 5.27 C3.41 4.15, 3.53 4.57, 5.27 0" stroke="transparent" stroke-width="4" fill="none"/>
  </g>
  <g stroke-linecap="round" transform="translate(646.5080716574246 133.0758999284824) rotate(0 90.4065556221679 17.32792316091553)">
    <path d="M103.35 -1.76 C116.78 -1.76, 133.56 1.49, 145.08 3.66 C156.6 5.82, 166.42 9.18, 172.47 11.25 C178.53 13.31, 181.97 13.63, 181.4 16.06 C180.82 18.49, 175.91 23.24, 169.04 25.82 C162.17 28.4, 151.64 30.14, 140.17 31.56 C128.7 32.98, 114.33 34.3, 100.23 34.33 C86.13 34.36, 68.76 32.74, 55.55 31.75 C42.34 30.77, 29.68 30.03, 20.96 28.41 C12.25 26.79, 5.89 24.51, 3.26 22.02 C0.63 19.53, 1.36 16.36, 5.16 13.45 C8.96 10.53, 16.95 6.79, 26.06 4.54 C35.18 2.29, 41.68 0.22, 59.86 -0.05 C78.05 -0.32, 119.04 1.85, 135.17 2.93 C151.3 4.01, 157.46 6.4, 156.63 6.41 M107.26 -1.28 C120.72 -0.53, 134.61 3.58, 145.55 5.6 C156.5 7.62, 167.56 8.32, 172.96 10.85 C178.36 13.38, 178.4 18.57, 177.96 20.78 C177.52 23, 177.17 22.41, 170.31 24.15 C163.46 25.9, 148.87 29.46, 136.84 31.26 C124.81 33.06, 111.56 34.9, 98.16 34.97 C84.76 35.03, 69.36 32.48, 56.44 31.64 C43.52 30.8, 29.78 31.32, 20.66 29.92 C11.53 28.52, 4.82 26.53, 1.7 23.25 C-1.42 19.97, -1.72 13.63, 1.95 10.24 C5.61 6.85, 13.91 4.8, 23.71 2.91 C33.5 1.01, 46.55 -0.91, 60.7 -1.13 C74.85 -1.34, 100.98 1.11, 108.6 1.59 C116.22 2.07, 107.25 1.22, 106.42 1.75" stroke="#1971c2" stroke-width="4" fill="none"/>
  </g>
  <g stroke-linecap="round">
    <g transform="translate(652.4311452809591 96.91327767961457) rotate(0 0 16.574535197397438)">
      <path d="M-0.53 -0.59 C-0.37 4.98, 0.02 28.3, 0.29 33.87 M1.4 1.71 C1.48 6.9, -0.42 26.75, -0.51 32.13" stroke="#1971c2" stroke-width="4" fill="none"/>
    </g>
  </g>
  <g stroke-linecap="round">
    <g transform="translate(830.2307046712228 98.42005360665053) rotate(0 -1.5067759270361876 17.32792316091559)">
      <path d="M0.29 0.73 C0.06 6.55, -1.23 28.74, -1.93 34.35 M-1.02 0.06 C-1.27 6.11, -2.23 29.81, -2.31 35.73" stroke="#1971c2" stroke-width="4" fill="none"/>
    </g>
  </g>
  <g stroke-linecap="round" transform="translate(647.910817499851 124.0352443662648) rotate(0 89.65316765864986 15.821147233879401)">
    <path d="M69.17 -0.94 C82.02 -1.92, 98.91 -0.93, 112.68 0 C126.44 0.93, 141.43 3.04, 151.76 4.66 C162.09 6.27, 170.19 7.6, 174.66 9.71 C179.14 11.82, 180.84 14.74, 178.63 17.3 C176.42 19.87, 169.22 23.24, 161.39 25.11 C153.56 26.98, 144.13 27.58, 131.64 28.5 C119.15 29.42, 100.42 30.63, 86.44 30.63 C72.46 30.63, 59.75 29.81, 47.77 28.5 C35.79 27.18, 22.73 24.27, 14.57 22.73 C6.42 21.19, 0.23 21.24, -1.17 19.25 C-2.58 17.26, 0.4 13.63, 6.14 10.78 C11.88 7.94, 14.32 3.93, 33.25 2.18 C52.18 0.43, 98.78 -0.42, 119.73 0.31 C140.68 1.04, 159.27 6.31, 158.95 6.55 M31.98 6.48 C40.71 5.22, 55.89 1.88, 69.45 0.69 C83.01 -0.51, 99.6 -1.36, 113.34 -0.71 C127.08 -0.05, 141.72 2.9, 151.89 4.63 C162.06 6.36, 170.41 7.18, 174.36 9.69 C178.32 12.2, 178.03 17.01, 175.64 19.7 C173.25 22.39, 168.29 23.62, 160.04 25.83 C151.78 28.04, 138.39 31.69, 126.13 32.95 C113.87 34.21, 100.07 34.13, 86.47 33.4 C72.87 32.68, 56.77 29.76, 44.53 28.61 C32.29 27.46, 20.04 28.8, 13.04 26.51 C6.04 24.22, 3.98 17.23, 2.52 14.87 C1.05 12.51, -1.04 13.91, 4.23 12.34 C9.5 10.78, 29.46 7, 34.12 5.49 C38.77 3.97, 31.45 3.72, 32.17 3.25" stroke="none" stroke-width="0" fill="#ffffff"/>
    <path d="M26.16 5.13 C34.95 3.24, 51.54 1.02, 65.34 0.22 C79.14 -0.57, 95.58 0.05, 108.95 0.37 C122.32 0.68, 134.81 0.79, 145.57 2.11 C156.32 3.43, 167.58 5.65, 173.49 8.27 C179.4 10.89, 182.26 15.2, 181.04 17.83 C179.82 20.46, 173.82 22.26, 166.16 24.03 C158.49 25.81, 147.46 27.27, 135.04 28.49 C122.63 29.71, 105.77 31.21, 91.67 31.33 C77.57 31.45, 63.01 30.23, 50.44 29.21 C37.88 28.19, 24.58 27, 16.29 25.2 C8 23.41, 2.37 21.04, 0.68 18.44 C-1.01 15.85, -3.09 12.18, 6.14 9.63 C15.37 7.09, 42.48 4.69, 56.06 3.17 C69.63 1.65, 86.93 0.91, 87.57 0.53 M63.56 0.57 C75.39 -0.07, 92.4 2.41, 106.28 3.06 C120.17 3.7, 135.51 3, 146.87 4.43 C158.23 5.86, 169.53 9.89, 174.45 11.64 C179.37 13.4, 177.76 13.3, 176.38 14.97 C175.01 16.64, 173.49 19.2, 166.19 21.67 C158.9 24.14, 144.4 28.09, 132.59 29.8 C120.78 31.51, 108.73 31.76, 95.35 31.93 C81.98 32.1, 65.58 32, 52.35 30.82 C39.12 29.64, 24.44 27.1, 15.98 24.87 C7.52 22.64, 3.53 20.26, 1.61 17.46 C-0.31 14.65, 0.5 9.75, 4.45 8.03 C8.39 6.3, 14.8 7.9, 25.28 7.12 C35.75 6.34, 60.25 4.03, 67.29 3.34 C74.32 2.66, 67.03 2.76, 67.5 3.01" stroke="#1971c2" stroke-width="4" fill="none"/>
  </g>
  <g stroke-linecap="round" transform="translate(655.9514730620676 115.44715731479528) rotate(0 83.62606395050523 10.547431489252915)">
    <path d="M5.27 0 C48.55 0.41, 103.77 -0.1, 161.98 0 C164.59 -5.12, 162.68 6.88, 167.25 5.27 C165.02 9.29, 166.54 12.75, 167.25 15.82 C168.61 24.12, 163.86 17.25, 161.98 21.09 C111.32 15.99, 50.53 17.88, 5.27 21.09 C-0.71 21.59, 0.45 18.83, 0 15.82 C-1.13 13.56, -1.85 13.06, 0 5.27 C0.46 5.07, 0.9 -1.74, 5.27 0" stroke="none" stroke-width="0" fill="#ffffff"/>
    <path d="M5.27 0 C65.52 2.73, 125.29 3.75, 161.98 0 M5.27 0 C60.01 -3.2, 113.21 -1.2, 161.98 0 M161.98 0 C162.91 3.99, 168.85 2.84, 167.25 5.27 M161.98 0 C165.06 0.57, 164.95 -2.74, 167.25 5.27 M167.25 5.27 C165.12 8.1, 166.57 11.31, 167.25 15.82 M167.25 5.27 C168.17 8.52, 167.23 13.74, 167.25 15.82 M167.25 15.82 C163.75 18.21, 167.5 22.96, 161.98 21.09 M167.25 15.82 C165.37 19.26, 163.38 25.29, 161.98 21.09 M161.98 21.09 C115.28 19.98, 60.37 24.56, 5.27 21.09 M161.98 21.09 C130.1 21.58, 96.13 21.85, 5.27 21.09 M5.27 21.09 C-0.85 20.5, 0.62 18.15, 0 15.82 M5.27 21.09 C1.46 16.84, -3.57 23.51, 0 15.82 M0 15.82 C1.28 13.79, 1.74 8.58, 0 5.27 M0 15.82 C0.53 11.89, -0.65 8.66, 0 5.27 M0 5.27 C-1.07 4.49, 2.7 1.17, 5.27 0 M0 5.27 C-1.81 2.23, 0.08 -2.4, 5.27 0" stroke="transparent" stroke-width="4" fill="none"/>
  </g>
  <g stroke-linecap="round" transform="translate(647.9108174998509 78.831966555181) rotate(0 90.4065556221679 17.32792316091553)">
    <path d="M121.85 1.02 C134.61 1.45, 146.36 2.33, 155.9 4.07 C165.43 5.8, 174.92 8.47, 179.06 11.43 C183.2 14.38, 183.88 19, 180.74 21.81 C177.61 24.62, 169.52 26.51, 160.24 28.27 C150.95 30.03, 138.39 31.35, 125.03 32.35 C111.66 33.36, 94.19 34.52, 80.02 34.28 C65.86 34.04, 51.74 32.36, 40.01 30.92 C28.28 29.48, 16.39 27.81, 9.63 25.62 C2.88 23.44, -0.71 20.68, -0.5 17.82 C-0.3 14.96, 4.56 10.54, 10.87 8.46 C17.18 6.38, 26.57 6.68, 37.35 5.33 C48.14 3.99, 59.04 1.19, 75.57 0.4 C92.09 -0.39, 124.44 -0.27, 136.51 0.59 C148.57 1.44, 148.69 5.11, 147.96 5.51 M89.44 0.86 C103.34 0.44, 121.46 3.16, 133.45 3.87 C145.44 4.58, 153.48 3.71, 161.37 5.12 C169.26 6.53, 178.74 9.29, 180.78 12.35 C182.82 15.41, 178.14 20.48, 173.61 23.49 C169.07 26.5, 163.41 28.53, 153.58 30.42 C143.75 32.3, 128.85 34.24, 114.62 34.79 C100.39 35.35, 81.97 34.64, 68.2 33.77 C54.42 32.9, 42.32 31.72, 31.99 29.59 C21.65 27.45, 11.83 22.85, 6.2 20.95 C0.56 19.06, -3.75 19.98, -1.83 18.23 C0.09 16.47, 9.18 12.77, 17.71 10.43 C26.24 8.09, 37.01 5.48, 49.37 4.2 C61.72 2.92, 85.05 3.21, 91.86 2.75 C98.67 2.29, 90.78 2.06, 90.22 1.44" stroke="#1971c2" stroke-width="4" fill="none"/>
  </g>
  <g stroke-linecap="round" transform="translate(10 16.300765583183875) rotate(0 171.77245568211907 127.32256583455319)">
    <path d="M32 0 C122.18 4.9, 213.37 5.58, 311.54 0 C335.93 -1.99, 346.9 7.21, 343.54 32 C346.15 78.15, 342.91 116.97, 343.54 222.65 C344.41 246.36, 331.6 252.62, 311.54 254.65 C204.52 247.48, 101.44 248.34, 32 254.65 C14.14 255.49, -4.76 248.73, 0 222.65 C4.86 154.13, 4.85 93.96, 0 32 C1.92 15.47, 6.24 5.27, 32 0" stroke="none" stroke-width="0" fill="#ffffff"/>
    <path d="M32 0 C134.86 4.78, 235.32 2.14, 311.54 0 M32 0 C89.92 2.55, 149.32 4.08, 311.54 0 M311.54 0 C329.17 3.89, 340.9 8.44, 343.54 32 M311.54 0 C330.87 -2.57, 339.62 11.6, 343.54 32 M343.54 32 C343.32 107.13, 341.73 180.87, 343.54 222.65 M343.54 32 C345.83 105.2, 345.22 178.26, 343.54 222.65 M343.54 222.65 C343.15 243.12, 329.63 256.96, 311.54 254.65 M343.54 222.65 C347.23 245.74, 334.38 253.87, 311.54 254.65 M311.54 254.65 C206.19 255.32, 92.9 257.4, 32 254.65 M311.54 254.65 C224.18 252.67, 138.33 252.49, 32 254.65 M32 254.65 C9.6 254.05, -1.05 243.93, 0 222.65 M32 254.65 C13.57 256, 0.96 240.59, 0 222.65 M0 222.65 C1.91 152.43, -1.4 73.72, 0 32 M0 222.65 C-1.1 161.64, -1.19 96.51, 0 32 M0 32 C2.86 9.65, 10.32 -2.3, 32 0 M0 32 C0.41 11.88, 11.98 0.38, 32 0" stroke="#2f9e44" stroke-width="4" fill="none"/>
  </g>
  <g stroke-linecap="round">
    <g transform="translate(20.547431489252745 87.11923415388219) rotate(0 159.71824826583003 0)">
      <path d="M2.35 0.2 C55.76 -0.21, 265.41 -0.4, 318.02 -0.08 M0.19 -2.15 C54.75 -0.87, 271.11 3.53, 323.65 3.51" stroke="#2f9e44" stroke-width="4" fill="none"/>
    </g>
  </g>
  <g stroke-linecap="round">
    <g transform="translate(22.868412261894434 145.20402989499337) rotate(0 159.71824826583003 0)">
      <path d="M1.81 -0.92 C55.38 -0.25, 265.48 1.73, 318.8 1.89 M-0.65 -3.89 C52.72 -3.81, 262.58 -3.28, 316.21 -2.1" stroke="#2f9e44" stroke-width="1" fill="none"/>
    </g>
  </g>
  <g stroke-linecap="round">
    <g transform="translate(25.88196411596681 216.0224984656918) rotate(0 159.71824826583003 0)">
      <path d="M-0.64 1.89 C52.68 2.05, 268.1 0.46, 321.72 0.04 M4.21 0.44 C57.19 1.17, 268.07 3.42, 320.72 3.69" stroke="#2f9e44" stroke-width="1" fill="none"/>
    </g>
  </g>
  <g stroke-linecap="round">
    <g transform="translate(296.28742613686495 41.91595634279906) rotate(0 0 107.73447878308343)">
      <path d="M0.64 1.08 C0.78 37, 1.32 178.85, 1.49 214.7 M-2.46 -0.8 C-2.61 35.6, -0.47 181.17, 0.06 217.91" stroke="#2f9e44" stroke-width="1" fill="none"/>
    </g>
  </g>
  <g stroke-linecap="round">
    <g transform="translate(248.07059647170877 52.46338783205215) rotate(0 -1.5067759270361307 101.70737507493891)">
      <path d="M1.56 1.46 C0.91 35.77, -1.27 171.33, -2.28 205.17 M-1.03 -0.21 C-2.14 33.36, -3.1 167.82, -4.13 201.11" stroke="#2f9e44" stroke-width="1" fill="none"/>
    </g>
  </g>
  <g stroke-linecap="round">
    <g transform="translate(193.6023649010417 50.93848991095979) rotate(0 -1.5067759270361307 101.70737507493891)">
      <path d="M1.85 -0.36 C1.57 32.96, -1.88 166.76, -3.15 200.88 M-0.59 -3.03 C-1.12 30.46, -5.49 169.41, -5.47 203.13" stroke="#2f9e44" stroke-width="1" fill="none"/>
    </g>
  </g>
  <g stroke-linecap="round">
    <g transform="translate(104.70258520590994 50.93848991095979) rotate(0 -1.5067759270361307 101.70737507493891)">
      <path d="M-2.45 -0.13 C-3.31 33.35, -6.03 168.79, -5.67 202.63 M1.42 -2.66 C1.43 31.07, -0.37 171.09, -0.71 205.83" stroke="#2f9e44" stroke-width="1" fill="none"/>
    </g>
  </g>
  <g stroke-linecap="round">
    <g transform="translate(143.8787593088493 50.93848991095956) rotate(0 -1.5067759270361307 101.70737507493891)">
      <path d="M2.71 -0.5 C2.95 33.54, -0.03 169.88, -1.21 203.44 M0.74 -3.23 C1.01 31.36, -1.19 172.79, -2.46 207.08" stroke="#2f9e44" stroke-width="1" fill="none"/>
    </g>
  </g>
  <g stroke-linecap="round">
    <g transform="translate(57.99253146778972 47.924938056887186) rotate(0 -1.5067759270361307 101.70737507493891)">
      <path d="M1.59 -1.44 C1.1 32.04, -4.28 169.44, -4.66 203.55 M-0.99 3.95 C-0.41 39.13, 0.89 173.54, 0.85 207.26" stroke="#2f9e44" stroke-width="1" fill="none"/>
    </g>
  </g>
  <g stroke-linecap="round" transform="translate(65.75070930033672 74.31163877407585) rotate(0 171.77245568211907 127.32256583455319)">
    <path d="M32 0 C88.17 2.18, 150.81 2.07, 311.54 0 C336.18 0.71, 343.03 8.57, 343.54 32 C337.27 95.5, 335.6 157.21, 343.54 222.65 C338.21 248.41, 334.02 254.73, 311.54 254.65 C215.05 257.24, 111.02 254.47, 32 254.65 C16.23 250.39, 4.21 246.65, 0 222.65 C-5.95 170.86, -9.17 115.2, 0 32 C4.53 7.2, 12.84 -0.54, 32 0" stroke="none" stroke-width="0" fill="#ffffff"/>
    <path d="M32 0 C140.43 -2.24, 248.23 1.17, 311.54 0 M32 0 C134.39 0.87, 235.13 -0.63, 311.54 0 M311.54 0 C334.68 2.77, 345.74 13.58, 343.54 32 M311.54 0 C334.29 -2.46, 340.49 6.34, 343.54 32 M343.54 32 C341.91 95.9, 338.43 158.91, 343.54 222.65 M343.54 32 C344.6 84.92, 347.1 136.67, 343.54 222.65 M343.54 222.65 C341.46 241.74, 334.68 253.62, 311.54 254.65 M343.54 222.65 C339.64 243.77, 332.28 253.38, 311.54 254.65 M311.54 254.65 C212.36 258.9, 116.93 259.13, 32 254.65 M311.54 254.65 C218.91 253.77, 124.52 252.05, 32 254.65 M32 254.65 C8.25 252.18, 0.65 240.06, 0 222.65 M32 254.65 C8.34 256.46, -0.8 247.13, 0 222.65 M0 222.65 C0.5 154.49, 0.63 87.5, 0 32 M0 222.65 C2.65 151.69, 2.25 78.49, 0 32 M0 32 C3.43 9.51, 12.9 -2.69, 32 0 M0 32 C-1.92 12.88, 15.17 4.16, 32 0" stroke="#2f9e44" stroke-width="4" fill="none"/>
  </g>
  <g stroke-linecap="round">
    <g transform="translate(76.29814078958947 145.13010734477416) rotate(0 159.71824826583003 0)">
      <path d="M-2.22 0.02 C51.19 0.28, 266.91 1.88, 320.33 1.83 M1.77 -2.43 C54.9 -3, 266.22 -3.04, 318.57 -2.19" stroke="#2f9e44" stroke-width="4" fill="none"/>
    </g>
  </g>
  <g stroke-linecap="round">
    <g transform="translate(78.61912156223116 203.21490308588523) rotate(0 159.71824826583003 0)">
      <path d="M0.89 1.83 C54.31 1.77, 265.13 -0.12, 318.32 -0.29 M-2.07 0.35 C51.08 0.75, 262.04 2.52, 315.47 3.18" stroke="#2f9e44" stroke-width="1" fill="none"/>
    </g>
  </g>
  <g stroke-linecap="round">
    <g transform="translate(81.63267341630353 274.03337165658377) rotate(0 159.71824826583003 0)">
      <path d="M-1.12 -0.29 C52.06 -0.47, 266.89 1.06, 320 0.78 M3.47 -2.92 C56.25 -4.15, 264.75 -4.31, 318.06 -3.81" stroke="#2f9e44" stroke-width="1" fill="none"/>
    </g>
  </g>
  <g stroke-linecap="round">
    <g transform="translate(352.0381354372017 99.92682953369126) rotate(0 0 107.73447878308343)">
      <path d="M0.56 0.78 C0.43 36.41, -2.01 177.4, -1.89 213.5 M-2.58 -1.27 C-1.71 34.7, 3.03 180.36, 3.48 216.06" stroke="#2f9e44" stroke-width="1" fill="none"/>
    </g>
  </g>
  <g stroke-linecap="round">
    <g transform="translate(303.8213057720455 110.47426102294389) rotate(0 -1.5067759270361307 101.70737507493891)">
      <path d="M-1.89 -1.97 C-2.28 32.13, -1.82 170.79, -1.75 205.36 M2.28 3.14 C1.58 36.38, -2.52 168.42, -3.31 201.4" stroke="#2f9e44" stroke-width="1" fill="none"/>
    </g>
  </g>
  <g stroke-linecap="round">
    <g transform="translate(249.35307420137843 108.94936310185199) rotate(0 -1.5067759270361307 101.70737507493891)">
      <path d="M1.26 1.94 C1.33 36.51, -0.91 172.12, -1.47 205.45 M-1.5 0.53 C-1.49 34.5, -2.54 167.6, -2.88 201.55" stroke="#2f9e44" stroke-width="1" fill="none"/>
    </g>
  </g>
  <g stroke-linecap="round">
    <g transform="translate(160.45329450624666 108.94936310185199) rotate(0 -1.5067759270361307 101.70737507493891)">
      <path d="M1.54 2.04 C0.97 35.37, -1.09 168.79, -2.15 201.92 M-1.07 0.67 C-2.05 34.17, -4.26 171.1, -3.92 204.74" stroke="#2f9e44" stroke-width="1" fill="none"/>
    </g>
  </g>
  <g stroke-linecap="round">
    <g transform="translate(199.629468609186 108.94936310185153) rotate(0 -1.5067759270361307 101.70737507493891)">
      <path d="M0.86 -1.5 C-0.21 31.63, -4.41 167.08, -4.87 200.78 M-2.12 3.86 C-2.43 37.05, 0.68 169.9, 0.52 202.98" stroke="#2f9e44" stroke-width="1" fill="none"/>
    </g>
  </g>
  <g stroke-linecap="round">
    <g transform="translate(113.74324076812644 105.93581124777916) rotate(0 -1.5067759270361307 101.70737507493891)">
      <path d="M-1.86 -2.64 C-2.31 31.06, -1.99 166.09, -1.89 200.68 M2.33 2.1 C1.52 36.17, -2.78 169.82, -3.51 202.82" stroke="#2f9e44" stroke-width="1" fill="none"/>
    </g>
  </g>
  <g stroke-linecap="round">
    <g transform="translate(474.0869855271285 160.95125457865345) rotate(0 77.76738681932439 0.29275798241479833)">
      <path d="M-1.65 -0.03 C9.45 1, 40.79 5.3, 67.25 4.25 C93.71 3.2, 142.78 -4.73, 157.11 -6.34 M2.65 -2.97 C13.53 -1.35, 40.7 7.04, 66.28 6.92 C91.86 6.79, 141.78 -2.1, 156.16 -3.72" stroke="#1e1e1e" stroke-width="4" fill="none"/>
    </g>
    <g transform="translate(474.0869855271285 160.95125457865345) rotate(0 77.76738681932439 0.29275798241479833)">
      <path d="M133.5 9.74 C140.11 5.5, 147.87 -1.1, 156.16 -5.66 M133.86 7.09 C141.97 4.99, 149.57 -1.12, 156.3 -3.93" stroke="#1e1e1e" stroke-width="4" fill="none"/>
    </g>
    <g transform="translate(474.0869855271285 160.95125457865345) rotate(0 77.76738681932439 0.29275798241479833)">
      <path d="M131.08 -7.19 C138.3 -5.93, 146.85 -7.05, 156.16 -5.66 M131.44 -9.84 C140.53 -5.76, 149.02 -5.72, 156.3 -3.93" stroke="#1e1e1e" stroke-width="4" fill="none"/>
    </g>
  </g>
  <g stroke-linecap="round">
    <g transform="translate(412.3091725186471 11.780437802076449) rotate(0 33.90245835831297 76.09218431532469)">
      <path d="M0.37 0.45 C11.32 25.95, 57.2 125.34, 68.33 150.6 M-2.87 -1.78 C7.52 24.28, 55.06 127.24, 66.37 153.37" stroke="#1e1e1e" stroke-width="4" fill="none"/>
    </g>
  </g>
  <g stroke-linecap="round">
    <g transform="translate(475.5937614541647 165.4715823597619) rotate(0 -29.382130577204578 85.88622784105956)">
      <path d="M1.91 -1.07 C-7.66 27.53, -46.46 142.87, -56.33 171.25 M-0.5 -4.13 C-10.32 24.95, -47.62 145.42, -57.24 174.6" stroke="#1e1e1e" stroke-width="4" fill="none"/>
    </g>
  </g>
  <mask/>
  <mask/>
  <mask/>
  <mask/>
  <mask/>
  <mask/>
  <mask/>
  <mask/>
  <mask/>
  <mask/>
  <mask/>
  <mask/>
  <mask/>
  <mask/>
  <mask/>
  <mask/>
  <mask/>
  <mask/>
  <mask/>
  <mask/>
  <mask/>
  <mask/>
  <mask/>
  <mask/>
  <mask/>
  <mask/>
  <mask/>
</svg>