<?xml version="1.0" encoding="UTF-8" standalone="yes"?>
<svg version="1.0" xmlns="http://www.w3.org/2000/svg" viewBox="0 0 100 50">
  <text x="15" y="45" font-family="Verdana" text-anchor="middle" font-size="3">
    కేంద్రీకృత వ్యవస్థ
  </text>
  <text x="48" y="45" font-family="Verdana" text-anchor="middle" font-size="3">
    వికేంద్రీకృత వ్యవస్థ
  </text>
  <text x="81" y="45" font-family="Verdana" text-anchor="middle" font-size="3">
    పంపిణీ చేయబడింది వ్యవస్థ
  </text>
  <line x1="15" y1="22" x2="20" y2="2" style="stroke:#1867c0;stroke-width:0.2"/>
  <line x1="15" y1="22" x2="21" y2="5" style="stroke:#1867c0;stroke-width:0.2"/>
  <line x1="15" y1="22" x2="7" y2="30" style="stroke:#1867c0;stroke-width:0.2"/>
  <line x1="15" y1="22" x2="8" y2="6" style="stroke:#1867c0;stroke-width:0.2"/>
  <line x1="15" y1="22" x2="6" y2="11" style="stroke:#1867c0;stroke-width:0.2"/>
  <line x1="15" y1="22" x2="24" y2="33" style="stroke:#1867c0;stroke-width:0.2"/>
  <line x1="15" y1="22" x2="15" y2="15" style="stroke:#1867c0;stroke-width:0.2"/>
  <line x1="15" y1="22" x2="31" y2="25" style="stroke:#1867c0;stroke-width:0.2"/>
  <line x1="15" y1="22" x2="28" y2="22" style="stroke:#1867c0;stroke-width:0.2"/>
  <line x1="15" y1="22" x2="2" y2="23" style="stroke:#1867c0;stroke-width:0.2"/>
  <line x1="15" y1="22" x2="16" y2="39" style="stroke:#1867c0;stroke-width:0.2"/>
  <line x1="48.3" y1="7" x2="58.3" y2="28" style="stroke:#1867c0;stroke-width:0.2"/>
  <line x1="58.3" y1="28" x2="40.3" y2="26" style="stroke:#1867c0;stroke-width:0.2"/>
  <line x1="53.3" y1="2" x2="48.3" y2="7" style="stroke:#1867c0;stroke-width:0.2"/>
  <line x1="54.3" y1="5" x2="48.3" y2="7" style="stroke:#1867c0;stroke-width:0.2"/>
  <line x1="40.3" y1="30" x2="40.3" y2="26" style="stroke:#1867c0;stroke-width:0.2"/>
  <line x1="41.3" y1="6" x2="48.3" y2="7" style="stroke:#1867c0;stroke-width:0.2"/>
  <line x1="39.3" y1="11" x2="48.3" y2="7" style="stroke:#1867c0;stroke-width:0.2"/>
  <line x1="57.3" y1="33" x2="58.3" y2="28" style="stroke:#1867c0;stroke-width:0.2"/>
  <line x1="48.3" y1="15" x2="48.3" y2="7" style="stroke:#1867c0;stroke-width:0.2"/>
  <line x1="64.3" y1="25" x2="58.3" y2="28" style="stroke:#1867c0;stroke-width:0.2"/>
  <line x1="61.3" y1="22" x2="58.3" y2="28" style="stroke:#1867c0;stroke-width:0.2"/>
  <line x1="35.3" y1="23" x2="40.3" y2="26" style="stroke:#1867c0;stroke-width:0.2"/>
  <line x1="49.3" y1="39" x2="58.3" y2="28" style="stroke:#1867c0;stroke-width:0.2"/>
  <line x1="86.6" y1="2" x2="87.6" y2="5" style="stroke:#1867c0;stroke-width:0.2"/>
  <line x1="86.6" y1="2" x2="74.6" y2="6" style="stroke:#1867c0;stroke-width:0.2"/>
  <line x1="72.6" y1="11" x2="74.6" y2="6" style="stroke:#1867c0;stroke-width:0.2"/>
  <line x1="72.6" y1="11" x2="87.6" y2="5" style="stroke:#1867c0;stroke-width:0.2"/>
  <line x1="72.6" y1="11" x2="83.6" y2="15" style="stroke:#1867c0;stroke-width:0.2"/>
  <line x1="68.6" y1="23" x2="83.6" y2="15" style="stroke:#1867c0;stroke-width:0.2"/>
  <line x1="72.6" y1="11" x2="68.6" y2="23" style="stroke:#1867c0;stroke-width:0.2"/>
  <line x1="94.6" y1="22" x2="83.6" y2="15" style="stroke:#1867c0;stroke-width:0.2"/>
  <line x1="94.6" y1="22" x2="97.6" y2="25" style="stroke:#1867c0;stroke-width:0.2"/>
  <line x1="73.6" y1="30" x2="68.6" y2="23" style="stroke:#1867c0;stroke-width:0.2"/>
  <line x1="73.6" y1="30" x2="72.6" y2="39" style="stroke:#1867c0;stroke-width:0.2"/>
  <line x1="73.6" y1="30" x2="90.6" y2="33" style="stroke:#1867c0;stroke-width:0.2"/>
  <line x1="90.6" y1="33" x2="72.6" y2="39" style="stroke:#1867c0;stroke-width:0.2"/>
  <line x1="90.6" y1="33" x2="97.6" y2="25" style="stroke:#1867c0;stroke-width:0.2"/>
  <line x1="94.6" y1="22" x2="87.6" y2="5" style="stroke:#1867c0;stroke-width:0.2"/>
  <line x1="73.6" y1="30" x2="83.6" y2="15" style="stroke:#1867c0;stroke-width:0.2"/>
  <circle cx="15" cy="22" r="1.5" style="fill:#1867c0"/>
  <circle cx="20" cy="2" r="1" style="fill:#7bc6ff"/>
  <circle cx="21" cy="5" r="1" style="fill:#7bc6ff"/>
  <circle cx="7" cy="30" r="1" style="fill:#7bc6ff"/>
  <circle cx="8" cy="6" r="1" style="fill:#7bc6ff"/>
  <circle cx="6" cy="11" r="1" style="fill:#7bc6ff"/>
  <circle cx="24" cy="33" r="1" style="fill:#7bc6ff"/>
  <circle cx="15" cy="15" r="1" style="fill:#7bc6ff"/>
  <circle cx="31" cy="25" r="1" style="fill:#7bc6ff"/>
  <circle cx="28" cy="22" r="1" style="fill:#7bc6ff"/>
  <circle cx="2" cy="23" r="1" style="fill:#7bc6ff"/>
  <circle cx="16" cy="39" r="1" style="fill:#7bc6ff"/>
  <circle cx="48.3" cy="7" r="1.5" style="fill:#1867c0"/>
  <circle cx="58.3" cy="28" r="1.5" style="fill:#1867c0"/>
  <circle cx="40.3" cy="26" r="1.5" style="fill:#1867c0"/>
  <circle cx="53.3" cy="2" r="1" style="fill:#7bc6ff"/>
  <circle cx="54.3" cy="5" r="1" style="fill:#7bc6ff"/>
  <circle cx="40.3" cy="30" r="1" style="fill:#7bc6ff"/>
  <circle cx="41.3" cy="6" r="1" style="fill:#7bc6ff"/>
  <circle cx="39.3" cy="11" r="1" style="fill:#7bc6ff"/>
  <circle cx="57.3" cy="33" r="1" style="fill:#7bc6ff"/>
  <circle cx="48.3" cy="15" r="1" style="fill:#7bc6ff"/>
  <circle cx="64.3" cy="25" r="1" style="fill:#7bc6ff"/>
  <circle cx="61.3" cy="22" r="1" style="fill:#7bc6ff"/>
  <circle cx="35.3" cy="23" r="1" style="fill:#7bc6ff"/>
  <circle cx="49.3" cy="39" r="1" style="fill:#7bc6ff"/>
  <circle cx="86.6" cy="2" r="1" style="fill:#7bc6ff"/>
  <circle cx="87.6" cy="5" r="1" style="fill:#7bc6ff"/>
  <circle cx="73.6" cy="30" r="1" style="fill:#7bc6ff"/>
  <circle cx="74.6" cy="6" r="1" style="fill:#7bc6ff"/>
  <circle cx="72.6" cy="11" r="1" style="fill:#7bc6ff"/>
  <circle cx="90.6" cy="33" r="1" style="fill:#7bc6ff"/>
  <circle cx="83.6" cy="15" r="1" style="fill:#7bc6ff"/>
  <circle cx="97.6" cy="25" r="1" style="fill:#7bc6ff"/>
  <circle cx="94.6" cy="22" r="1" style="fill:#7bc6ff"/>
  <circle cx="68.6" cy="23" r="1" style="fill:#7bc6ff"/>
  <circle cx="72.6" cy="39" r="1" style="fill:#7bc6ff"/>
</svg>