<?xml version="1.0" encoding="UTF-8" standalone="yes"?>
<svg version="1.1" xmlns="http://www.w3.org/2000/svg" viewBox="0 0 551.1533283114152 315" width="1102.3066566228304" height="630">
  <defs>
    <style class="style-fonts">
      @font-face {
        font-family: "Virgil";
        src: url("https://excalidraw.com/Virgil.woff2");
      }
      @font-face {
        font-family: "Cascadia";
        src: url("https://excalidraw.com/Cascadia.woff2");
      }
      @font-face {
        font-family: "Assistant";
        src: url("https://excalidraw.com/Assistant-Regular.woff2");
      }
    </style>
  </defs>
  <g stroke-linecap="round">
    <g transform="translate(203.7643728648752 135.78056651468683) rotate(0 -0.7607910197956471 16.2302084223071)">
      <path d="M-0.76 -1.15 C-0.96 4.52, -0.65 27.68, -0.89 33.4 M1.05 0.86 C0.71 6.26, -1.39 26.71, -1.51 31.77" stroke="#0c8599" stroke-width="2" fill="none"/>
    </g>
  </g>
  <g stroke-linecap="round" transform="translate(193.6204926009333 116) rotate(0 9.129492237547751 9.890283257343413)">
    <path d="M11 -0.16 C12.91 0.31, 16.38 2.53, 17.58 4.41 C18.78 6.29, 18.62 9.04, 18.18 11.14 C17.74 13.25, 16.31 15.71, 14.95 17.04 C13.59 18.37, 11.84 19.11, 10.02 19.12 C8.2 19.13, 5.52 18.22, 4.03 17.1 C2.54 15.98, 1.66 14.4, 1.08 12.38 C0.51 10.36, 0 6.93, 0.58 4.99 C1.16 3.05, 2.75 1.37, 4.58 0.74 C6.41 0.12, 10.18 1.2, 11.56 1.26 C12.94 1.32, 12.67 0.98, 12.86 1.1 M5.22 1.26 C6.74 0.23, 10 -1.45, 12.2 -0.6 C14.4 0.25, 17.67 4.5, 18.42 6.36 C19.17 8.21, 17.17 8.43, 16.69 10.52 C16.21 12.62, 16.67 17.61, 15.55 18.95 C14.43 20.29, 11.94 18.94, 9.95 18.55 C7.96 18.16, 5.39 18.04, 3.6 16.62 C1.8 15.2, -0.57 11.81, -0.83 10.05 C-1.08 8.28, 1.06 7.44, 2.07 6.01 C3.08 4.58, 4.54 2.47, 5.24 1.47 C5.93 0.46, 6.27 -0.19, 6.27 -0.03" stroke="#0c8599" stroke-width="2" fill="none"/>
  </g>
  <g stroke-linecap="round">
    <g transform="translate(205.2859549044665 147.44602881821993) rotate(0 4.818343125372422 -2.2823730593869413)">
      <path d="M-0.6 -0.69 C0.8 -1.47, 7.19 -3.9, 8.93 -4.47 M0.48 0.6 C2.05 -0.08, 8.77 -2.47, 10.26 -3.46" stroke="#0c8599" stroke-width="2" fill="none"/>
    </g>
  </g>
  <g stroke-linecap="round">
    <g transform="translate(202.749984838481 148.4604168446142) rotate(0 -4.818343125372422 -2.2823730593869413)">
      <path d="M-0.62 -0.67 C-2.14 -1.51, -8.13 -3.96, -9.51 -4.71 M0.43 0.62 C-1.14 -0.13, -8.46 -2.94, -10.04 -3.83" stroke="#0c8599" stroke-width="2" fill="none"/>
    </g>
  </g>
  <g stroke-linecap="round">
    <g transform="translate(202.24279082528392 169.76256539889232) rotate(0 -3.8039550989782356 2.7895670725840773)">
      <path d="M0.13 0.37 C-1.09 1.36, -6.06 5.28, -7.27 6.05 M-0.72 -0.1 C-2.02 0.67, -6.58 4.03, -7.68 4.96" stroke="#0c8599" stroke-width="2" fill="none"/>
    </g>
  </g>
  <g stroke-linecap="round">
    <g transform="translate(204.2715668780723 171.28414743848361) rotate(0 3.296761085781128 2.02877605278843)">
      <path d="M0.55 -0.47 C1.73 0.28, 6.12 3.89, 7.22 4.76 M-0.08 0.92 C1.04 1.45, 5.77 3.35, 6.96 3.8" stroke="#0c8599" stroke-width="2" fill="none"/>
    </g>
  </g>
  <g stroke-linecap="round" transform="translate(258.6113686159408 139.44059829395246) rotate(0 8.344113562803841 9.039456359704104)">
    <path d="M11.58 0.9 C13.01 1.37, 13.68 2.27, 14.69 3.9 C15.7 5.53, 17.67 8.68, 17.62 10.67 C17.58 12.67, 15.85 14.48, 14.43 15.88 C13.02 17.27, 10.82 18.83, 9.14 19.04 C7.45 19.25, 5.81 18.39, 4.3 17.12 C2.8 15.84, 0.78 13.5, 0.09 11.37 C-0.6 9.24, -0.69 6.06, 0.16 4.33 C1.01 2.6, 3.45 1.55, 5.19 1 C6.94 0.45, 9.53 1.17, 10.61 1.02 C11.68 0.87, 11.53 -0.08, 11.65 0.1 M7.44 1.07 C9.06 1.07, 12.87 0.28, 14.27 1.45 C15.66 2.62, 15.73 6.26, 15.82 8.1 C15.91 9.95, 15.78 11.06, 14.79 12.52 C13.8 13.98, 11.5 16.27, 9.86 16.86 C8.22 17.46, 6.37 16.56, 4.95 16.07 C3.52 15.57, 2.17 15.46, 1.3 13.89 C0.43 12.32, -0.34 8.88, -0.28 6.67 C-0.22 4.46, 0.03 1.7, 1.66 0.65 C3.3 -0.4, 8.31 0.52, 9.53 0.39 C10.75 0.25, 9.37 -0.44, 8.99 -0.19" stroke="#1e1e1e" stroke-width="2" fill="none"/>
  </g>
  <g stroke-linecap="round">
    <g transform="translate(267.8826059079451 157.51951101336067) rotate(0 -0.6953427969003201 14.83397966720679)">
      <path d="M0.7 0.86 C0.34 6.14, -1.74 26, -1.98 30.67 M-0.39 0.27 C-0.37 5.31, 0.56 24.15, 0.42 29.08" stroke="#1e1e1e" stroke-width="2" fill="none"/>
    </g>
  </g>
  <g stroke-linecap="round">
    <g transform="translate(270.6639770955464 168.18143389916577) rotate(0 4.403837713702018 -2.0860283907009034)">
      <path d="M-0.37 0.63 C1.09 -0.23, 7.69 -3.97, 9.2 -4.65 M0.81 0.31 C2.17 -0.52, 7.59 -3.13, 8.81 -3.93" stroke="#1e1e1e" stroke-width="2" fill="none"/>
    </g>
  </g>
  <g stroke-linecap="round">
    <g transform="translate(267.8826059079451 169.10855762836604) rotate(0 -4.403837713702018 -2.0860283907009034)">
      <path d="M0.39 -0.47 C-1.04 -1.15, -7.48 -2.85, -8.94 -3.42 M-0.32 0.92 C-1.83 0.38, -8.22 -3.34, -9.61 -4.36" stroke="#1e1e1e" stroke-width="2" fill="none"/>
    </g>
  </g>
  <g stroke-linecap="round">
    <g transform="translate(267.4190440433449 188.578155941575) rotate(0 -3.4767139845016004 2.5495902553011547)">
      <path d="M-0.14 0.75 C-1.29 1.73, -5.41 4.61, -6.52 5.38 M-1.12 0.48 C-2.37 1.27, -5.88 3.61, -6.88 4.19" stroke="#1e1e1e" stroke-width="2" fill="none"/>
    </g>
  </g>
  <g stroke-linecap="round">
    <g transform="translate(269.73685336634594 189.96884153537576) rotate(0 3.0131521199013918 1.8542474584008914)">
      <path d="M0.44 0.28 C1.5 0.81, 5.17 3.25, 6.22 3.94 M-0.25 -0.23 C0.74 0.38, 4.58 2.14, 5.73 2.73" stroke="#1e1e1e" stroke-width="2" fill="none"/>
    </g>
  </g>
  <g stroke-linecap="round" transform="translate(344.005069925455 104.44059829395246) rotate(0 5.713784104994968 6.1899327804112545)">
    <path d="M7.35 -0.7 C8.51 -0.71, 9.17 0.81, 9.96 1.84 C10.76 2.87, 12.14 4.24, 12.11 5.48 C12.07 6.72, 10.62 8.21, 9.75 9.3 C8.89 10.39, 7.92 11.57, 6.93 12.01 C5.94 12.45, 4.75 12.66, 3.8 11.95 C2.85 11.25, 1.81 9.19, 1.24 7.78 C0.68 6.36, 0.04 4.46, 0.4 3.44 C0.76 2.42, 2.45 2.2, 3.42 1.67 C4.38 1.15, 5.49 0.65, 6.17 0.29 C6.84 -0.07, 7.32 -0.61, 7.46 -0.49 M5.41 0.39 C6.55 -0.14, 9.15 -0.53, 9.86 0.28 C10.57 1.09, 9.58 3.71, 9.7 5.27 C9.82 6.82, 10.81 8.66, 10.59 9.61 C10.36 10.56, 9.41 10.6, 8.37 10.98 C7.32 11.37, 5.65 11.99, 4.33 11.91 C3 11.84, 1.37 11.31, 0.42 10.54 C-0.54 9.77, -1.64 8.46, -1.38 7.3 C-1.12 6.13, 0.84 4.56, 1.97 3.53 C3.11 2.5, 5.25 1.68, 5.44 1.11 C5.63 0.54, 3.18 0.12, 3.09 0.12" stroke="#2f9e44" stroke-width="2" fill="none"/>
  </g>
  <g stroke-linecap="round">
    <g transform="translate(350.353718931005 116.82046385477497) rotate(0 -0.4761486754162476 10.157838408879911)">
      <path d="M0.35 -0.06 C0.31 3.61, -0.05 17.88, -0.42 21.27 M-0.92 -1.14 C-1.06 2.28, -1.33 15.86, -1.09 19.65" stroke="#2f9e44" stroke-width="2" fill="none"/>
    </g>
  </g>
  <g stroke-linecap="round">
    <g transform="translate(351.623448732115 124.12141021115735) rotate(0 3.0156082776362325 -1.4284460262487073)">
      <path d="M0.34 0.6 C1.21 0.13, 4.53 -2.39, 5.45 -2.88 M-0.4 0.26 C0.68 -0.09, 5.91 -1.29, 6.85 -1.92" stroke="#2f9e44" stroke-width="2" fill="none"/>
    </g>
  </g>
  <g stroke-linecap="round">
    <g transform="translate(350.03628648072754 124.75627511171228) rotate(0 -3.0156082776362325 -1.4284460262487073)">
      <path d="M-0.58 -0.02 C-1.67 -0.51, -5.23 -1.81, -6.21 -2.34 M0.5 -0.68 C-0.73 -1.44, -5.63 -3.1, -6.9 -3.41" stroke="#2f9e44" stroke-width="2" fill="none"/>
    </g>
  </g>
  <g stroke-linecap="round">
    <g transform="translate(349.71885403045 138.0884380233672) rotate(0 -2.380743377081238 1.7458784765262862)">
      <path d="M-0.18 0.51 C-0.95 1.04, -4.31 2.66, -5.17 3.16 M1.11 0.13 C0.64 0.76, -2.86 3.24, -3.68 3.95" stroke="#2f9e44" stroke-width="2" fill="none"/>
    </g>
  </g>
  <g stroke-linecap="round">
    <g transform="translate(350.6711513812825 139.0407353741998) rotate(0 2.0633109268037373 1.2697298011099747)">
      <path d="M-0.41 -0.33 C0.22 0.02, 2.85 2.01, 3.57 2.59 M0.76 1.14 C1.64 1.57, 4.55 3.44, 4.98 3.59" stroke="#2f9e44" stroke-width="2" fill="none"/>
    </g>
  </g>
  <g stroke-linecap="round" transform="translate(330.7787727944607 160.44059829395246) rotate(0 7.34679007144765 7.9590225774015835)">
    <path d="M9.98 0.63 C11.15 1.25, 12.02 2.78, 12.83 4.16 C13.64 5.54, 14.81 7.18, 14.83 8.91 C14.86 10.63, 14.14 13.3, 12.99 14.49 C11.84 15.69, 9.51 16.21, 7.95 16.09 C6.39 15.97, 5.06 14.74, 3.61 13.77 C2.16 12.8, -0.26 11.75, -0.76 10.29 C-1.26 8.82, -0.29 6.68, 0.6 5 C1.49 3.31, 3.03 0.95, 4.57 0.18 C6.11 -0.59, 8.97 0.21, 9.85 0.37 C10.73 0.53, 10 0.85, 9.86 1.12 M10.16 -1.22 C11.41 -1.02, 12.38 1.86, 13.19 3.6 C14.01 5.34, 14.96 7.52, 15.04 9.23 C15.12 10.94, 14.81 12.95, 13.66 13.88 C12.52 14.8, 9.88 14.5, 8.18 14.76 C6.48 15.02, 4.71 16.22, 3.44 15.41 C2.16 14.61, 0.98 11.85, 0.53 9.95 C0.09 8.04, -0.06 5.56, 0.77 3.97 C1.59 2.37, 4.08 0.81, 5.5 0.37 C6.92 -0.06, 8.72 1.35, 9.29 1.36 C9.87 1.37, 8.85 0.39, 8.96 0.42" stroke="#2f9e44" stroke-width="2" fill="none"/>
  </g>
  <g stroke-linecap="round">
    <g transform="translate(336.0544471838307 175.9504884447863) rotate(0 0.612232505953969 13.060960127018006)">
      <path d="M0.83 0.91 C0.86 5.45, 0.19 22.26, 0.28 26.29 M-0.19 0.34 C0.19 5.18, 2.35 23.66, 2.5 27.92" stroke="#2f9e44" stroke-width="2" fill="none"/>
    </g>
  </g>
  <g stroke-linecap="round">
    <g transform="translate(336.1540001311089 185.33805353608045) rotate(0 -3.877472537708485 -1.8366975178619214)">
      <path d="M-0.59 0.11 C-1.95 -0.71, -6.47 -3.73, -7.64 -4.33 M0.48 -0.49 C-1.01 -1.29, -6.76 -3.36, -8.17 -3.7" stroke="#2f9e44" stroke-width="2" fill="none"/>
    </g>
  </g>
  <g stroke-linecap="round">
    <g transform="translate(339.0063424493004 186.15436354401913) rotate(0 3.877472537708485 -1.8366975178619214)">
      <path d="M0.12 -0.66 C1.53 -1.25, 6.68 -3.1, 7.9 -3.48 M-0.74 0.64 C0.64 -0.2, 6.13 -3.93, 7.39 -4.72" stroke="#2f9e44" stroke-width="2" fill="none"/>
    </g>
  </g>
  <g stroke-linecap="round">
    <g transform="translate(339.7831252759131 203.29687371073032) rotate(0 3.0611625297698524 2.2448525218312625)">
      <path d="M0.15 0.19 C1.1 1.16, 4.76 4.39, 5.81 5.18 M-0.69 -0.37 C0.12 0.46, 3.91 3.52, 5.05 4.2" stroke="#2f9e44" stroke-width="2" fill="none"/>
    </g>
  </g>
  <g stroke-linecap="round">
    <g transform="translate(335.7714101491664 204.52133872263857) rotate(0 -2.6530075258005397 1.6326200158772508)">
      <path d="M-0.31 0.69 C-1.17 1.27, -4.15 3.16, -4.97 3.71 M0.9 0.39 C-0.03 0.74, -4.3 2.19, -5.38 2.61" stroke="#2f9e44" stroke-width="2" fill="none"/>
    </g>
  </g>
  <g stroke-linecap="round" transform="translate(110.39197681943091 163.44059829395246) rotate(0 8.518686513419794 9.228577056204813)">
    <path d="M7.21 -0.63 C8.99 -1.06, 11.62 -0.71, 13.3 0.57 C14.98 1.85, 16.63 4.89, 17.27 7.03 C17.91 9.18, 17.84 11.86, 17.13 13.44 C16.43 15.01, 14.81 15.64, 13.04 16.47 C11.27 17.3, 8.36 18.61, 6.51 18.4 C4.67 18.19, 2.93 16.79, 1.96 15.22 C1 13.65, 0.66 11.15, 0.73 8.98 C0.79 6.8, 0.93 3.58, 2.37 2.19 C3.81 0.8, 7.94 0.91, 9.39 0.63 C10.84 0.34, 11.1 0.48, 11.07 0.46 M13.27 0.71 C14.95 1.55, 15.61 4.72, 16.27 6.34 C16.92 7.96, 17.45 8.67, 17.2 10.43 C16.95 12.19, 16.39 15.58, 14.76 16.93 C13.12 18.29, 9.3 18.9, 7.4 18.57 C5.5 18.24, 4.82 16.3, 3.37 14.95 C1.91 13.6, -1.05 12.34, -1.33 10.46 C-1.61 8.58, 0.49 5.14, 1.68 3.65 C2.87 2.16, 3.99 1.77, 5.81 1.54 C7.63 1.3, 11.77 2.09, 12.61 2.25 C13.45 2.4, 11.21 2.46, 10.87 2.45" stroke="#4dabf7" stroke-width="2" fill="none"/>
  </g>
  <g stroke-linecap="round">
    <g transform="translate(119.857184056564 180.95123168264854) rotate(0 -0.70989054278499 15.144331579413006)">
      <path d="M-0.29 -0.37 C-0.53 4.42, -1.56 24.83, -1.88 29.96 M1.75 -1.61 C1.35 3.87, -2.82 25.75, -3.08 31.33" stroke="#4dabf7" stroke-width="2" fill="none"/>
    </g>
  </g>
  <g stroke-linecap="round">
    <g transform="translate(121.27696514213403 192.3094803672086) rotate(0 4.495973437638213 -2.129671628354913)">
      <path d="M-0.29 -0.2 C1.15 -0.86, 7.03 -3.55, 8.47 -4.15 M0.94 -0.97 C2.63 -1.46, 8.42 -2.45, 9.89 -3.13" stroke="#4dabf7" stroke-width="2" fill="none"/>
    </g>
  </g>
  <g stroke-linecap="round">
    <g transform="translate(118.91066333285067 193.25600109092147) rotate(0 -4.495973437638241 -2.129671628354913)">
      <path d="M-0.53 0.11 C-2.09 -0.49, -8.34 -3.17, -9.69 -3.81 M0.58 -0.49 C-0.74 -1.29, -6.77 -4.18, -8.35 -4.9" stroke="#4dabf7" stroke-width="2" fill="none"/>
    </g>
  </g>
  <g stroke-linecap="round">
    <g transform="translate(118.43740297099413 213.13293628890142) rotate(0 -3.5494527139249215 2.602931990211573)">
      <path d="M-0.7 0.45 C-1.73 1.4, -5.73 4.92, -6.72 5.79 M0.32 0.03 C-0.73 0.77, -5.91 4.02, -7.11 4.76" stroke="#4dabf7" stroke-width="2" fill="none"/>
    </g>
  </g>
  <g stroke-linecap="round">
    <g transform="translate(119.857184056564 214.55271737447106) rotate(0 3.0761923520682615 1.89304144742664)">
      <path d="M0.38 0.58 C1.6 1.22, 5.77 3.76, 6.61 4.28 M-0.34 0.23 C0.88 0.62, 5.05 2.49, 6.25 3.2" stroke="#4dabf7" stroke-width="2" fill="none"/>
    </g>
  </g>
  <g stroke-linecap="round" transform="translate(11.83241769416918 197.44059829395246) rotate(0 5.389036984228625 5.838123399581036)">
    <path d="M6.2 0.18 C7.41 0.14, 8.24 0.63, 8.92 1.59 C9.6 2.55, 10.14 4.7, 10.27 5.94 C10.39 7.18, 10.09 8.15, 9.67 9.04 C9.25 9.93, 8.82 10.81, 7.76 11.28 C6.71 11.76, 4.49 12.48, 3.35 11.88 C2.21 11.29, 1.31 8.93, 0.93 7.72 C0.54 6.52, 0.89 5.73, 1.05 4.67 C1.21 3.6, 0.83 2.15, 1.88 1.32 C2.92 0.48, 6.5 -0.28, 7.33 -0.33 C8.15 -0.38, 6.94 0.88, 6.83 1.03 M5.77 -1.13 C6.86 -1.7, 8.59 -1.57, 9.44 -0.51 C10.29 0.55, 10.89 3.75, 10.88 5.24 C10.88 6.74, 9.75 7.36, 9.41 8.45 C9.06 9.54, 9.39 11.05, 8.79 11.79 C8.2 12.54, 7.16 13.49, 5.82 12.93 C4.47 12.37, 1.7 9.81, 0.73 8.42 C-0.25 7.03, -0.32 5.6, -0.01 4.6 C0.31 3.59, 2.05 2.95, 2.61 2.39 C3.16 1.83, 3.2 1.48, 3.32 1.24 C3.43 0.99, 2.93 1.22, 3.3 0.93" stroke="#228be6" stroke-width="2" fill="none"/>
  </g>
  <g stroke-linecap="round">
    <g transform="translate(18.18086859102999 208.51806320597802) rotate(0 0.44908641535238303 9.580510194184171)">
      <path d="M0.1 -0.9 C0.14 2.37, 0.93 16.55, 1.1 19.87 M-1.31 1.25 C-1.49 4.15, -0.04 14.95, 0.25 18.13" stroke="#228be6" stroke-width="2" fill="none"/>
    </g>
  </g>
  <g stroke-linecap="round">
    <g transform="translate(16.079508909389233 215.70344585161615) rotate(0 -2.844213963898426 -1.347259246057206)">
      <path d="M0.12 0.45 C-0.81 0.08, -4.59 -2.19, -5.55 -2.77 M-0.73 0.03 C-1.75 -0.17, -5.19 -1.44, -6.08 -1.84" stroke="#228be6" stroke-width="2" fill="none"/>
    </g>
  </g>
  <g stroke-linecap="round">
    <g transform="translate(17.836522500731974 216.30222773875266) rotate(0 2.844213963898426 -1.347259246057206)">
      <path d="M0.13 -0.07 C1.07 -0.66, 4.71 -2.57, 5.74 -3.05 M-0.71 -0.77 C0.12 -1.29, 4.02 -2.03, 5.18 -2.26" stroke="#228be6" stroke-width="2" fill="none"/>
    </g>
  </g>
  <g stroke-linecap="round">
    <g transform="translate(17.541231803407413 228.8766473686194) rotate(0 2.245432076761915 1.6466501896254613)">
      <path d="M0.05 -0.35 C0.89 0.18, 4.41 2.39, 5.16 3.09 M-0.83 1.11 C-0.05 1.75, 4.09 3.68, 4.91 3.95" stroke="#228be6" stroke-width="2" fill="none"/>
    </g>
  </g>
  <g stroke-linecap="round">
    <g transform="translate(16.15965889980282 229.77482019932427) rotate(0 -1.9460411331936598 1.1975637742730214)">
      <path d="M0.67 -0.2 C0.02 0.35, -3.06 2.52, -3.83 2.95 M0.1 -0.97 C-0.65 -0.59, -3.63 1.21, -4.4 1.91" stroke="#228be6" stroke-width="2" fill="none"/>
    </g>
  </g>
  <g stroke-linecap="round" transform="translate(408.4460235580479 44.44059829395246) rotate(0 7.570527260875192 8.201404532614788)">
    <path d="M6.23 -0.85 C7.79 -1.23, 10.68 0.39, 12.09 1.45 C13.5 2.52, 14.14 3.81, 14.68 5.53 C15.22 7.26, 15.8 10.26, 15.33 11.8 C14.85 13.33, 13.27 14.15, 11.83 14.74 C10.39 15.33, 8.39 15.44, 6.71 15.32 C5.03 15.2, 3 15.22, 1.77 14.02 C0.53 12.82, -0.82 9.93, -0.69 8.11 C-0.56 6.3, 0.91 4.35, 2.54 3.15 C4.18 1.95, 8 1.5, 9.13 0.92 C10.25 0.35, 9.47 -0.15, 9.31 -0.31 M12.06 -0.28 C13.56 0.71, 14.95 4.02, 15.22 5.91 C15.49 7.8, 14.42 9.41, 13.7 11.05 C12.98 12.69, 11.81 14.9, 10.9 15.75 C9.99 16.59, 9.77 16.36, 8.24 16.13 C6.71 15.9, 3 15.55, 1.71 14.35 C0.43 13.14, 0.44 10.69, 0.55 8.89 C0.66 7.09, 1.39 5.14, 2.4 3.53 C3.42 1.93, 5.06 -0.08, 6.64 -0.73 C8.22 -1.39, 10.98 -0.86, 11.89 -0.4 C12.81 0.06, 12.11 1.91, 12.1 2" stroke="#4dabf7" stroke-width="2" fill="none"/>
  </g>
  <g stroke-linecap="round">
    <g transform="translate(416.85772051457593 60.84340735918204) rotate(0 -0.6308772717395992 13.45871513044483)">
      <path d="M-0.26 0.12 C-0.54 4.49, -0.19 21.77, -0.54 26.3 M1.8 -0.86 C1.33 3.65, -0.8 23.18, -1.1 27.52" stroke="#4dabf7" stroke-width="2" fill="none"/>
    </g>
  </g>
  <g stroke-linecap="round">
    <g transform="translate(418.1194750580551 70.93744370701575) rotate(0 3.9955560543507964 -1.892631815218806)">
      <path d="M0.46 -0.39 C1.7 -0.99, 6.04 -2.96, 7.31 -3.54 M-0.22 1.05 C1.26 0.21, 7.35 -4.05, 8.65 -4.75" stroke="#4dabf7" stroke-width="2" fill="none"/>
    </g>
  </g>
  <g stroke-linecap="round">
    <g transform="translate(416.0165508189231 71.7786134026685) rotate(0 -3.9955560543507964 -1.892631815218806)">
      <path d="M-0.68 0.24 C-2.08 -0.35, -6.67 -3.34, -7.93 -3.91 M0.34 -0.29 C-1.19 -0.73, -6.96 -2.34, -8.5 -3.01" stroke="#4dabf7" stroke-width="2" fill="none"/>
    </g>
  </g>
  <g stroke-linecap="round">
    <g transform="translate(415.5959659710967 89.02259216355083) rotate(0 -3.1543863586979963 2.313216663045182)">
      <path d="M0.06 -0.12 C-0.93 0.71, -5.56 4.34, -6.59 5.25 M-0.83 -0.84 C-1.88 -0.23, -6.39 3.4, -7.32 4.24" stroke="#4dabf7" stroke-width="2" fill="none"/>
    </g>
  </g>
  <g stroke-linecap="round">
    <g transform="translate(417.2783053624023 90.70493155485656) rotate(0 2.733801510871597 1.682339391305618)">
      <path d="M-0.28 0.62 C0.66 1.32, 4.84 3.47, 5.69 4.05 M0.96 0.29 C1.81 0.8, 4.32 2.63, 5.22 3.07" stroke="#4dabf7" stroke-width="2" fill="none"/>
    </g>
  </g>
  <g stroke-linecap="round" transform="translate(529.6524141492038 35.7462309886364) rotate(0 5.174143682574858 5.605322322789448)">
    <path d="M7.21 -0.24 C8.01 -0.2, 8.11 1.04, 8.49 2.21 C8.87 3.38, 9.37 5.72, 9.48 6.8 C9.59 7.88, 9.63 8.08, 9.15 8.69 C8.67 9.29, 7.63 10.03, 6.58 10.42 C5.53 10.8, 4.03 11.45, 2.85 10.99 C1.67 10.53, -0.02 8.81, -0.53 7.63 C-1.03 6.45, -0.9 5.11, -0.18 3.92 C0.55 2.72, 2.66 1.01, 3.81 0.47 C4.96 -0.07, 6.04 0.6, 6.72 0.67 C7.4 0.73, 7.79 0.8, 7.91 0.86 M5.4 1.48 C6.75 1.78, 9.91 3.16, 10.5 3.76 C11.08 4.36, 8.96 4.19, 8.9 5.08 C8.84 5.97, 10.54 8.13, 10.15 9.09 C9.76 10.06, 7.93 10.74, 6.56 10.87 C5.19 11, 3.14 10.68, 1.92 9.88 C0.7 9.07, -0.29 7.23, -0.76 6.06 C-1.23 4.88, -1.47 3.98, -0.9 2.81 C-0.33 1.64, 1.2 -0.59, 2.66 -0.97 C4.11 -1.35, 7.03 0.2, 7.82 0.52 C8.61 0.84, 7.78 1.13, 7.39 0.95" stroke="#1971c2" stroke-width="2" fill="none"/>
  </g>
  <g stroke-linecap="round">
    <g transform="translate(535.1140102585883 46.66942320740554) rotate(0 -0.43117864021456853 9.198477657910871)">
      <path d="M0.54 0.74 C0.71 3.89, 0.5 16.68, 0.19 19.46 M-0.64 0.08 C-0.46 2.88, 0.08 14.87, -0.2 17.9" stroke="#1971c2" stroke-width="2" fill="none"/>
    </g>
  </g>
  <g stroke-linecap="round">
    <g transform="translate(535.9763675390175 53.28082902402889) rotate(0 2.7307980546922863 -1.2935359206437624)">
      <path d="M0.66 0.67 C1.47 0.06, 4.38 -2.55, 5.18 -3.2 M0.09 0.36 C0.75 -0.21, 3.62 -2.03, 4.44 -2.55" stroke="#1971c2" stroke-width="2" fill="none"/>
    </g>
  </g>
  <g stroke-linecap="round">
    <g transform="translate(534.5391054049688 53.85573387764839) rotate(0 -2.7307980546922863 -1.2935359206437624)">
      <path d="M-0.28 -0.61 C-1.31 -1.26, -4.72 -2.93, -5.47 -3.24 M0.95 0.71 C-0.23 0.46, -5.09 -2.23, -6.06 -2.61" stroke="#1971c2" stroke-width="2" fill="none"/>
    </g>
  </g>
  <g stroke-linecap="round">
    <g transform="translate(534.2516529781592 65.92873580365631) rotate(0 -2.155893201072857 1.580988347453399)">
      <path d="M0 -0.65 C-0.56 0, -2.81 2.57, -3.62 3.3 M-0.92 0.65 C-1.49 1.11, -3.45 1.72, -3.85 2.04" stroke="#1971c2" stroke-width="2" fill="none"/>
    </g>
  </g>
  <g stroke-linecap="round">
    <g transform="translate(535.401462685398 66.79109308408533) rotate(0 1.8684407742631421 1.1498097072388873)">
      <path d="M0.69 0.14 C1.22 0.72, 2.78 2.45, 3.19 2.87 M0.14 -0.45 C0.91 -0.01, 3.84 1.54, 4.6 1.84" stroke="#1971c2" stroke-width="2" fill="none"/>
    </g>
  </g>
  <g stroke-linecap="round">
    <g transform="translate(291.4328362797221 160) rotate(0 23 -12)">
      <path d="M0.11 0.19 C7.52 -3.89, 37.65 -19.46, 45.47 -23.5 M-1.29 -0.76 C5.83 -5.28, 36.23 -21.7, 44.24 -25.36" stroke="#ffd43b" stroke-width="2" fill="none"/>
    </g>
  </g>
  <g stroke-linecap="round">
    <g transform="translate(289.4328362797221 178) rotate(0 16 7)">
      <path d="M-0.24 0.23 C5.16 2.55, 27.02 11.62, 32.47 13.99 M0.63 -0.13 C6 2.27, 26.99 12.39, 32.29 14.68" stroke="#ffd43b" stroke-width="2" fill="none"/>
    </g>
  </g>
  <g stroke-linecap="round">
    <g transform="translate(186.43283627972207 162) rotate(0 -26.999999999999986 18.5)">
      <path d="M1.04 -0.03 C-7.7 6.21, -43.64 31.72, -52.94 37.94 M0.12 -1.09 C-8.63 4.79, -44.59 29.67, -53.32 36.32" stroke="#ffd43b" stroke-width="2" fill="none"/>
    </g>
  </g>
  <g stroke-linecap="round">
    <g transform="translate(248.4328362797221 166) rotate(0 -14.5 -5)">
      <path d="M-1.04 -0.92 C-5.86 -2.91, -23.89 -9.08, -28.58 -10.76 M0.61 1.21 C-4.35 -0.14, -24.2 -7.71, -29.31 -9.62" stroke="#ffd43b" stroke-width="2" fill="none"/>
    </g>
  </g>
  <g stroke-linecap="round">
    <g transform="translate(104.4328362797221 204) rotate(0 -30.5 5.5)">
      <path d="M1.06 0.94 C-9.4 2.84, -51.31 9.6, -61.76 11.33 M0.16 0.4 C-10.01 1.91, -48.97 7.32, -59.44 9.37" stroke="#ffd43b" stroke-width="2" fill="none"/>
    </g>
  </g>
  <g stroke-linecap="round">
    <g transform="translate(366.4328362797221 113) rotate(0 21 -17.5)">
      <path d="M-0.76 0.33 C5.97 -5.62, 34.37 -28.98, 41.4 -34.72 M1.05 -0.55 C8.08 -6.96, 37.25 -30.8, 43.79 -36.7" stroke="#ffd43b" stroke-width="2" fill="none"/>
    </g>
  </g>
  <g stroke-linecap="round" transform="translate(237.67333697706937 245.44059829395246) rotate(0 7.240326084452207 7.843686591489927)">
    <path d="M7.19 0.98 C8.66 0.93, 10.72 0.21, 12.02 1.14 C13.33 2.06, 14.8 4.88, 15.04 6.54 C15.28 8.2, 14.53 9.73, 13.45 11.12 C12.38 12.5, 10.04 14.33, 8.59 14.86 C7.14 15.39, 6.1 14.85, 4.77 14.3 C3.45 13.75, 1.58 13, 0.65 11.56 C-0.27 10.13, -1.2 7.25, -0.75 5.67 C-0.31 4.09, 1.6 2.86, 3.32 2.08 C5.04 1.3, 8.57 1.25, 9.54 0.99 C10.51 0.73, 9.14 0.61, 9.14 0.53 M6.8 -0.94 C8.17 -0.88, 11.68 2.08, 13.17 3.53 C14.66 4.97, 15.54 6.05, 15.73 7.74 C15.93 9.44, 15.29 12.17, 14.33 13.69 C13.38 15.21, 11.52 16.63, 9.98 16.85 C8.44 17.07, 6.49 15.78, 5.1 15.01 C3.7 14.23, 2.39 13.82, 1.59 12.18 C0.79 10.55, 0.19 7.05, 0.32 5.2 C0.45 3.34, 0.84 2, 2.36 1.05 C3.89 0.1, 8.64 -0.17, 9.46 -0.51 C10.27 -0.84, 7.72 -1.07, 7.24 -0.95" stroke="#2f9e44" stroke-width="2" fill="none"/>
  </g>
  <g stroke-linecap="round">
    <g transform="translate(246.52262441362205 261.1279714769323) rotate(0 -0.603360507037678 12.871690816803948)">
      <path d="M0.12 -0.13 C-0.29 4.06, -2.13 20.97, -2.16 25.25 M-1.28 -1.24 C-1.34 3.1, -0.13 21.86, 0.05 26.53" stroke="#2f9e44" stroke-width="2" fill="none"/>
    </g>
  </g>
  <g stroke-linecap="round">
    <g transform="translate(246.9248647516472 270.37949925150997) rotate(0 3.821283211238665 -1.8100815211130339)">
      <path d="M-0.6 -0.31 C0.78 -0.92, 7.12 -3.25, 8.37 -3.72 M0.47 -1.13 C1.81 -1.61, 6.84 -2.27, 8.16 -2.81" stroke="#2f9e44" stroke-width="2" fill="none"/>
    </g>
  </g>
  <g stroke-linecap="round">
    <g transform="translate(245.7181437375718 271.18397992756036) rotate(0 -3.821283211238665 -1.8100815211130339)">
      <path d="M0.73 -0.1 C-0.56 -0.58, -6.93 -2.59, -8.36 -3.15 M0.2 -0.81 C-0.82 -1.47, -5.59 -3.94, -7.04 -4.24" stroke="#2f9e44" stroke-width="2" fill="none"/>
    </g>
  </g>
  <g stroke-linecap="round">
    <g transform="translate(245.3159033995467 288.07807412461557) rotate(0 -3.0168025351884182 2.2123218591382283)">
      <path d="M-0.72 0.47 C-1.89 1.24, -5.27 3.96, -6.28 4.52 M0.28 0.05 C-1.07 0.97, -6.06 4.82, -7 5.54" stroke="#2f9e44" stroke-width="2" fill="none"/>
    </g>
  </g>
  <g stroke-linecap="round">
    <g transform="translate(246.9248647516472 289.2847951386909) rotate(0 2.614562197163295 1.6089613521004367)">
      <path d="M-0.25 0.1 C0.62 0.46, 3.64 2.06, 4.49 2.62 M1.01 -0.51 C2.16 -0.11, 5.27 2.83, 5.81 3.28" stroke="#2f9e44" stroke-width="2" fill="none"/>
    </g>
  </g>
  <g stroke-linecap="round">
    <g transform="translate(331.4328362797221 211) rotate(0 -32.5 30.5)">
      <path d="M-0.6 0.28 C-11.41 10.54, -54.71 51.96, -65.6 61.91 M1.28 -0.62 C-9.06 9.29, -52.4 50.04, -63.2 60.26" stroke="#ffd43b" stroke-width="2" fill="none"/>
    </g>
  </g>
  <g stroke-linecap="round">
    <g transform="translate(143.4328362797221 218) rotate(0 37.5 22.5)">
      <path d="M-0.6 0.91 C11.86 8.18, 61.54 36.65, 74.11 43.94 M1.29 0.33 C14.17 7.7, 64.24 37.35, 76.35 44.92" stroke="#ffd43b" stroke-width="2" fill="none"/>
    </g>
  </g>
  <g stroke-linecap="round" transform="translate(155.4328362797221 81) rotate(0 121 72)">
    <path d="M57.4 10.25 C69.14 4.3, 87.63 1, 102.72 -0.14 C117.81 -1.28, 132.9 0.81, 147.95 3.4 C163 6, 180.5 10.48, 193.02 15.43 C205.55 20.37, 215.03 25.38, 223.11 33.06 C231.19 40.73, 238.66 52.06, 241.48 61.48 C244.29 70.9, 243.68 80.54, 240.02 89.58 C236.35 98.62, 228.94 108.72, 219.46 115.74 C209.98 122.76, 196.33 126.93, 183.16 131.69 C169.98 136.44, 155.02 142.37, 140.42 144.27 C125.82 146.18, 110.51 145.49, 95.55 143.1 C80.59 140.71, 63.52 135.48, 50.64 129.95 C37.76 124.42, 26.65 117.52, 18.26 109.93 C9.87 102.33, 2.51 93.77, 0.3 84.41 C-1.9 75.04, 1.33 62.83, 5.03 53.73 C8.73 44.63, 11.79 37.58, 22.5 29.79 C33.21 22, 59.48 11.03, 69.3 6.98 C79.11 2.92, 81.02 4.27, 81.4 5.47 M83.06 3.79 C97.05 -0.71, 115.27 -3.04, 129.98 -2.54 C144.69 -2.05, 157.49 2, 171.32 6.77 C185.16 11.55, 201.87 19.02, 212.99 26.13 C224.11 33.24, 233.65 40.58, 238.05 49.43 C242.45 58.29, 240.55 70.32, 239.38 79.26 C238.21 88.21, 237.25 95.2, 231.04 103.12 C224.84 111.04, 213.42 120.86, 202.16 126.8 C190.9 132.73, 178.43 135.99, 163.46 138.73 C148.5 141.48, 128.48 143.61, 112.39 143.25 C96.3 142.9, 80.6 140.19, 66.92 136.61 C53.24 133.03, 40.34 128.54, 30.3 121.79 C20.27 115.03, 11.4 105.47, 6.74 96.07 C2.07 86.66, 1.56 74.14, 2.3 65.35 C3.04 56.55, 4.68 51.28, 11.19 43.29 C17.69 35.31, 29.29 24.28, 41.33 17.43 C53.37 10.58, 77.08 4.37, 83.45 2.2 C89.81 0.03, 78.78 2.76, 79.53 4.41" stroke="#fd7e14" stroke-width="2" fill="none"/>
  </g>
  <g stroke-linecap="round" transform="translate(52.432836279722096 10) rotate(0 237.5 147.5)">
    <path d="M113.96 19.44 C129.49 11.13, 154.36 8.71, 174.72 5.79 C195.09 2.88, 215.22 2.18, 236.12 1.95 C257.03 1.72, 279.06 0.96, 300.16 4.39 C321.26 7.82, 343.9 15.5, 362.74 22.53 C381.58 29.56, 399.02 36.75, 413.21 46.56 C427.39 56.37, 438.49 69.38, 447.87 81.37 C457.24 93.36, 465.34 105.71, 469.44 118.5 C473.54 131.29, 473.61 145.02, 472.46 158.1 C471.32 171.18, 469.7 184.22, 462.59 196.98 C455.47 209.75, 442.3 223.94, 429.78 234.67 C417.27 245.4, 403.52 253.14, 387.48 261.36 C371.45 269.59, 353.26 278.53, 333.57 284.01 C313.88 289.5, 290.87 292.54, 269.34 294.26 C247.81 295.99, 225.37 296.57, 204.4 294.38 C183.42 292.2, 162.99 286.27, 143.47 281.14 C123.95 276, 103.96 271.97, 87.26 263.59 C70.56 255.22, 55.37 241.84, 43.29 230.9 C31.22 219.95, 22.07 210.25, 14.79 197.94 C7.51 185.63, 1.53 170.77, -0.39 157.03 C-2.3 143.29, -1.13 128.45, 3.29 115.5 C7.72 102.55, 15.95 90.79, 26.16 79.31 C36.36 67.83, 35.08 59.9, 64.51 46.62 C93.94 33.34, 163.95 6.15, 202.74 -0.39 C241.53 -6.93, 296.32 4.54, 297.27 7.37 M315.78 7.9 C336.74 10.02, 359.66 22.48, 377.89 30.37 C396.12 38.27, 412.54 45.71, 425.15 55.29 C437.77 64.86, 446.06 76.15, 453.57 87.85 C461.08 99.55, 467.12 112, 470.21 125.51 C473.3 139.01, 475.13 155.5, 472.11 168.87 C469.08 182.25, 460.85 193.88, 452.05 205.76 C443.26 217.64, 432.12 229.41, 419.34 240.16 C406.56 250.9, 392.56 262.37, 375.36 270.23 C358.17 278.09, 337.08 283.04, 316.17 287.3 C295.26 291.56, 271.39 294.65, 249.9 295.76 C228.4 296.87, 207.41 297.25, 187.19 293.97 C166.96 290.69, 147.63 282.61, 128.55 276.08 C109.48 269.54, 88.48 263.94, 72.74 254.76 C56.99 245.58, 44.72 232.67, 34.11 220.98 C23.5 209.28, 14.83 197.09, 9.08 184.58 C3.33 172.08, -0.51 158.96, -0.39 145.95 C-0.28 132.95, 4.13 119.13, 9.78 106.55 C15.42 93.98, 22.58 82.08, 33.47 70.52 C44.36 58.96, 58.77 46.49, 75.13 37.19 C91.48 27.89, 112.61 20.81, 131.62 14.72 C150.63 8.64, 168.88 2.85, 189.19 0.67 C209.5 -1.5, 232.25 0.43, 253.48 1.66 C274.7 2.9, 306.1 6.71, 316.54 8.09 C326.98 9.48, 317.44 7.16, 316.12 9.96" stroke="#ffa94d" stroke-width="2" fill="none"/>
  </g>
  <g stroke-linecap="round">
    <g transform="translate(432.4328362797221 68) rotate(0 43.5 -7.5)">
      <path d="M1.11 0.19 C15.52 -2.17, 72.86 -12.52, 86.98 -15.21 M0.23 -0.75 C14.44 -2.84, 71.38 -11.38, 86.02 -13.79" stroke="#ffd43b" stroke-width="2" fill="none"/>
    </g>
  </g>
  <g stroke-linecap="round" transform="translate(232.4328362797221 117) rotate(0 37 44.5)">
    <path d="M13.4 8.53 C18.39 3.25, 28.1 0.58, 34.6 -0.32 C41.1 -1.22, 46.78 -0.72, 52.41 3.12 C58.04 6.95, 64.48 15.2, 68.38 22.68 C72.28 30.16, 76.02 39.88, 75.79 47.98 C75.56 56.08, 71.33 64.75, 67.01 71.29 C62.68 77.84, 56.23 84.06, 49.84 87.23 C43.44 90.39, 35.19 91.88, 28.63 90.27 C22.08 88.67, 15.1 83.23, 10.5 77.6 C5.9 71.97, 2.41 64.69, 1.02 56.5 C-0.38 48.31, -1.46 37.3, 2.14 28.45 C5.75 19.6, 17.15 8, 22.63 3.38 C28.11 -1.23, 34.82 0.32, 35 0.78 M11.34 10.93 C15.41 5.07, 22.88 0.9, 29.12 -0.84 C35.36 -2.58, 42.86 -2.65, 48.77 0.5 C54.68 3.66, 60.77 10.92, 64.58 18.07 C68.4 25.22, 70.86 35.28, 71.66 43.42 C72.45 51.55, 72.18 59.84, 69.34 66.88 C66.51 73.93, 60.29 81.66, 54.65 85.7 C49.02 89.75, 41.96 92.78, 35.53 91.17 C29.1 89.56, 21.62 81.95, 16.08 76.06 C10.54 70.17, 5.17 63.29, 2.3 55.83 C-0.57 48.37, -2.38 38.38, -1.12 31.31 C0.14 24.23, 7.48 16.27, 9.85 13.37 C12.21 10.48, 11.86 13.31, 13.06 13.94" stroke="#e8590c" stroke-width="2" fill="none"/>
  </g>
  <mask/>
  <mask/>
  <mask/>
  <mask/>
  <mask/>
  <mask/>
  <mask/>
  <mask/>
  <mask/>
  <mask/>
  <mask/>
  <mask/>
  <mask/>
  <mask/>
  <mask/>
  <mask/>
  <mask/>
  <mask/>
  <mask/>
  <mask/>
  <mask/>
  <mask/>
  <mask/>
  <mask/>
  <mask/>
  <mask/>
  <mask/>
  <mask/>
  <mask/>
  <mask/>
  <mask/>
  <mask/>
  <mask/>
  <mask/>
  <mask/>
  <mask/>
  <mask/>
  <mask/>
  <mask/>
  <mask/>
  <mask/>
  <mask/>
  <mask/>
  <mask/>
  <mask/>
  <mask/>
  <mask/>
  <mask/>
  <mask/>
  <mask/>
  <mask/>
  <mask/>
  <mask/>
  <mask/>
</svg>