<?xml version="1.0" encoding="UTF-8" standalone="yes"?>
<svg version="1.1" xmlns="http://www.w3.org/2000/svg" viewBox="0 0 536.3647474389895 493.77683376196774" width="1072.729494877979" height="987.5536675239355">
  <defs>
    <style class="style-fonts">
      @font-face {
        font-family: "Virgil";
        src: url("https://excalidraw.com/Virgil.woff2");
      }
      @font-face {
        font-family: "Cascadia";
        src: url("https://excalidraw.com/Cascadia.woff2");
      }
      @font-face {
        font-family: "Assistant";
        src: url("https://excalidraw.com/Assistant-Regular.woff2");
      }
    </style>
  </defs>
  <g stroke-linecap="round" transform="translate(127.48956808184266 55.55940170604754) rotate(0 18 19.5)">
    <path d="M22.15 0.17 C25.83 1.02, 31.41 4.92, 33.7 8.49 C35.99 12.05, 36.49 17.41, 35.89 21.57 C35.29 25.72, 32.81 30.64, 30.11 33.43 C27.41 36.22, 23.4 38.11, 19.69 38.3 C15.97 38.5, 10.88 36.9, 7.83 34.6 C4.78 32.29, 2.46 28.5, 1.39 24.5 C0.32 20.49, 0.02 14.37, 1.4 10.56 C2.78 6.75, 6.05 3.13, 9.68 1.65 C13.31 0.18, 20.65 1.69, 23.19 1.73 C25.72 1.78, 24.76 1.67, 24.9 1.94 M11.16 1.79 C14.35 0.01, 20.24 -1.56, 24.21 0.02 C28.19 1.6, 33.35 7.62, 35.03 11.27 C36.7 14.92, 35.11 17.8, 34.28 21.92 C33.45 26.05, 32.63 33.36, 30.03 36 C27.44 38.64, 22.6 38.18, 18.71 37.77 C14.81 37.36, 9.91 36.27, 6.68 33.51 C3.44 30.75, -0.15 25, -0.71 21.2 C-1.27 17.4, 1.33 13.91, 3.31 10.71 C5.3 7.51, 9.69 3.68, 11.18 2 C12.67 0.33, 12.22 0.38, 12.27 0.69" stroke="#0c8599" stroke-width="2" fill="none"/>
  </g>
  <g stroke-linecap="round">
    <g transform="translate(147.48956808184266 94.55940170604754) rotate(0 -1.5 32)">
      <path d="M-1.77 -2.68 C-2.15 8.59, -1.05 54.8, -1.53 66.2 M2.47 2.03 C1.77 12.67, -2.78 52.54, -2.97 62.38" stroke="#0c8599" stroke-width="2" fill="none"/>
    </g>
  </g>
  <g stroke-linecap="round">
    <g transform="translate(150.48956808184266 117.55940170604754) rotate(0 9.5 -4.5)">
      <path d="M-0.95 -1.09 C1.89 -2.63, 14.5 -7.65, 17.87 -8.86 M0.76 0.95 C3.87 -0.41, 17.01 -5.37, 19.99 -7.24" stroke="#0c8599" stroke-width="2" fill="none"/>
    </g>
  </g>
  <g stroke-linecap="round">
    <g transform="translate(145.48956808184266 119.55940170604754) rotate(0 -9.5 -4.5)">
      <path d="M-0.99 -1.07 C-4.02 -2.69, -15.99 -7.75, -18.8 -9.23 M0.69 0.99 C-2.43 -0.5, -16.52 -6.12, -19.65 -7.82" stroke="#0c8599" stroke-width="2" fill="none"/>
    </g>
  </g>
  <g stroke-linecap="round">
    <g transform="translate(144.48956808184266 161.55940170604754) rotate(0 -7.5 5.5)">
      <path d="M0.21 0.59 C-2.23 2.51, -12.05 10.17, -14.46 11.75 M-1.14 -0.15 C-3.7 1.41, -12.88 8.17, -15.12 10.02" stroke="#0c8599" stroke-width="2" fill="none"/>
    </g>
  </g>
  <g stroke-linecap="round">
    <g transform="translate(148.48956808184266 164.55940170604754) rotate(0 6.5 4)">
      <path d="M0.87 -0.75 C3.16 0.7, 11.82 7.48, 14 9.12 M-0.13 1.47 C2.07 2.57, 11.27 6.61, 13.58 7.58" stroke="#0c8599" stroke-width="2" fill="none"/>
    </g>
  </g>
  <g stroke-linecap="round" transform="translate(247.8168153271451 148) rotate(0 18 19.5)">
    <path d="M24.01 1.34 C27.36 2.29, 30.27 5.11, 32.42 8.61 C34.56 12.12, 37.15 18.13, 36.87 22.35 C36.59 26.58, 33.63 31.02, 30.71 33.95 C27.79 36.88, 23.1 39.61, 19.35 39.94 C15.59 40.28, 11.36 38.58, 8.19 35.96 C5.02 33.34, 1.51 28.55, 0.35 24.23 C-0.82 19.92, -0.59 13.82, 1.19 10.09 C2.97 6.36, 7.3 3.26, 11.03 1.85 C14.76 0.44, 21.22 1.77, 23.55 1.65 C25.89 1.53, 24.96 0.79, 25.02 1.13 M17.21 1.07 C20.81 0.96, 27.26 1.35, 30.22 3.98 C33.19 6.61, 34.58 12.82, 35 16.88 C35.43 20.93, 34.8 24.94, 32.75 28.32 C30.7 31.71, 26.29 35.87, 22.7 37.2 C19.11 38.53, 14.55 37.6, 11.19 36.31 C7.83 35.02, 4.41 32.99, 2.53 29.47 C0.65 25.95, -0.56 19.59, -0.11 15.18 C0.33 10.78, 1.97 5.48, 5.2 3.01 C8.44 0.55, 17.04 0.88, 19.3 0.39 C21.56 -0.11, 19.15 -0.4, 18.76 0.02" stroke="#1e1e1e" stroke-width="2" fill="none"/>
  </g>
  <g stroke-linecap="round">
    <g transform="translate(267.8168153271451 187) rotate(0 -1.5 32)">
      <path d="M1.63 2.02 C0.83 13.45, -3.85 56.31, -4.38 66.34 M-0.93 0.64 C-0.82 11.54, 1.55 51.98, 1.27 62.61" stroke="#1e1e1e" stroke-width="2" fill="none"/>
    </g>
  </g>
  <g stroke-linecap="round">
    <g transform="translate(270.8168153271451 210) rotate(0 9.5 -4.5)">
      <path d="M-0.59 1 C2.56 -0.76, 16.39 -8.28, 19.62 -9.75 M1.3 0.49 C4.29 -1.22, 16.23 -6.94, 19 -8.61" stroke="#1e1e1e" stroke-width="2" fill="none"/>
    </g>
  </g>
  <g stroke-linecap="round">
    <g transform="translate(265.8168153271451 212) rotate(0 -9.5 -4.5)">
      <path d="M0.62 -0.75 C-2.48 -2.22, -16.06 -6.51, -19.22 -7.81 M-0.51 1.47 C-3.74 0.22, -17.24 -7.28, -20.28 -9.3" stroke="#1e1e1e" stroke-width="2" fill="none"/>
    </g>
  </g>
  <g stroke-linecap="round">
    <g transform="translate(264.8168153271451 254) rotate(0 -7.5 5.5)">
      <path d="M-0.22 1.19 C-2.7 3.22, -11.89 9.74, -14.31 11.44 M-1.79 0.77 C-4.43 2.5, -12.64 8.14, -14.89 9.55" stroke="#1e1e1e" stroke-width="2" fill="none"/>
    </g>
  </g>
  <g stroke-linecap="round">
    <g transform="translate(268.8168153271451 257) rotate(0 6.5 4)">
      <path d="M0.69 0.44 C2.95 1.64, 11.07 6.92, 13.31 8.37 M-0.4 -0.37 C1.74 0.96, 10.13 5.15, 12.53 6.45" stroke="#1e1e1e" stroke-width="2" fill="none"/>
    </g>
  </g>
  <g stroke-linecap="round" transform="translate(355.8168153271451 54) rotate(0 18 19.5)">
    <path d="M21.43 -0.56 C25.09 -0.33, 28.9 3.16, 31.44 6.32 C33.98 9.49, 36.64 14.33, 36.67 18.43 C36.71 22.52, 34.16 27.56, 31.66 30.88 C29.17 34.21, 25.25 37.34, 21.68 38.36 C18.11 39.37, 13.5 39.03, 10.23 36.97 C6.97 34.9, 3.64 30.05, 2.1 25.98 C0.57 21.91, -0.16 16.26, 1.03 12.54 C2.22 8.82, 5.92 5.63, 9.27 3.64 C12.62 1.65, 18.79 1.16, 21.11 0.6 C23.43 0.05, 23.08 -0.02, 23.18 0.31 M15.17 0.67 C18.72 -0.58, 24.9 -0.31, 27.93 1.85 C30.97 4.01, 32.28 9.41, 33.38 13.62 C34.49 17.82, 35.59 23.4, 34.55 27.06 C33.51 30.72, 30.42 33.7, 27.14 35.59 C23.87 37.48, 18.81 38.88, 14.88 38.4 C10.95 37.92, 6.27 35.63, 3.56 32.73 C0.85 29.84, -1.54 25.07, -1.37 21.05 C-1.2 17.03, 1.83 11.9, 4.59 8.63 C7.35 5.35, 13.81 2.72, 15.19 1.4 C16.58 0.07, 12.94 0.45, 12.89 0.67" stroke="#2f9e44" stroke-width="2" fill="none"/>
  </g>
  <g stroke-linecap="round">
    <g transform="translate(375.8168153271451 93) rotate(0 -1.5 32)">
      <path d="M0.82 -0.14 C0.59 11.2, -0.76 55.55, -1.76 66.22 M-2.17 -2.68 C-2.63 8.06, -3.77 50.81, -3.32 62.42" stroke="#2f9e44" stroke-width="2" fill="none"/>
    </g>
  </g>
  <g stroke-linecap="round">
    <g transform="translate(378.8168153271451 116) rotate(0 9.5 -4.5)">
      <path d="M0.53 0.95 C3.49 -0.54, 15.05 -7.51, 18.08 -9.03 M-0.65 0.41 C2.65 -0.88, 17.24 -5.76, 20.31 -7.51" stroke="#2f9e44" stroke-width="2" fill="none"/>
    </g>
  </g>
  <g stroke-linecap="round">
    <g transform="translate(373.8168153271451 118) rotate(0 -9.5 -4.5)">
      <path d="M-0.92 -0.03 C-4.22 -1.55, -16.17 -6.6, -19.29 -8.18 M0.8 -1.09 C-2.73 -3.03, -16.79 -8.65, -20.38 -9.88" stroke="#2f9e44" stroke-width="2" fill="none"/>
    </g>
  </g>
  <g stroke-linecap="round">
    <g transform="translate(372.8168153271451 160) rotate(0 -7.5 5.5)">
      <path d="M-0.29 0.82 C-2.74 2.57, -13.05 8.76, -15.65 10.48 M1.76 0.2 C-0.21 2.11, -10.74 9.7, -13.27 11.74" stroke="#2f9e44" stroke-width="2" fill="none"/>
    </g>
  </g>
  <g stroke-linecap="round">
    <g transform="translate(376.8168153271451 163) rotate(0 6.5 4)">
      <path d="M-0.65 -0.52 C1.42 0.69, 9.89 6.51, 12.12 8.09 M1.21 1.82 C3.68 3.17, 12.6 8.78, 14.36 9.67" stroke="#2f9e44" stroke-width="2" fill="none"/>
    </g>
  </g>
  <g stroke-linecap="round" transform="translate(353.8168153271451 279) rotate(0 18 19.5)">
    <path d="M24.25 1.31 C27.51 2.59, 30.74 6.39, 32.7 9.9 C34.65 13.42, 36.35 18.26, 35.98 22.42 C35.62 26.58, 33.41 32.07, 30.51 34.86 C27.62 37.65, 22.48 39.28, 18.63 39.17 C14.78 39.06, 10.64 36.72, 7.43 34.17 C4.23 31.62, 0.31 27.76, -0.6 23.86 C-1.5 19.96, -0.01 14.62, 2.02 10.79 C4.04 6.96, 7.78 2.47, 11.56 0.88 C15.34 -0.7, 22.42 1.03, 24.69 1.3 C26.96 1.58, 25.37 2.09, 25.16 2.53 M23.47 -0.85 C26.86 -0.21, 30.37 4.68, 32.51 8.43 C34.65 12.18, 36.41 17.48, 36.32 21.66 C36.22 25.84, 34.67 30.81, 31.92 33.5 C29.18 36.19, 23.84 37.29, 19.87 37.79 C15.89 38.28, 11.22 38.67, 8.07 36.47 C4.91 34.27, 1.98 28.87, 0.92 24.58 C-0.13 20.29, -0.05 14.58, 1.72 10.73 C3.49 6.89, 8.08 3, 11.56 1.5 C15.04 0, 20.83 1.81, 22.6 1.72 C24.38 1.64, 22.15 0.8, 22.22 1" stroke="#2f9e44" stroke-width="2" fill="none"/>
  </g>
  <g stroke-linecap="round">
    <g transform="translate(373.8168153271451 317) rotate(0 -1.5 32)">
      <path d="M1.94 2.12 C1.02 13.22, -4.45 54.48, -5.2 64.39 M-0.45 0.79 C-0.53 12.62, 0.63 57.81, 0.01 68.24" stroke="#2f9e44" stroke-width="2" fill="none"/>
    </g>
  </g>
  <g stroke-linecap="round">
    <g transform="translate(376.8168153271451 340) rotate(0 9.5 -4.5)">
      <path d="M-0.94 0.17 C2.12 -1.66, 15.82 -8.56, 19.19 -10.04 M0.77 -0.79 C3.61 -2.58, 15.36 -7.98, 18.33 -9.05" stroke="#2f9e44" stroke-width="2" fill="none"/>
    </g>
  </g>
  <g stroke-linecap="round">
    <g transform="translate(371.8168153271451 342) rotate(0 -9.5 -4.5)">
      <path d="M0.19 -1.04 C-2.78 -2.52, -15.48 -7.56, -18.76 -8.7 M-1.18 1.03 C-4.2 -0.84, -16.36 -8.88, -19.59 -10.67" stroke="#2f9e44" stroke-width="2" fill="none"/>
    </g>
  </g>
  <g stroke-linecap="round">
    <g transform="translate(370.8168153271451 384) rotate(0 -7.5 5.5)">
      <path d="M0.24 0.3 C-2.38 2.49, -13.05 10.19, -15.5 12.09 M-1.1 -0.59 C-3.93 1.38, -14.4 8.82, -16.71 10.54" stroke="#2f9e44" stroke-width="2" fill="none"/>
    </g>
  </g>
  <g stroke-linecap="round">
    <g transform="translate(374.8168153271451 387) rotate(0 6.5 4)">
      <path d="M-0.5 1.09 C1.72 2.49, 11.26 7.36, 13.54 8.7 M1.44 0.62 C3.53 1.65, 11.03 5.81, 12.88 6.95" stroke="#2f9e44" stroke-width="2" fill="none"/>
    </g>
  </g>
  <g stroke-linecap="round" transform="translate(138.81681532714515 311) rotate(0 18 19.5)">
    <path d="M15.54 -0.55 C19.22 -1.37, 24.56 -0.25, 27.94 2.22 C31.32 4.7, 34.58 10.05, 35.81 14.3 C37.05 18.55, 36.84 24.12, 35.34 27.72 C33.84 31.32, 30.4 34.07, 26.82 35.89 C23.24 37.72, 17.69 39.38, 13.86 38.68 C10.04 37.98, 6.06 35, 3.87 31.67 C1.68 28.34, 0.57 23.08, 0.74 18.71 C0.91 14.34, 1.76 8.46, 4.92 5.45 C8.07 2.45, 16.61 1.39, 19.66 0.66 C22.7 -0.07, 23.23 0.93, 23.19 1.08 M26.81 1.7 C30.29 3.31, 32.86 8.71, 34.37 12.33 C35.87 15.95, 36.62 19.53, 35.83 23.42 C35.04 27.3, 32.94 33.04, 29.63 35.65 C26.33 38.26, 19.92 39.6, 16 39.07 C12.08 38.53, 8.99 35.36, 6.11 32.44 C3.22 29.53, -0.85 25.64, -1.29 21.57 C-1.74 17.49, 1.06 11.27, 3.43 7.98 C5.79 4.7, 9.1 2.66, 12.89 1.87 C16.68 1.08, 24.24 2.94, 26.15 3.23 C28.05 3.52, 24.74 3.48, 24.32 3.62" stroke="#4dabf7" stroke-width="2" fill="none"/>
  </g>
  <g stroke-linecap="round">
    <g transform="translate(158.8168153271451 348) rotate(0 -1.5 32)">
      <path d="M-0.68 -0.86 C-1.19 9.21, -3.37 52.37, -4.08 63.24 M4.14 -3.8 C3.26 7.88, -6.36 54.54, -6.91 66.46" stroke="#4dabf7" stroke-width="2" fill="none"/>
    </g>
  </g>
  <g stroke-linecap="round">
    <g transform="translate(161.8168153271451 372) rotate(0 9.5 -4.5)">
      <path d="M-0.46 -0.32 C2.61 -1.73, 15.1 -7.5, 18.16 -8.83 M1.49 -1.54 C4.97 -2.7, 17.32 -5.75, 20.44 -7.2" stroke="#4dabf7" stroke-width="2" fill="none"/>
    </g>
  </g>
  <g stroke-linecap="round">
    <g transform="translate(156.81681532714515 374) rotate(0 -9.5 -4.5)">
      <path d="M-0.84 0.17 C-4.11 -1.16, -17.18 -6.9, -20.1 -8.28 M0.93 -0.79 C-1.95 -2.43, -14.68 -8.5, -17.97 -10.02" stroke="#4dabf7" stroke-width="2" fill="none"/>
    </g>
  </g>
  <g stroke-linecap="round">
    <g transform="translate(155.81681532714515 416) rotate(0 -7.5 5.5)">
      <path d="M-1.1 0.72 C-3.36 2.68, -12.2 10.08, -14.39 11.93 M0.52 0.05 C-1.78 1.68, -12.5 8.66, -15.03 10.29" stroke="#4dabf7" stroke-width="2" fill="none"/>
    </g>
  </g>
  <g stroke-linecap="round">
    <g transform="translate(159.8168153271451 419) rotate(0 6.5 4)">
      <path d="M0.61 0.93 C3.08 2.27, 11.85 7.62, 13.72 8.78 M-0.54 0.37 C1.94 1.31, 10.71 5.61, 13.15 7.07" stroke="#4dabf7" stroke-width="2" fill="none"/>
    </g>
  </g>
  <g stroke-linecap="round" transform="translate(11.81681532714515 183) rotate(0 18 19.5)">
    <path d="M19.33 0.19 C23.11 0.09, 27.35 2.23, 30.02 5.16 C32.7 8.09, 34.89 13.64, 35.37 17.78 C35.86 21.92, 34.8 26.64, 32.94 30.01 C31.08 33.37, 27.83 36.6, 24.2 37.96 C20.57 39.32, 14.8 39.89, 11.17 38.18 C7.53 36.48, 4.01 31.52, 2.37 27.73 C0.73 23.93, 0.61 19.34, 1.34 15.41 C2.08 11.48, 3.16 6.72, 6.78 4.16 C10.4 1.61, 20.04 0.34, 23.07 0.1 C26.09 -0.15, 25.09 2.32, 24.93 2.7 M16.08 -0.9 C19.67 -2.15, 25.06 -1.24, 28.26 1.26 C31.47 3.76, 34.37 9.89, 35.31 14.12 C36.25 18.36, 35.15 22.82, 33.9 26.68 C32.65 30.53, 30.73 34.99, 27.8 37.23 C24.88 39.46, 20.35 41.11, 16.34 40.07 C12.33 39.02, 6.47 34.57, 3.75 30.95 C1.02 27.34, -0.3 22.31, -0.01 18.38 C0.28 14.44, 3.21 10.18, 5.49 7.36 C7.76 4.55, 12.27 2.46, 13.63 1.47 C14.99 0.48, 13.26 1.49, 13.66 1.43" stroke="#228be6" stroke-width="2" fill="none"/>
  </g>
  <g stroke-linecap="round">
    <g transform="translate(31.81681532714515 220) rotate(0 -1.5 32)">
      <path d="M0.23 -2.09 C-0.53 8.74, -2.08 54.69, -2.54 65.66 M-3.09 2.94 C-4.36 12.92, -4.37 50.93, -4.53 61.56" stroke="#228be6" stroke-width="2" fill="none"/>
    </g>
  </g>
  <g stroke-linecap="round">
    <g transform="translate(34.81681532714515 244) rotate(0 9.5 -4.5)">
      <path d="M0.2 0.71 C3.38 -0.66, 16.06 -7.41, 19.21 -9.12 M-1.16 0.04 C1.88 -1.06, 15.12 -6.21, 18.38 -7.64" stroke="#228be6" stroke-width="2" fill="none"/>
    </g>
  </g>
  <g stroke-linecap="round">
    <g transform="translate(29.81681532714515 246) rotate(0 -9.5 -4.5)">
      <path d="M0.21 -0.12 C-2.97 -1.83, -15.89 -8.02, -18.91 -9.56 M-1.14 -1.23 C-4.49 -2.85, -16.98 -7.15, -19.82 -8.31" stroke="#228be6" stroke-width="2" fill="none"/>
    </g>
  </g>
  <g stroke-linecap="round">
    <g transform="translate(28.81681532714515 288) rotate(0 -7.5 5.5)">
      <path d="M0.09 -0.56 C-2.27 1.24, -11.44 8.6, -13.94 10.67 M-1.33 1.76 C-3.77 3.75, -11.95 10.67, -14.33 12.04" stroke="#228be6" stroke-width="2" fill="none"/>
    </g>
  </g>
  <g stroke-linecap="round">
    <g transform="translate(32.81681532714515 291) rotate(0 6.5 4)">
      <path d="M1.06 -0.33 C3.23 1.25, 11.13 7.5, 13.09 8.89 M0.16 -1.54 C2.17 -0.25, 10.22 5.42, 12.19 7.23" stroke="#228be6" stroke-width="2" fill="none"/>
    </g>
  </g>
  <g stroke-linecap="round" transform="translate(436.8168153271451 10) rotate(0 18 19.5)">
    <path d="M15.51 -0.79 C19.17 -1.56, 25.04 0.94, 28.31 3.35 C31.57 5.76, 33.95 9.61, 35.12 13.66 C36.28 17.71, 36.68 23.89, 35.3 27.64 C33.93 31.39, 30.32 34.51, 26.88 36.17 C23.44 37.83, 18.52 38.29, 14.67 37.6 C10.82 36.91, 6.35 35.16, 3.79 32.01 C1.23 28.86, -0.95 22.91, -0.67 18.68 C-0.4 14.46, 1.91 9.6, 5.43 6.64 C8.96 3.69, 17.62 2.01, 20.49 0.97 C23.36 -0.08, 22.83 0.35, 22.66 0.38 M27.11 0.89 C30.57 2.77, 34.02 8.56, 35.2 12.66 C36.37 16.77, 35.49 21.55, 34.14 25.51 C32.8 29.48, 29.89 34.25, 27.12 36.44 C24.35 38.63, 21.28 39.16, 17.53 38.66 C13.78 38.16, 7.43 36.41, 4.61 33.46 C1.78 30.5, 0.6 25.14, 0.57 20.92 C0.54 16.7, 2.09 11.7, 4.42 8.15 C6.76 4.59, 10.84 0.82, 14.59 -0.41 C18.34 -1.64, 24.86 0.14, 26.94 0.77 C29.02 1.4, 27.14 3.11, 27.06 3.37" stroke="#4dabf7" stroke-width="2" fill="none"/>
  </g>
  <g stroke-linecap="round">
    <g transform="translate(456.8168153271451 49) rotate(0 -1.5 32)">
      <path d="M-0.62 0.28 C-1.27 10.67, -0.49 51.8, -1.31 62.57 M4.25 -2.04 C3.14 8.69, -1.91 55.11, -2.63 65.42" stroke="#4dabf7" stroke-width="2" fill="none"/>
    </g>
  </g>
  <g stroke-linecap="round">
    <g transform="translate(459.8168153271451 72) rotate(0 9.5 -4.5)">
      <path d="M0.73 -0.61 C3.76 -2.07, 14.86 -7.19, 17.92 -8.62 M-0.35 1.68 C3.06 -0.16, 16.94 -8.93, 20.06 -10.54" stroke="#4dabf7" stroke-width="2" fill="none"/>
    </g>
  </g>
  <g stroke-linecap="round">
    <g transform="translate(454.8168153271451 74) rotate(0 -9.5 -4.5)">
      <path d="M-1.08 0.38 C-4.36 -1.05, -15.85 -7.79, -18.91 -9.19 M0.55 -0.46 C-2.94 -1.65, -16.31 -6.19, -19.81 -7.76" stroke="#4dabf7" stroke-width="2" fill="none"/>
    </g>
  </g>
  <g stroke-linecap="round">
    <g transform="translate(453.8168153271451 116) rotate(0 -7.5 5.5)">
      <path d="M0.09 -0.19 C-2.3 1.74, -12.98 9.94, -15.44 11.99 M-1.32 -1.34 C-3.82 0.24, -14.3 8.44, -16.62 10.38" stroke="#4dabf7" stroke-width="2" fill="none"/>
    </g>
  </g>
  <g stroke-linecap="round">
    <g transform="translate(457.8168153271451 119) rotate(0 6.5 4)">
      <path d="M-0.44 0.99 C1.77 2.53, 11.28 7.73, 13.36 9.09 M1.53 0.46 C3.61 1.71, 10.45 6.38, 12.6 7.53" stroke="#4dabf7" stroke-width="2" fill="none"/>
    </g>
  </g>
  <g stroke-linecap="round" transform="translate(484.8168153271451 271) rotate(0 18 19.5)">
    <path d="M22.88 0.11 C26.27 0.6, 29.49 4.16, 31.53 7.71 C33.57 11.25, 35.14 17.32, 35.12 21.37 C35.09 25.43, 33.73 29.24, 31.38 32.03 C29.03 34.81, 24.79 37.34, 21.01 38.1 C17.24 38.85, 12.22 38.64, 8.73 36.56 C5.23 34.48, 1.36 29.65, 0.05 25.63 C-1.27 21.61, -0.96 16.36, 0.83 12.42 C2.61 8.49, 6.91 3.82, 10.77 2 C14.64 0.19, 21.37 1.42, 24.02 1.54 C26.66 1.66, 26.59 2.45, 26.63 2.73 M21.87 2.05 C25.77 2.99, 31.92 6.91, 34.02 9.99 C36.12 13.07, 34.84 16.7, 34.47 20.55 C34.1 24.39, 34.18 30.05, 31.8 33.07 C29.42 36.08, 24.29 38.32, 20.17 38.63 C16.06 38.94, 10.54 37.51, 7.11 34.94 C3.69 32.37, 0.71 27.27, -0.4 23.19 C-1.51 19.12, -1.35 14.34, 0.45 10.5 C2.24 6.67, 6.4 1.75, 10.37 0.18 C14.34 -1.39, 22.05 0.82, 24.29 1.09 C26.52 1.36, 24.24 1.74, 23.79 1.79" stroke="#1971c2" stroke-width="2" fill="none"/>
  </g>
  <g stroke-linecap="round">
    <g transform="translate(504.8168153271451 309) rotate(0 -1.5 32)">
      <path d="M1.25 1.72 C1.49 12.6, 0.34 56.49, -0.54 66.49 M-1.51 0.19 C-1.24 10.22, -0.63 52.26, -1.45 62.83" stroke="#1971c2" stroke-width="2" fill="none"/>
    </g>
  </g>
  <g stroke-linecap="round">
    <g transform="translate(507.8168153271451 332) rotate(0 9.5 -4.5)">
      <path d="M1.05 1.07 C4.06 -0.72, 15.56 -8.12, 18.55 -9.97 M0.15 0.58 C2.9 -1.15, 14.35 -7.3, 17.36 -8.94" stroke="#1971c2" stroke-width="2" fill="none"/>
    </g>
  </g>
  <g stroke-linecap="round">
    <g transform="translate(502.8168153271451 334) rotate(0 -9.5 -4.5)">
      <path d="M-0.45 -0.97 C-3.8 -2.82, -16.1 -8.73, -19.01 -10.03 M1.51 1.14 C-2.08 -0.08, -16.69 -7.62, -19.96 -9.04" stroke="#1971c2" stroke-width="2" fill="none"/>
    </g>
  </g>
  <g stroke-linecap="round">
    <g transform="translate(501.8168153271451 376) rotate(0 -7.5 5.5)">
      <path d="M-0.01 -1.03 C-2.25 1, -11.26 9.06, -13.9 11.22 M-1.47 1.04 C-3.73 2.77, -12.28 7.7, -14.27 9.21" stroke="#1971c2" stroke-width="2" fill="none"/>
    </g>
  </g>
  <g stroke-linecap="round">
    <g transform="translate(505.8168153271451 379) rotate(0 6.5 4)">
      <path d="M1.1 0.22 C3.12 1.87, 10.29 7.52, 12.13 8.91 M0.22 -0.72 C2.62 0.7, 12 6.06, 14.38 7.27" stroke="#1971c2" stroke-width="2" fill="none"/>
    </g>
  </g>
  <g stroke-linecap="round">
    <g transform="translate(294.48956808184266 188.55940170604754) rotate(0 31.5 -27)">
      <path d="M2.28 -2.09 C12.3 -10.94, 52.3 -46.44, 62.2 -54.65 M0.08 2.95 C9.46 -5.34, 49.68 -41.65, 59.53 -51.37" stroke="#ffd43b" stroke-width="2" fill="none"/>
    </g>
  </g>
  <g stroke-linecap="round">
    <g transform="translate(290.48956808184266 233.55940170604754) rotate(0 31 33.5)">
      <path d="M-0.34 2.08 C9.93 13.15, 51.22 53.11, 61.55 64.39 M-3.97 0.74 C5.9 12.24, 48.47 55.78, 59.07 66.6" stroke="#ffd43b" stroke-width="2" fill="none"/>
    </g>
  </g>
  <g stroke-linecap="round">
    <g transform="translate(231.48956808184266 280.55940170604754) rotate(0 -23.5 32)">
      <path d="M1.49 -2.57 C-6.98 8.42, -39.59 51.91, -48.1 63.31 M-1.14 2.21 C-10.33 13.86, -43.77 56.72, -50.94 66.57" stroke="#ffd43b" stroke-width="2" fill="none"/>
    </g>
  </g>
  <g stroke-linecap="round">
    <g transform="translate(236.48956808184266 213.55940170604754) rotate(0 -35.5 -40.5)">
      <path d="M-2.44 -2.15 C-14.22 -16.41, -58.53 -69.23, -70.02 -82.77 M1.44 2.85 C-10.69 -9.89, -59.26 -66.03, -71.72 -80.1" stroke="#ffd43b" stroke-width="2" fill="none"/>
    </g>
  </g>
  <g stroke-linecap="round">
    <g transform="translate(121.48956808184266 318.55940170604754) rotate(0 -34.5 -27)">
      <path d="M-1.4 0.85 C-12.38 -8.83, -55.69 -47.08, -67.17 -56.1 M3.03 -1.15 C-8.04 -10.72, -55.78 -45.52, -68.42 -53.61" stroke="#ffd43b" stroke-width="2" fill="none"/>
    </g>
  </g>
  <g stroke-linecap="round">
    <g transform="translate(400.48956808184266 130.55940170604754) rotate(0 21 -11.5)">
      <path d="M-2.12 -0.84 C4.92 -4.1, 33.29 -18.23, 40.78 -22.16 M1.92 -3.76 C8.62 -7.66, 31.28 -23.66, 37.88 -26.71" stroke="#ffd43b" stroke-width="2" fill="none"/>
    </g>
  </g>
  <g stroke-linecap="round">
    <g transform="translate(467.48956808184266 146.55940170604754) rotate(0 15.5 53.5)">
      <path d="M1.2 0.75 C6.47 18.83, 24.51 89.46, 29.15 107.61 M-1.59 -1.31 C4.8 15.95, 28.48 85.11, 34.55 102.93" stroke="#ffd43b" stroke-width="2" fill="none"/>
    </g>
  </g>
  <g stroke-linecap="round">
    <g transform="translate(386.48956808184266 185.55940170604754) rotate(0 46.5 48.5)">
      <path d="M-2.6 -1.77 C12.97 13.65, 77.14 78.03, 93.22 94.79 M1.19 3.44 C16.41 18.94, 75.87 82.1, 91.11 97.22" stroke="#ffd43b" stroke-width="2" fill="none"/>
    </g>
  </g>
  <g stroke-linecap="round" transform="translate(247.8168153271451 365) rotate(0 18 19.5)">
    <path d="M18.48 0.99 C22.15 0.91, 27.1 1.62, 30.1 4.25 C33.1 6.87, 35.95 12.6, 36.48 16.74 C37 20.88, 35.58 25.61, 33.26 29.09 C30.93 32.58, 26.17 36.38, 22.52 37.65 C18.87 38.92, 14.81 38.21, 11.36 36.7 C7.91 35.18, 3.82 32.2, 1.84 28.54 C-0.13 24.88, -1.44 18.76, -0.48 14.74 C0.47 10.73, 3.74 6.7, 7.58 4.45 C11.42 2.2, 19.85 1.73, 22.54 1.25 C25.23 0.76, 23.76 1.43, 23.72 1.54 M18.83 -0.86 C22.39 -0.66, 28.7 3.94, 31.77 7.2 C34.84 10.47, 36.91 14.56, 37.24 18.74 C37.56 22.93, 36.05 28.81, 33.71 32.33 C31.37 35.85, 26.99 39.06, 23.2 39.85 C19.42 40.64, 14.46 38.97, 11.01 37.07 C7.55 35.17, 4.16 32.37, 2.46 28.44 C0.76 24.5, -0.02 17.73, 0.78 13.49 C1.57 9.24, 3.78 5.27, 7.23 2.95 C10.68 0.64, 19.48 0.17, 21.49 -0.43 C23.49 -1.02, 19.75 -0.95, 19.25 -0.63" stroke="#2f9e44" stroke-width="2" fill="none"/>
  </g>
  <g stroke-linecap="round">
    <g transform="translate(267.8168153271451 404) rotate(0 -1.5 32)">
      <path d="M0.28 -0.3 C-0.7 10.14, -5.13 52.2, -5.23 62.85 M-3.02 -2.94 C-3.19 7.87, -0.43 54.28, -0.03 65.86" stroke="#2f9e44" stroke-width="2" fill="none"/>
    </g>
  </g>
  <g stroke-linecap="round">
    <g transform="translate(270.8168153271451 427) rotate(0 9.5 -4.5)">
      <path d="M-0.95 -0.49 C2.39 -2, 17.03 -7.87, 20.16 -9.17 M0.75 -1.8 C4.02 -3.1, 16.59 -6.31, 19.82 -7.71" stroke="#2f9e44" stroke-width="2" fill="none"/>
    </g>
  </g>
  <g stroke-linecap="round">
    <g transform="translate(265.8168153271451 429) rotate(0 -9.5 -4.5)">
      <path d="M1.16 -0.17 C-2.04 -1.46, -16.72 -6.81, -20.15 -8.26 M0.31 -1.3 C-2.45 -2.89, -14.59 -8.97, -18.03 -9.99" stroke="#2f9e44" stroke-width="2" fill="none"/>
    </g>
  </g>
  <g stroke-linecap="round">
    <g transform="translate(264.8168153271451 471) rotate(0 -7.5 5.5)">
      <path d="M-1.15 0.74 C-3.9 2.63, -12.89 9.6, -15.39 11.16 M0.45 0.08 C-2.6 2.2, -14.15 10.98, -16.54 12.78" stroke="#2f9e44" stroke-width="2" fill="none"/>
    </g>
  </g>
  <g stroke-linecap="round">
    <g transform="translate(268.8168153271451 474) rotate(0 6.5 4)">
      <path d="M-0.39 0.16 C1.77 1.21, 9.69 5.68, 11.83 7.05 M1.61 -0.81 C4.22 0.3, 12.3 6.91, 13.92 8.09" stroke="#2f9e44" stroke-width="2" fill="none"/>
    </g>
  </g>
  <g stroke-linecap="round">
    <g transform="translate(335.48956808184266 354.55940170604754) rotate(0 -18.5 20.5)">
      <path d="M-2.21 -1.34 C-8.28 5.58, -30.17 31.7, -36.04 38.82 M1.79 4.1 C-4.6 11.56, -30.88 34.51, -37.75 41.27" stroke="#ffd43b" stroke-width="2" fill="none"/>
    </g>
  </g>
  <g stroke-linecap="round">
    <g transform="translate(169.48956808184266 385.55940170604754) rotate(0 35 10.5)">
      <path d="M-0.6 -0.57 C11.26 2.22, 57.65 15.03, 69.71 18.61 M4.26 -3.35 C15.86 -0.46, 56.21 16.39, 67.31 20.95" stroke="#ffd43b" stroke-width="2" fill="none"/>
    </g>
  </g>
  <mask/>
  <mask/>
  <mask/>
  <mask/>
  <mask/>
  <mask/>
  <mask/>
  <mask/>
  <mask/>
  <mask/>
  <mask/>
  <mask/>
  <mask/>
  <mask/>
  <mask/>
  <mask/>
  <mask/>
  <mask/>
  <mask/>
  <mask/>
  <mask/>
  <mask/>
  <mask/>
  <mask/>
  <mask/>
  <mask/>
  <mask/>
  <mask/>
  <mask/>
  <mask/>
  <mask/>
  <mask/>
  <mask/>
  <mask/>
  <mask/>
  <mask/>
  <mask/>
  <mask/>
  <mask/>
  <mask/>
  <mask/>
  <mask/>
  <mask/>
  <mask/>
  <mask/>
  <mask/>
  <mask/>
  <mask/>
  <mask/>
  <mask/>
  <mask/>
  <mask/>
  <mask/>
  <mask/>
  <mask/>
</svg>