<?xml version="1.0" standalone="no"?>
<!DOCTYPE svg PUBLIC "-//W3C//DTD SVG 20010904//EN"
 "http://www.w3.org/TR/2001/REC-SVG-20010904/DTD/svg10.dtd">
    <svg version="1.0" xmlns="http://www.w3.org/2000/svg" xmlns:xlink="http://www.w3.org/1999/xlink"
 viewBox="0 0 100 50">
 <defs>
    <svg id="serveur-déconnecté" data-name="Layer 1" xmlns="http://www.w3.org/2000/svg" width="1119.60911" height="699" viewBox="0 0 1119.60911 699" xmlns:xlink="http://www.w3.org/1999/xlink"><title>server down</title><circle cx="292.60911" cy="213" r="213" fill="#f2f2f2"/><path d="M31.39089,151.64237c0,77.49789,48.6181,140.20819,108.70073,140.20819" transform="translate(-31.39089 -100.5)" fill="#2f2e41"/><path d="M140.09162,291.85056c0-78.36865,54.255-141.78356,121.30372-141.78356" transform="translate(-31.39089 -100.5)" fill="#1867c0"/><path d="M70.77521,158.66768c0,73.61476,31.00285,133.18288,69.31641,133.18288" transform="translate(-31.39089 -100.5)" fill="#1867c0"/><path d="M140.09162,291.85056c0-100.13772,62.7103-181.16788,140.20819-181.16788" transform="translate(-31.39089 -100.5)" fill="#2f2e41"/><path d="M117.22379,292.83905s15.41555-.47479,20.06141-3.783,23.713-7.2585,24.86553-1.95278,23.16671,26.38821,5.76263,26.5286-40.43935-2.711-45.07627-5.53549S117.22379,292.83905,117.22379,292.83905Z" transform="translate(-31.39089 -100.5)" fill="#a8a8a8"/><path d="M168.224,311.78489c-17.40408.14042-40.43933-2.71094-45.07626-5.53548-3.53126-2.151-4.93843-9.86945-5.40926-13.43043-.32607.014-.51463.02-.51463.02s.97638,12.43276,5.61331,15.2573,27.67217,5.67589,45.07626,5.53547c5.02386-.04052,6.7592-1.82793,6.66391-4.47526C173.87935,310.756,171.96329,311.75474,168.224,311.78489Z" transform="translate(-31.39089 -100.5)" opacity="0.2"/><ellipse cx="198.60911" cy="424.5" rx="187" ry="25.43993" fill="#3f3d56"/><ellipse cx="198.60911" cy="424.5" rx="157" ry="21.35866" opacity="0.1"/><ellipse cx="836.60911" cy="660.5" rx="283" ry="38.5" fill="#3f3d56"/><ellipse cx="310.60911" cy="645.5" rx="170" ry="23.12721" fill="#3f3d56"/><path d="M494,726.5c90,23,263-30,282-90" transform="translate(-31.39089 -100.5)" fill="none" stroke="#2f2e41" stroke-miterlimit="10" stroke-width="2"/><path d="M341,359.5s130-36,138,80-107,149-17,172" transform="translate(-31.39089 -100.5)" fill="none" stroke="#2f2e41" stroke-miterlimit="10" stroke-width="2"/><path d="M215.40233,637.78332s39.0723-10.82,41.47675,24.04449-32.15951,44.78287-5.10946,51.69566" transform="translate(-31.39089 -100.5)" fill="none" stroke="#2f2e41" stroke-miterlimit="10" stroke-width="2"/><path d="M810.09554,663.73988,802.218,714.03505s-38.78182,20.60284-11.51335,21.20881,155.73324,0,155.73324,0,24.84461,0-14.54318-21.81478l-7.87756-52.719Z" transform="translate(-31.39089 -100.5)" fill="#2f2e41"/><path d="M785.21906,734.69812c6.193-5.51039,16.9989-11.252,16.9989-11.252l7.87756-50.2952,113.9216.10717,7.87756,49.582c9.185,5.08711,14.8749,8.987,18.20362,11.97818,5.05882-1.15422,10.58716-5.44353-18.20362-21.38921l-7.87756-52.719-113.9216,3.02983L802.218,714.03506S769.62985,731.34968,785.21906,734.69812Z" transform="translate(-31.39089 -100.5)" opacity="0.1"/><rect x="578.43291" y="212.68859" width="513.25314" height="357.51989" rx="18.04568" fill="#2f2e41"/><rect x="595.70294" y="231.77652" width="478.71308" height="267.83694" fill="#3f3d56"/><circle cx="835.05948" cy="223.29299" r="3.02983" fill="#f2f2f2"/><path d="M1123.07694,621.32226V652.6628a18.04341,18.04341,0,0,1-18.04568,18.04568H627.86949A18.04341,18.04341,0,0,1,609.8238,652.6628V621.32226Z" transform="translate(-31.39089 -100.5)" fill="#2f2e41"/><polygon points="968.978 667.466 968.978 673.526 642.968 673.526 642.968 668.678 643.417 667.466 651.452 645.651 962.312 645.651 968.978 667.466" fill="#2f2e41"/><path d="M1125.828,762.03359c-.59383,2.539-2.83591,5.21743-7.90178,7.75032-18.179,9.08949-55.1429-2.42386-55.1429-2.42386s-28.4804-4.84773-28.4804-17.573a22.72457,22.72457,0,0,1,2.49658-1.48459c7.64294-4.04351,32.98449-14.02122,77.9177.42248a18.73921,18.73921,0,0,1,8.54106,5.59715C1125.07908,756.45353,1126.50669,759.15715,1125.828,762.03359Z" transform="translate(-31.39089 -100.5)" fill="#2f2e41"/><path d="M1125.828,762.03359c-22.251,8.526-42.0843,9.1622-62.43871-4.975-10.26507-7.12617-19.59089-8.88955-26.58979-8.75618,7.64294-4.04351,32.98449-14.02122,77.9177.42248a18.73921,18.73921,0,0,1,8.54106,5.59715C1125.07908,756.45353,1126.50669,759.15715,1125.828,762.03359Z" transform="translate(-31.39089 -100.5)" opacity="0.1"/><ellipse cx="1066.53846" cy="654.13477" rx="7.87756" ry="2.42386" fill="#f2f2f2"/><circle cx="835.05948" cy="545.66686" r="11.51335" fill="#f2f2f2"/><polygon points="968.978 667.466 968.978 673.526 642.968 673.526 642.968 668.678 643.417 667.466 968.978 667.466" opacity="0.1"/><rect x="108.60911" y="159" width="208" height="242" fill="#2f2e41"/><rect x="87.60911" y="135" width="250" height="86" fill="#3f3d56"/><rect x="87.60911" y="237" width="250" height="86" fill="#3f3d56"/><rect x="87.60911" y="339" width="250" height="86" fill="#3f3d56"/><rect x="271.60911" y="150" width="16" height="16" fill="#1867c0" opacity="0.4"/><rect x="294.60911" y="150" width="16" height="16" fill="#1867c0" opacity="0.8"/><rect x="317.60911" y="150" width="16" height="16" fill="#1867c0"/><rect x="271.60911" y="251" width="16" height="16" fill="#1867c0" opacity="0.4"/><rect x="294.60911" y="251" width="16" height="16" fill="#1867c0" opacity="0.8"/><rect x="317.60911" y="251" width="16" height="16" fill="#1867c0"/><rect x="271.60911" y="352" width="16" height="16" fill="#1867c0" opacity="0.4"/><rect x="294.60911" y="352" width="16" height="16" fill="#1867c0" opacity="0.8"/><rect x="317.60911" y="352" width="16" height="16" fill="#1867c0"/><circle cx="316.60911" cy="538" r="79" fill="#2f2e41"/><rect x="280.60911" y="600" width="24" height="43" fill="#2f2e41"/><rect x="328.60911" y="600" width="24" height="43" fill="#2f2e41"/><ellipse cx="300.60911" cy="643.5" rx="20" ry="7.5" fill="#2f2e41"/><ellipse cx="348.60911" cy="642.5" rx="20" ry="7.5" fill="#2f2e41"/><circle cx="318.60911" cy="518" r="27" fill="#fff"/><circle cx="318.60911" cy="518" r="9" fill="#3f3d56"/><path d="M271.36733,565.03228c-6.37889-28.56758,14.01185-57.43392,45.544-64.47477s62.2651,10.41,68.644,38.9776-14.51861,39.10379-46.05075,46.14464S277.74622,593.59986,271.36733,565.03228Z" transform="translate(-31.39089 -100.5)" fill="#1867c0"/><ellipse cx="417.21511" cy="611.34365" rx="39.5" ry="12.40027" transform="translate(-238.28665 112.98044) rotate(-23.17116)" fill="#2f2e41"/><ellipse cx="269.21511" cy="664.34365" rx="39.5" ry="12.40027" transform="translate(-271.07969 59.02084) rotate(-23.17116)" fill="#2f2e41"/><path d="M394,661.5c0,7.732-19.90861,23-42,23s-43-14.268-43-22,20.90861-6,43-6S394,653.768,394,661.5Z" transform="translate(-31.39089 -100.5)" fill="#fff"/></svg>
    <svg id="serveur" data-name="Layer 1" xmlns="http://www.w3.org/2000/svg" width="888" height="710.80704" viewBox="0 0 888 710.80704" xmlns:xlink="http://www.w3.org/1999/xlink"><title>server_cluster</title><path d="M600.93555,699.40352a260.06372,260.06372,0,1,1,183.89355-76.1709A258.36518,258.36518,0,0,1,600.93555,699.40352Zm0-518.12891c-142.29688,0-258.06446,115.76758-258.06446,258.06494s115.76758,258.064,258.06446,258.064S859,581.63692,859,439.33955,743.23242,181.27461,600.93555,181.27461Z" transform="translate(-156 -94.59648)" fill="#ccc"/><rect x="469" y="509.90391" width="262" height="195" transform="translate(1051.40391 -87.19257) rotate(90)" fill="#2f2e41"/><rect x="313" y="373.80743" width="262" height="104" fill="#3f3d56"/><rect x="313" y="489.80743" width="262" height="104" fill="#3f3d56"/><rect x="313" y="605.80743" width="262" height="104" fill="#3f3d56"/><rect x="313" y="417.90372" width="262" height="16" fill="#1867c0"/><rect x="313" y="533.90372" width="262" height="16" fill="#1867c0"/><rect x="313" y="649.90372" width="262" height="16" fill="#1867c0"/><circle cx="524" cy="388.80743" r="6" fill="#1867c0"/><circle cx="545" cy="388.80743" r="6" fill="#1867c0"/><circle cx="566" cy="388.80743" r="6" fill="#1867c0"/><circle cx="524" cy="502.80743" r="6" fill="#1867c0"/><circle cx="545" cy="502.80743" r="6" fill="#1867c0"/><circle cx="566" cy="502.80743" r="6" fill="#1867c0"/><circle cx="524" cy="616.80743" r="6" fill="#1867c0"/><circle cx="545" cy="616.80743" r="6" fill="#1867c0"/><circle cx="566" cy="616.80743" r="6" fill="#1867c0"/><rect y="708.80704" width="888" height="2" fill="#3f3d56"/><path d="M397.8787,365.66116v185.9917a14.67525,14.67525,0,0,1-14.67227,14.67231H310.928a14.67656,14.67656,0,0,1-14.6784-14.67231V365.66116a14.67655,14.67655,0,0,1,14.6784-14.67228h8.76786a6.9778,6.9778,0,0,0,6.4551,9.60614h41.20843a6.97774,6.97774,0,0,0,6.45506-9.60614h9.392A14.67524,14.67524,0,0,1,397.8787,365.66116Z" transform="translate(-156 -94.59648)" fill="#e6e6e6"/><rect x="145.06414" y="291.91002" width="92" height="128" fill="#fff"/><rect x="171.18557" y="379.92719" width="36.71978" height="2.09827" fill="#e6e6e6"/><rect x="171.14869" y="387.63152" width="56.81724" height="2.09827" fill="#1867c0"/><rect x="171.14869" y="394.89011" width="44.5883" height="2.09827" fill="#e6e6e6"/><rect x="171.14869" y="402.1487" width="26.22841" height="2.09827" fill="#e6e6e6"/><rect x="171.14869" y="409.40729" width="39.34262" height="2.09827" fill="#e6e6e6"/><rect x="154.53324" y="379.32379" width="4.19655" height="4.19655" fill="#e6e6e6"/><rect x="154.53324" y="386.58238" width="4.19655" height="4.19655" fill="#1867c0"/><rect x="154.53324" y="393.84097" width="4.19655" height="4.19655" fill="#e6e6e6"/><rect x="154.53324" y="401.09956" width="4.19655" height="4.19655" fill="#e6e6e6"/><rect x="154.53324" y="408.35815" width="4.19655" height="4.19655" fill="#e6e6e6"/><rect x="172.75082" y="307.91002" width="36.99753" height="36.99753" fill="#e6e6e6"/><rect x="321.11058" y="0.13939" width="245.88383" height="157.47494" fill="#e6e6e6"/><rect x="339.64671" y="44.19534" width="203.86136" height="77.03517" fill="#fff"/><rect x="376.78939" y="57.54179" width="48.92684" height="2.79582" fill="#e6e6e6"/><rect x="376.74025" y="67.80733" width="75.70547" height="2.79582" fill="#1867c0"/><rect x="376.74025" y="77.47895" width="59.41117" height="2.79582" fill="#e6e6e6"/><rect x="376.74025" y="87.15058" width="34.94775" height="2.79582" fill="#e6e6e6"/><rect x="376.74025" y="96.8222" width="52.42162" height="2.79582" fill="#e6e6e6"/><rect x="354.60119" y="56.7378" width="5.59164" height="5.59164" fill="#e6e6e6"/><rect x="354.60119" y="66.40942" width="5.59164" height="5.59164" fill="#1867c0"/><rect x="354.60119" y="76.08104" width="5.59164" height="5.59164" fill="#e6e6e6"/><rect x="354.60119" y="85.75267" width="5.59164" height="5.59164" fill="#e6e6e6"/><rect x="354.60119" y="95.42429" width="5.59164" height="5.59164" fill="#e6e6e6"/><rect x="483.44507" y="53.8475" width="50.05873" height="50.05873" fill="#e6e6e6"/><rect x="321.00559" width="245.88383" height="10.44604" fill="#1867c0"/><circle cx="328.76825" cy="5.34057" r="2.09686" fill="#fff"/><circle cx="336.11718" cy="5.34057" r="2.09686" fill="#fff"/><circle cx="343.46611" cy="5.34057" r="2.09686" fill="#fff"/><rect x="671.64772" y="294.80743" width="60" height="31" fill="#e6e6e6"/><rect x="671.64772" y="405.80743" width="60" height="31" fill="#e6e6e6"/><circle cx="701.64772" cy="365.80743" r="50" fill="#e6e6e6"/><circle cx="701.64772" cy="365.80743" r="39" fill="#fff"/><rect x="688.87659" y="355.12175" width="30.24683" height="1.72839" fill="#e2e2e2"/><rect x="688.84621" y="361.46796" width="46.80151" height="1.72839" fill="#1867c0"/><rect x="688.84621" y="367.44701" width="36.72829" height="1.72839" fill="#e2e2e2"/><rect x="688.84621" y="373.42605" width="21.60488" height="1.72839" fill="#e2e2e2"/><rect x="688.84621" y="379.4051" width="32.40732" height="1.72839" fill="#e2e2e2"/><rect x="675.15972" y="354.62472" width="3.45678" height="3.45678" fill="#e2e2e2"/><rect x="675.15972" y="360.60376" width="3.45678" height="3.45678" fill="#1867c0"/><rect x="675.15972" y="366.58281" width="3.45678" height="3.45678" fill="#e2e2e2"/><rect x="675.15972" y="372.56186" width="3.45678" height="3.45678" fill="#e2e2e2"/><rect x="675.15972" y="378.54091" width="3.45678" height="3.45678" fill="#e2e2e2"/></svg>
    <svg id="équipe" xmlns="http://www.w3.org/2000/svg" width="866.81006" height="443.0676" viewBox="0 0 866.81006 443.0676" xmlns:xlink="http://www.w3.org/1999/xlink"><path d="M828.33492,244.95227l-2.71537,21.6217-6.73908,53.70394h-135.38272c1.05718-12.03676,2.50247-29.36207,4.04646-48.06508,.15218-1.86793,.31188-3.74756,.46397-5.63886,3.87162-47.01432,8.10823-100.21632,8.10823-100.21632l17.79852,3.31574,34.53207,6.42112,14.07147,2.61514,37.68114,7.01655c18.78727,3.49074,31.7102,30.69301,28.13532,59.22608Z" fill="#f2f2f2"/><polygon points="725.93018 79.35764 742.57875 108.4915 710.5803 131.16867 696.93018 95.35764 725.93018 79.35764" fill="#ffb6b6"/><circle cx="704.73531" cy="65.67545" r="41.24406" fill="#ffb6b6"/><path d="M701.77389,74.8959c-3.27492-4.9842-1.98953-7.59113-4.73126-9.42283-.00005-.00005-1.10331-.7371-8.99943-1.15733h0c-1.76783-12.72387-3.9747-14.26689-3.97475-14.26694-2.54344-1.77835-6.31806-1.20052-8.66632-.11286-4.96648,2.3004-4.39069,7.26947-7.73471,8.22036-4.61947,1.31356-13.02411-6.09155-13.85211-14.56892-.67539-6.91516,3.77981-13.63146,5.54692-13.27617,1.75207,.35229,5.94686-5.00298,8.2118-4.92038,1.54677,.05641,7.86668-2.69052,9.56681-2.47576,1.85668,.23458,7.97849,3.42925,8.23359,2.69936,1.77276-5.07201,1.25174-6.47929,2.75595-7.93028,2.66541-2.57115,7.02574-.78067,13.86612,.18057,14.07429,1.97776,16.5307-2.66296,23.74347,.48255,3.64355,1.58896,6.69229,5.8742,12.64108,14.3798,8.31932,11.89498,12.47896,17.84248,12.50565,24.77939,.02721,7.0744-3.3985,6.62532-4.90327,17.09838-1.67502,11.65826,1.88393,16.98908-2.00412,20.77661-3.00495,2.92729-9.11284,3.62215-12.32198,1.05303-5.49439-4.39856,1.69602-15.0123-4.38413-22.76671-3.73224-4.75997-11.23802-6.87793-14.67632-4.52502-3.88767,2.66043-1.74599,10.46929-4.47987,11.20979-2.3411,.63413-5.77242-4.58808-6.34311-5.45663Z" fill="#2f2e41"/><path d="M797.8501,237.33762c-1.15039,19.66992-5.71973,25.87988-7.32031,49.10986-.34961,5.1001-.55957,11.02002-.55957,18.08008,0,1.7998,.00977,3.54004,.00977,5.24023,0,3.61963-.06934,7.04004-.49023,10.50977-.31934,2.77002-.86914,5.56006-1.7793,8.5h-88.83008c-.00977-.02002-.00977-.04004-.02051-.06006-.51953-2.25977-.84961-4.41992-1.09961-6.48975-.08008-.66016-.15039-1.31006-.20996-1.9502-.08008-.75-.15039-1.48975-.21973-2.21973-.27051-2.91016-.54004-5.66016-1.18066-8.29004-.85938-3.63037-2.41992-7.05029-5.62012-10.3501-1.30957-1.3501-2.61914-2.3999-3.89941-3.31982-.25-.17041-.49023-.34033-.74023-.51025-3.54004-2.43018-6.88965-4.18018-9.79004-9.14014-.0498-.06982-.08984-.1499-.12988-.21973-.5-.87012-1.7998-3.15039-2.74023-6.18994-.99023-3.16016-1.58984-7.13037-.50977-11.18994,2.57031-9.62012,12.08984-10.58008,19.87012-20.30029,.83984-1.0498,1.66992-2.20996,2.45996-3.5,3.51953-5.72021,4.46973-10.75977,5.58984-16.75,.17969-.97021,.33984-1.93018,.46973-2.85986,.10059-.7002,.19043-1.39014,.26074-2.07031,.61914-5.70996,.31934-10.62988-.41016-15.02979-2.37988-14.41016-9.40039-23.33008-4.44043-36.26025,1.56055-4.05957,3.77051-7.10986,6-9.71973,4.71973-5.53027,9.57031-9.12012,8.73047-16.25977-.85059-7.2002-6.31055-8.19043-6.91992-14.48047-.31055-3.17969,.72949-6.52979,2.67969-9.81982v-.00977c6.24023-10.59033,21.82031-20.34033,31.71973-20.03027,1.83008,.05029,3.4502,.45996,4.7998,1.25,4.89062,2.87988,2.85059,9.16992,10.34082,17.99023,5.56934,6.5498,11.86914,9.16992,14.25977,10.40967,9.46973,4.94043,17.16992,19.51025,22.39941,38.14014,.04004,.14014,.08008,.27979,.12012,.43018,3.23047,11.66992,5.51074,24.91992,6.64062,38.35986,.47949,5.68994,.75977,11.41016,.81934,17.06982,.05078,4.52002-.0498,8.44043-.25977,11.93018Z" fill="#1867c0"/><g><polygon points="731.33057 304.72776 729.52002 309.7678 728.38037 312.92747 725.73975 320.27756 722.68018 328.77756 703.01025 328.77756 706.31006 320.27756 707.84033 316.3176 710.38037 309.7678 714.64014 298.7678 731.33057 304.72776" fill="#ffb6b6"/><path d="M790.84033,167.82737c-.0498,.65039-.12012,1.37012-.19043,2.15039-.7793,7.93994-2.62012,22.1499-5.30957,38.35986-1.41992,8.5498-3.08008,17.66016-4.9502,26.70996-4.01953,19.52979-9.01953,38.76025-14.66992,51.3999-1.00977,2.28027-2.0498,4.34033-3.11035,6.16016-.80957,1.39014-1.66016,2.75977-2.5498,4.10986-2.87988,4.43018-6.11035,8.63037-9.45996,12.55029-.12988,.16992-.28027,.33008-.42969,.5-.54004,.63965-1.10059,1.27002-1.66016,1.8999-2.74023,3.08984-5.54004,5.96973-8.25,8.60986-3.2998,3.22021-6.48047,6.07031-9.33008,8.5h-31.94043l-.12988-.06006-4.59961-2.04004s1.30957-1.54004,3.5-4.44971c.4502-.59033,.92969-1.24023,1.4502-1.9502,.63965-.87012,1.33008-1.83008,2.06934-2.87012,1.54004-2.17969,3.29004-4.73975,5.16992-7.63965,3.64062-5.61035,7.79004-12.51025,11.98047-20.5,.48047-.93018,.96973-1.87012,1.45996-2.82031,.00977-.02979,.03027-.06006,.04004-.08984,.83008-1.62012,1.65039-3.29004,2.46973-4.99023,6.9502-14.45996,8.94043-26.45996,9.51074-30.34961,.7998-5.5,1.90918-13.19043,1.60938-21.65039-.2002-5.57959-1.00977-11.47998-2.93945-17.33984v-.00977c-.40039-1.22998-.85059-2.45996-1.36035-3.68018-.91016-2.18994-1.99023-4.3501-3.27051-6.47998-5.64941-9.37988-10.23926-9.77002-13.88965-19.99023-1.08008-3.02979-3.53027-9.86963-2.78027-17.08984v-.00977c.09082-.89014,.24023-1.79004,.44043-2.69043v-.00977c.0498-.25,.12012-.50977,.19043-.75977,.56934-2.20996,1.50977-4.40039,2.93945-6.48047,2.79004-4.03955,6.59961-6.43994,10.00977-7.86963l.01074-.01025c3.93945-1.63965,7.33984-1.98975,8-2.0498,14.60938-1.2998,25.93945,10.97998,32.12988,17.68994,2.38965,2.58984,4.58008,4.76025,6.58008,6.52979,15.56934,13.90039,19.83984,5.02002,20.94922,.43018,.16992-.70996,.26074-1.31982,.31055-1.72021Z" fill="#1867c0"/><path d="M790.89014,167.30784c0,.0498-.00977,.21973-.0498,.5,.01953-.15039,.03027-.30029,.04004-.44043,0-.02979,0-.0498,.00977-.05957Z" fill="#1867c0"/></g><path d="M711.47021,378.3176H175.42041c-4.98047,0-9.04004,4.0498-9.04004,9.03027,0,4.98975,4.05957,9.03955,9.04004,9.03955H711.47021c4.97949,0,9.03027-4.0498,9.03027-9.03955,0-4.98047-4.05078-9.03027-9.03027-9.03027Z" fill="#e6e6e6"/><path d="M592.51025,424.99778H294.37012c-4.97998,0-9.02979,4.0498-9.02979,9.02979s4.0498,9.04004,9.02979,9.04004h298.14014c4.97998,0,9.04004-4.06006,9.04004-9.04004s-4.06006-9.02979-9.04004-9.02979Z" fill="#e6e6e6"/><polygon points="235.06941 81.27476 268.85306 67.05703 283.34352 96.76248 247.84188 111.25294 235.06941 81.27476" fill="#ffb6b6"/><polygon points="235.06941 81.27476 268.85306 67.05703 283.34352 96.76248 247.84188 111.25294 235.06941 81.27476" opacity=".1"/><path d="M239.87213,69.95512l33.32807,38.39973s-23.18474,73.17685-46.36949,79.69756-65.93162,38.39973-65.93162,38.39973l-53.61472-34.77712,26.08284-38.39973s63.03352-86.21827,79.69756-86.21827c16.66403,0,26.80736,2.89809,26.80736,2.89809Z" fill="#1867c0"/><path d="M194.84299,320.2779H117.26107l-4.90504-6.55697-20.02583-26.7711-4.60796-6.15845s-17.38856-31.87902-13.76594-60.85995c3.62262-28.98093,41.29783-35.50164,41.29783-35.50164h1.55049l46.12313,40.52979-2.75318,37.71872,14.60637,24.27153,20.06205,33.32807Z" fill="#2f2e41"/><polygon points="133.14986 320.2779 112.35603 320.2779 112.35603 289.48566 133.14986 320.2779" fill="#2f2e41"/><path d="M581.64421,273.53165l-2.58651,13.41818-6.41927,33.32807h-128.95789c1.00701-7.46988,2.38371-18.22178,3.85442-29.82865,.14496-1.15922,.29708-2.32569,.44195-3.49942,3.68789-29.17657,7.72344-62.19314,7.72344-62.19314l16.95386,2.05771,32.89328,3.98488,13.40368,1.62293,35.89291,4.35439c17.89569,2.16632,30.20533,19.04774,26.80011,36.75505Z" fill="#f2f2f2"/><path d="M764.14438,320.2779h-69.94541c1.06503-1.25341,1.66635-1.97793,1.66635-1.97793l20.96775-3.46324,43.20324-7.12937s1.97068,5.09342,4.10808,12.57055Z" fill="#2f2e41"/><polygon points="467.45495 95.76626 497.87302 138.78423 444.81392 140.36878 439.11853 99.94198 467.45495 95.76626" fill="#a0616a"/><polygon points="467.45495 95.76626 497.87302 138.78423 444.81392 140.36878 439.11853 99.94198 467.45495 95.76626" opacity=".1"/><path id="uuid-ae755ff6-bb09-410e-86b1-7d1b81a37005-969" d="M317.44601,184.89638c-3.90299-11.25913-12.8761-18.37174-20.04107-15.88668-7.16497,2.48507-9.80758,13.62542-5.90169,24.88804,1.49853,4.52036,4.05781,8.61612,7.46374,11.94459l17.13959,47.49655,22.1173-8.51819-19.24476-45.91882c.61482-4.72396,.08913-9.52647-1.53311-14.0055Z" fill="#a0616a"/><path d="M523.34731,162.97667l-.04173,43.84082-4.07898,16.19317-8.39004,33.30631-6.10768,30.63286-4.55003,22.82248-1.62293,8.15089c-1.22449,.81871-2.44173,1.60117-3.65888,2.3547h-105.97603c-6.02079-3.61536-9.38979-6.42652-9.38979-6.42652,0,0,1.66639-1.56499,3.57189-4.07907,3.21689-4.2457,7.10757-11.2011,4.72391-17.84501-.49992-1.39112-.63033-3.08648-.47821-4.97747,.97088-12.47627,14.05577-33.57447,14.05577-33.57447l-2.70971-31.31387-1.18823-13.72243,8.37769-66.9101,27.30728-15.87424,4.71449-.45614,46.53611-2.51407,19.23434,1.10845,.87664,.23915,18.79409,39.04457Z" fill="#ccc"/><g><polygon points="525.41397 320.2779 502.22923 320.2779 501.20763 309.77232 501.18587 309.56218 507.75009 309.11297 524.82716 307.9465 525.12415 314.23531 525.35604 319.06075 525.41397 320.2779" fill="#ffb6b6"/><path d="M531.12143,173.57645l9.73934,57.14315-7.948,56.23024-1.23891,8.75221-2.18807,15.45405-.67376,4.75291,.02176,.51438,.16663,3.85451h-27.53188l-1.01444-10.50559-.08685-.94192-2.07221-21.51831-.03617-.36226-4.39782-45.63046,8.62176-32.98031,.63767-2.42722v-.00716l3.75119-56.46939-2.90535-25.66256-.02892-.23915c.05793,.03626,.1087,.07252,.16663,.1087,.15221,.09419,.30433,.18838,.4492,.28983,16.92485,10.73748,27.01025,29.57509,26.56821,49.64435Z" fill="#ccc"/></g><path d="M415.74779,152.37881l-10.58745-10.95064s-22.66445,10.21757-23.79416,15.88619c-1.12971,5.66862-41.14649,88.92555-41.14649,88.92555l-17.40981-46.49871-22.66197,15.13029s18.1839,72.19186,35.18976,75.58099,74.00173-85.44603,74.00173-85.44603l6.40838-52.62764Z" fill="#ccc"/><path d="M845.64014,286.44749H21.16016c-11.66992,0-21.16016,9.5-21.16016,21.16992s9.49023,21.16016,21.16016,21.16016H845.64014c11.66992,0,21.16992-9.48975,21.16992-21.16016s-9.5-21.16992-21.16992-21.16992Z" fill="#e6e6e6"/><path d="M518.52213,221.93974l-1.60291,74.80242c-.15517,7.24107-6.06962,13.03015-13.31236,13.03015h-137.60256c-7.07149,0-12.90955-5.52763-13.29556-12.58857l-4.08931-74.80242c-.41702-7.62814,5.65604-14.04226,13.29556-14.04226h143.29478c7.46556,0,13.4723,6.13683,13.31236,13.60068Z" fill="#3f3d56"/><circle cx="296.38479" cy="66.40952" r="32.92181" fill="#ffb6b6"/><polygon points="241.32117 152.55077 244.94379 191.67503 269.57758 290.93471 248.29569 298.39388 212.34024 190.22598 207.37412 146.75458 241.32117 152.55077" fill="#ffb6b6"/><path d="M231.52213,221.93974l-1.60291,74.80242c-.15517,7.24107-6.06962,13.03015-13.31236,13.03015H79.0043c-7.07149,0-12.90955-5.52763-13.29556-12.58857l-4.08931-74.80242c-.41702-7.62814,5.65604-14.04226,13.29556-14.04226H218.20977c7.46556,0,13.4723,6.13683,13.31236,13.60068Z" fill="#3f3d56"/><ellipse cx="273.50003" cy="298.7779" rx="26" ry="11.5" fill="#ffb6b6"/><path d="M190.24228,158.53237l14.85273-79.15844s41.29783-5.79619,42.74687,7.96976-1.03544,81.04198-1.03544,81.04198l-56.56416-9.85329Z" fill="#1867c0"/><path d="M283.09522,71.58597s20.36536-7.26838,28.95593-11.17911c8.59056-3.91073,25.65708,23.36637,26.03673,8.96042,.37965-14.40595-5.51755-20.44717-5.51755-20.44717,0,0-1.4726-31.51507-33.2233-27.57494,0,0,6.98375-15.76734-15.94076-18.20547-22.92451-2.43813-58.58934,52.92097-55.39531,61.19409,3.19403,8.27312,7.02295,15.11285-2.03888,23.95865-9.06183,8.8458-26.03033,58.76917-13.11998,72.20319,12.91035,13.43402,13.7575,19.26357,4.91188,27.62122-8.84562,8.35765-29.75425,26.53032-7.14719,29.68515,22.60706,3.15483-2.06828,.79851,14.7856-14.0263,16.85389-14.82481,41.44742-14.21933,32.26457-38.00455-9.18284-23.78522,6.77112-57.86925,4.77485-63.03995-1.99627-5.1707,4.4726-38.00496,4.4726-38.00496,0,0,15.05504-2.21189,16.1808,6.85974Z" fill="#2f2e41"/><g><circle cx="451.19104" cy="75.49881" r="35.83777" fill="#a0616a"/><path d="M454.05121,27.31743c-1.037,.60534-2.42604-.31053-2.75855-1.46432-.33251-1.1538,.05482-2.37882,.43892-3.51648l1.93363-5.72716c1.37137-4.06183,2.82687-8.26559,5.79693-11.35717,4.48283-4.66624,11.6071-5.85331,18.02037-4.99332,8.2359,1.1044,16.36189,5.56405,20.19135,12.93866,3.82945,7.37462,2.19911,17.66485-4.72046,22.26586,9.8619,11.30338,13.2996,23.9006,12.7568,38.89155-.5428,14.99095-16.87927,28.78752-27.53282,39.34806-2.37913-1.4422-4.54204-8.20095-3.23373-10.65626,1.3083-2.45531-.5662-5.29986,1.05409-7.56146,1.62029-2.2616,2.97587,1.33954,1.33779-.90922-1.03366-1.41901,3.00067-4.68353,1.46421-5.53283-7.43161-4.10794-9.9033-13.37111-14.57083-20.46464-5.62991-8.55611-15.26549-14.35039-25.46249-15.31167-5.61717-.52953-11.55014,.42955-16.15432,3.69062-4.60418,3.26106-7.5849,9.08853-6.51724,14.62867-2.76507-2.80756-4.14147-6.92204-3.62233-10.82826,.51914-3.90621,2.92243-7.51837,6.32483-9.50626-2.06881-6.84142-.29652-14.71105,4.50527-20.00518,4.80179-5.29413,24.28048-4.39244,31.29074-2.99911l-.54217-.93008Z" fill="#2f2e41"/><path d="M455.13987,53.47472c9.28487,1.0023,15.9888,9.04506,21.64971,16.47254,3.26282,4.28103,6.68059,9.00871,6.59868,14.39076-.08282,5.4414-3.72095,10.10859-5.45967,15.26538-2.84199,8.42894-.07214,18.45744,6.69308,24.23289-6.68479,1.26852-13.91123-3.74373-15.06525-10.44924-1.34341-7.80603,4.57394-15.34005,3.87313-23.22978-.61741-6.95094-6.09506-12.30052-10.75187-17.49772-4.65681-5.19721-9.03036-12.09377-6.88799-18.73508l-.64983-.44975Z" fill="#2f2e41"/></g><g><path id="uuid-aec20554-f6ec-4c5b-9d97-717cd04239bf-970" d="M593.94738,290.97732c-9.19677,5.23093-13.95249,14.21631-10.62254,20.06865,3.32996,5.85234,13.48327,6.3548,22.68262,1.12078,3.70344-2.04037,6.86441-4.93798,9.21841-8.4504l38.6872-22.65576-11.01865-17.92815-36.96889,24.23796c-4.22349,.22844-8.33082,1.46525-11.97815,3.60692Z" fill="#ffb6b6"/><path d="M724.9347,124.84081c-1.15613-.45818-11.30029-4.29973-20.56133,.77222-10.63836,5.8263-12.28141,19.12643-12.85772,23.79133-1.33125,10.77601,2.59074,13.19133,3.41866,24.10068,1.54899,20.4102,5.63336-2.8739-.88939,6.44247-2.2578,3.22481-25.31723,53.19804-38.03446,62.98648-24.73342,19.03731-40.43943,32.44418-40.43943,32.44418l17.93045,19.47744s28.33331-7.54935,53.37617-23.81018c25.68825-16.67995,38.53244-25.0199,48.46938-41.33509,.85574-1.40497,21.33113-36.17595,10.33482-74.6244-2.50819-8.76995-7.10385-24.83851-20.74714-30.24513Z" fill="#1867c0"/></g><path d="M817.52213,221.93974l-1.60291,74.80242c-.15517,7.24107-6.06962,13.03015-13.31236,13.03015h-137.60256c-7.07149,0-12.90955-5.52763-13.29556-12.58857l-4.08931-74.80242c-.41702-7.62814,5.65604-14.04226,13.29556-14.04226h143.29478c7.46556,0,13.4723,6.13683,13.31236,13.60068Z" fill="#3f3d56"/></svg>
    <svg id="cellulaire" data-name="Layer 1" xmlns="http://www.w3.org/2000/svg" width="846.67004" height="497.80337" viewBox="0 0 846.67004 497.80337" xmlns:xlink="http://www.w3.org/1999/xlink"><path d="M313.74006,257.809a25.66667,25.66667,0,0,0-25.6377,25.63769V562.17127a25.66668,25.66668,0,0,0,25.6377,25.6377H891.46467a25.66667,25.66667,0,0,0,25.63769-25.6377V283.44666A25.66666,25.66666,0,0,0,891.46467,257.809Z" transform="translate(-176.66498 -201.09832)" fill="#fff"/><path d="M891.46467,588.809H313.74006a26.668,26.668,0,0,1-26.6377-26.6377V283.44666a26.668,26.668,0,0,1,26.6377-26.63769H891.46467a26.668,26.668,0,0,1,26.63769,26.63769V562.17127A26.668,26.668,0,0,1,891.46467,588.809Zm-577.72461-330a24.66537,24.66537,0,0,0-24.6377,24.63769V562.17127a24.66538,24.66538,0,0,0,24.6377,24.6377H891.46467a24.66537,24.66537,0,0,0,24.63769-24.6377V283.44666A24.66536,24.66536,0,0,0,891.46467,258.809Z" transform="translate(-176.66498 -201.09832)" fill="#3f3d56"/><ellipse cx="472.6985" cy="572.88925" rx="2.02806" ry="7.74518" transform="translate(-295.14538 821.40572) rotate(-87.72792)" fill="#e6e6e6"/><ellipse cx="522.00583" cy="570.27884" rx="2.02806" ry="7.74518" transform="matrix(0.03964, -0.99921, 0.99921, 0.03964, -245.18448, 868.16738)" fill="#3f3d56"/><ellipse cx="453.7554" cy="557.67637" rx="2.02806" ry="7.74518" transform="translate(-298.13656 787.86775) rotate(-87.72792)" fill="#ff6584"/><ellipse cx="434.25811" cy="552.0355" rx="1.82088" ry="3.44561" transform="translate(-340.06339 719.89515) rotate(-83.49842)" fill="#e6e6e6"/><ellipse cx="422.88003" cy="540.38255" rx="1.82088" ry="3.44561" transform="translate(-338.57512 698.25676) rotate(-83.49842)" fill="#3f3d56"/><ellipse cx="487.18112" cy="560.22426" rx="1.82088" ry="3.44561" transform="translate(-301.26898 779.73933) rotate(-83.49842)" fill="#e6e6e6"/><ellipse cx="464.61673" cy="565.1829" rx="1.82088" ry="3.44561" transform="translate(-326.20514 761.71723) rotate(-83.49842)" fill="#ff6584"/><ellipse cx="501.11393" cy="573.17026" rx="1.82088" ry="3.44561" transform="translate(-301.77653 805.06266) rotate(-83.49842)" fill="#3f3d56"/><path d="M176.665,532.21069a1.18647,1.18647,0,0,0,1.19006,1.19h844.29a1.19,1.19,0,0,0,0-2.38H177.855A1.18651,1.18651,0,0,0,176.665,532.21069Z" transform="translate(-176.66498 -201.09832)" fill="#ccc"/><path d="M465.25342,511.18635a2.80741,2.80741,0,0,1-2.03464-4.86593l.19237-.76476q-.038-.09189-.07644-.18358a7.53909,7.53909,0,0,0-13.90673.05167c-2.27452,5.4781-5.17037,10.96553-5.8834,16.75771a22.30331,22.30331,0,0,0,.39152,7.6706,89.4194,89.4194,0,0,1-8.13413-37.13874,86.307,86.307,0,0,1,.53535-9.62829q.44349-3.93128,1.23055-7.80653A90.45569,90.45569,0,0,1,455.506,436.94119a24.0727,24.0727,0,0,0,10.0118-10.38734,18.3625,18.3625,0,0,0,1.67-5.01791c-.48738.06393-1.83778-7.35909-1.47017-7.81452-.67924-1.03071-1.895-1.54307-2.63681-2.54885-3.68943-5.0021-8.77253-4.12872-11.42612,2.66876-5.6687,2.861-5.72357,7.60577-2.24528,12.16915,2.2129,2.90325,2.517,6.83168,4.45862,9.93985-.1998.25571-.40756.50344-.6073.75916a91.04,91.04,0,0,0-9.50223,15.05378,37.84589,37.84589,0,0,0-2.25945-17.5787c-2.16268-5.21725-6.21632-9.61123-9.786-14.12153-4.2878-5.41757-13.08033-3.05324-13.83575,3.81438q-.011.09975-.02141.19942.79532.44866,1.55705.95247a3.808,3.808,0,0,1-1.53532,6.92992l-.07765.012a37.88983,37.88983,0,0,0,.99876,5.66515c-4.57949,17.71009,5.30731,24.16047,19.42432,24.45023.31164.15979.61531.31958.92695.47144a92.925,92.925,0,0,0-5.00194,23.53931,88.13663,88.13663,0,0,0,.06393,14.23066l-.024-.16777a23.28922,23.28922,0,0,0-7.95036-13.44764c-6.11822-5.0259-14.76211-6.87666-21.36259-10.9165a4.37072,4.37072,0,0,0-6.69422,4.252q.01328.08819.027.17642a25.5806,25.5806,0,0,1,2.86848,1.38225q.79533.44877,1.55706.95247a3.8081,3.8081,0,0,1-1.53533,6.93l-.07772.01193c-.05591.008-.10387.016-.15972.024a37.92262,37.92262,0,0,0,6.97545,10.92265c2.86344,15.46021,15.16195,16.927,28.31753,12.42488h.008a92.89781,92.89781,0,0,0,6.24043,18.21781h22.2928c.08-.24769.15184-.50341.22379-.75113A25.32943,25.32943,0,0,1,458.75,529.972c1.654-2.02957,3.308-4.07513,4.962-6.10463a1.384,1.384,0,0,0,.10388-.11987c.839-1.03867,1.68595-2.06945,2.52491-3.10816l.00045-.00127a37.10115,37.10115,0,0,0-1.08711-9.45126Z" transform="translate(-176.66498 -201.09832)" fill="#f2f2f2"/><path d="M353.966,498.81733a4.552,4.552,0,0,1-3.299-7.88974c.11478-.4562.19712-.78382.3119-1.24q-.06159-.149-.12393-.29767a12.2241,12.2241,0,0,0-22.54876.08379c-3.688,8.88234-8.38338,17.77981-9.53951,27.1714a36.16371,36.16371,0,0,0,.63483,12.43734,144.98721,144.98721,0,0,1-13.1889-60.21777,139.94083,139.94083,0,0,1,.868-15.61158q.7191-6.37428,1.99525-12.65772a146.66713,146.66713,0,0,1,29.08536-62.16116,39.03223,39.03223,0,0,0,16.23341-16.84233,29.77331,29.77331,0,0,0,2.70775-8.13617c-.79026.10366-2.97984-11.93224-2.38379-12.67067-1.10133-1.67123-3.07254-2.502-4.27538-4.13278-5.98215-8.11055-14.224-6.69442-18.52663,4.32719-9.19138,4.6389-9.28035,12.33221-3.64056,19.73141,3.58806,4.70741,4.08106,11.07707,7.22933,16.11673-.324.41463-.66083.8163-.98469,1.23092a147.61451,147.61451,0,0,0-15.40717,24.40862,61.36437,61.36437,0,0,0-3.66353-28.50258c-3.50665-8.4594-10.07932-15.58391-15.86734-22.897-6.95236-8.7842-21.20882-4.9506-22.43367,6.18475q-.01777.16173-.03472.32334,1.28956.72747,2.52466,1.54435a6.17447,6.17447,0,0,1-2.48942,11.23637l-.12591.01941a61.43524,61.43524,0,0,0,1.61943,9.18563c-7.42532,28.71562,8.6054,39.17444,31.49511,39.64427.5053.25908.99769.51817,1.503.76441a150.67077,150.67077,0,0,0-8.11027,38.16728,142.905,142.905,0,0,0,.10366,23.074l-.03889-.272a37.76173,37.76173,0,0,0-12.89093-21.80436c-9.92024-8.14913-23.93569-11.15-34.63788-17.70031-5.15173-3.15315-11.75331.92159-10.8542,6.89434q.02153.143.04377.286a41.47519,41.47519,0,0,1,4.651,2.24122q1.28956.72765,2.52466,1.54436a6.17454,6.17454,0,0,1-2.48943,11.23648l-.126.01935c-.09065.013-.16842.026-.259.039a61.48913,61.48913,0,0,0,11.31019,17.71028c4.64285,25.06761,24.584,27.446,45.91482,20.146h.013A150.62571,150.62571,0,0,0,316.914,531.09055h36.14615c.12965-.40161.2462-.81624.36285-1.21791a41.06914,41.06914,0,0,1-10.00185-.59579c2.68186-3.2908,5.36362-6.60752,8.04548-9.89821a2.243,2.243,0,0,0,.16843-.19436c1.36032-1.68413,2.73364-3.35547,4.094-5.03966l.00073-.00205a60.157,60.157,0,0,0-1.76268-15.32453Z" transform="translate(-176.66498 -201.09832)" fill="#f2f2f2"/><path d="M848.65424,219.13887c-2.42692-18.59978-45.32926-17.41328-49.38014.08608-2.149-1.344-7.6151-.41373-9.65378,1.1311s-3.34526,3.81585-4.62472,6.0204c-1.74633,3.062-3.55682,6.23354-3.94332,9.74441-.40322,3.50408.9738,7.47361,4.15053,9.0339,2.52012,1.24338,8.06567.40374,10.8361-.15291,1.93321-.38435,3.55582-.721,4.933-1.0511a9.47428,9.47428,0,0,0-.90152-6.41525A7.68965,7.68965,0,0,1,805.347,241.439c.21715.41871,8.07715,59.5855,8.07715,59.5855a34.14394,34.14394,0,0,0,6.47573.16162,74.297,74.297,0,0,0,.72332-22.07656,64.33424,64.33424,0,0,1,5.36885,13.24912,78.6534,78.6534,0,0,1,1.82211,7.82022c18.70606-3.49791,43.99269-15.546,48.60648-36.00359q-.038-.099-.07645-.19794a2.9059,2.9059,0,0,1,4.78372-3.10718c.56394.58039,1.067,1.0765,1.4914,1.46091C880.97968,249.26651,871.06988,237.51023,848.65424,219.13887Z" transform="translate(-176.66498 -201.09832)" fill="#2f2e41"/><polygon points="398.857 473.567 388.37 468.084 405 424.121 420.479 432.214 398.857 473.567" fill="#a0616a"/><path d="M533.20506,674.13544a5.29792,5.29792,0,0,0,2.23593,7.14174l20.8529,10.90054,7.47233-5.55376-2.479,8.159,7.8653,4.11873,11.64879-27.6625-2.65554-1.59094L567.328,663.13208l-3.49369-2.09513-3.92393,7.50513-22.66708,2.79452A5.289,5.289,0,0,0,533.20506,674.13544Z" transform="translate(-176.66498 -201.09832)" fill="#2f2e41"/><polygon points="388.113 311.722 380.485 302.674 412.533 268.29 423.791 281.644 388.113 311.722" fill="#a0616a"/><path d="M525.81687,496.296a5.29792,5.29792,0,0,0-.63678,7.45643l15.16785,17.98892,9.01949-2.30839-5.38556,6.61135,5.71826,6.7918,21.26153-21.18621-1.85473-2.4785-7.54221-10.12915-2.43934-3.26267-6.47506,5.45875-22.0358-6.00239A5.289,5.289,0,0,0,525.81687,496.296Z" transform="translate(-176.66498 -201.09832)" fill="#2f2e41"/><path d="M901.19661,478.91611s32.38616,69.31912-101.72943,50.64018c0,0-71.45446-79.18781-69.39008-88.71558,0,0-30.41185-30.90259-28.92373-31.46518s2.40611-1.78452-.05289-1.67355-2.459-3.5495-2.459-3.5495-54.96128,59.603-101.23992,89.17957l-16-18s6.23992-19.5191,9.23992-19.5191,4.03394.721,4.517-3.13951-1.906-7.17545,1.28854-7.518,69.40237-77.72218,69.40237-77.72218,7.14325-25.48687,28.96768-20.55361,135.23,97.13406,135.23,97.13406Z" transform="translate(-176.66498 -201.09832)" fill="#2f2e41"/><path d="M846.58277,531.80243l-177.1812-1.47038-77,122L570.64149,640.813l4.82369-2.036s-1.4603-16.95646.32864-21.24911,7.11076-3.00129,7.11076-3.00129l44.89283-103.52875a43.43477,43.43477,0,0,1,44.694-29.42261c37.14648-5.41748,97.44629-1.08887,160.0918,4.22705Z" transform="translate(-176.66498 -201.09832)" fill="#2f2e41"/><path d="M744.00023,324.17135a13.09822,13.09822,0,0,1,11.01188,14.5774,12.56608,12.56608,0,0,1-.46,2.02574L790.959,368.39l-7.51294,23.40381-45.78293-43.22188a13.06187,13.06187,0,0,1-8.07424-13.75137,12.50016,12.50016,0,0,1,14.0718-10.70016Q743.8308,324.14355,744.00023,324.17135Z" transform="translate(-176.66498 -201.09832)" fill="#a0616a"/><path d="M904.6128,325.8952l-13.09,36.24-51.19,72.34s-.42-.18-1.18-.5c-4.4-1.9-20.38-8.88-35.41-16.81-14.11-7.45-27.4-15.74-29.46-21.44q-.33-.9-.6-1.74v-.01a37.51139,37.51139,0,0,1-1.79-8.96c-.17-2.35-.02-3.61-.34-3.76-.25-.11-.77.43-1.92,1.65-.08.08-.15.16-.23.23-4.16,4.17005-9.27,3.63-8.02,1.65,1.28-2.03.61-1.99-1.27-4.11-1.4-1.58-5.95-7.76-8.19-10.81-.77-1.05-1.26-1.73-1.26-1.73l.76995-1.21,2.13-3.34,10.13-15.88.56-.87s20.82,4.81,23.59,9.38c2.78,4.57-4.19,4.42,2.78,4.57,6.97.15,14.08-9.33,8.99.1-5.09,9.42005-3.75,12.71,2.55,11.22,2.56-.61,6.61,1.32,10.51,3.82v.01a82.53159,82.53159,0,0,1,7.05,5.12994c2.41,1.94,4.04,3.41,4.04,3.41l39.54-80.22,4.38-8.88a22.668,22.668,0,0,1,13.26-11.5l1.37,2.39A271.15657,271.15657,0,0,1,904.6128,325.8952Z" transform="translate(-176.66498 -201.09832)" fill="#1867c0"/><path d="M906.80274,440.91522c12.12006,2.82-.77383,91.04484-15.22,91.32-105,2-73.03-56.91-78.66-62.55-5.63-5.65-10.71-1.6-5.63-10.39,3.7-6.4,9.19-5.45,9.27-9.04.04-1.34-.67-3.3-2.51-6.52-6.76-11.84-6.76-15.37-6.76-15.37a43.43941,43.43941,0,0,1-3.55-11.2,53.18549,53.18549,0,0,1-.4-17.48,56.83055,56.83055,0,0,1,9.33-23.75v-.01c.50994-.76,1.04-1.53,1.6-2.29,1.27-1.73,8.31-1.4,8.31-1.4l15-63-8.68-25.12,41.11-19.26,10.93,19.02,1.37,2.39a271.15657,271.15657,0,0,1,22.3,39.63c6.06994,13.51,11.06,28.51,11.24,41.56.48,34.03-5.39,44.15-5.39,44.15s14.25,10.65,7.12,17.16C910.46277,435.28522,894.68274,438.09521,906.80274,440.91522Z" transform="translate(-176.66498 -201.09832)" fill="#1867c0"/><path d="M720.56314,315.883l-6.70765,5.09521a6.30367,6.30367,0,0,0-1.19153,8.81853l16.15461,21.23364,9.53929,12.52734a6.29316,6.29316,0,0,0,8.80445,1.19l6.71545-5.10149a6.31459,6.31459,0,0,0,1.18373-8.81225l-.9899-1.30853L734.502,323.8134l-5.13439-6.74035A6.28,6.28,0,0,0,720.56314,315.883Z" transform="translate(-176.66498 -201.09832)" fill="#3f3d56"/><path d="M724.071,315.49787l-7.2259,5.04071a5.38709,5.38709,0,0,0-1.17868,7.9711l9.45779,11.396,5.04015,6.07081,3.36278,4.05026,7.52061,9.06117a6.57894,6.57894,0,0,0,8.69141,1.081l5.41452-3.77689,1.80152-1.25655a5.47632,5.47632,0,0,0,2.33833-5.59767,5.4001,5.4001,0,0,0-1.15768-2.38969l-22.2228-26.779-3.15059-3.79018A6.57021,6.57021,0,0,0,724.071,315.49787Z" transform="translate(-176.66498 -201.09832)" fill="#1867c0"/><path d="M728.68823,343.6436A13.09821,13.09821,0,0,1,739.70011,358.221a12.565,12.565,0,0,1-.46,2.02574L775.647,387.86224l-7.51294,23.4038-45.78293-43.22188a13.06189,13.06189,0,0,1-8.07425-13.75137,12.50018,12.50018,0,0,1,14.07181-10.70016Q728.5188,343.61579,728.68823,343.6436Z" transform="translate(-176.66498 -201.09832)" fill="#a0616a"/><path d="M877.17284,302.68822l0,0a22.61758,22.61758,0,0,1,16.76119,29.84416L876.21525,381.605l-51.19846,72.34645S763.617,428.01634,758.96832,415.1972s-.45081-17.24246-4.64872-12.81915-9.52063,3.89886-8.2463,1.87467.6037-1.981-1.27265-4.10155S735.352,387.6106,735.352,387.6106l13.58821-21.30125s20.82083,4.80643,23.59489,9.37928-4.19791,4.42331,2.77406,4.57284,14.08409-9.334,8.99147.09332-3.74987,12.714,2.55073,11.22016,21.59473,12.37426,21.59473,12.37426l43.92859-89.09964A22.61759,22.61759,0,0,1,877.17284,302.68822Z" transform="translate(-176.66498 -201.09832)" fill="#1867c0"/><circle cx="827.92841" cy="250.10272" r="32.59204" transform="translate(-111.01969 457.58887) rotate(-45)" fill="#a0616a"/><path d="M866.04,214.59666c-2.42692-18.59978-45.32926-17.41328-49.38014.08608-2.149-1.344-7.6151-.41373-9.65379,1.1311s-3.34525,3.81585-4.62471,6.0204c-1.74633,3.062-13.96731,13.42128-15.79855,10.401-4.12116-6.79709-12.20276,8.05572-6,18,1.48724,2.38437,30.22957-1.44335,33-2,1.93321-.38435-1.37723.3301,0,0,.44491-2.15735,4.93509-13.30366,3.87339-15.24194a7.68965,7.68965,0,0,1,5.27656,3.90345c.21715.41871,8.07715,59.5855,8.07715,59.5855a34.14394,34.14394,0,0,0,6.47573.16162,74.297,74.297,0,0,0,.72332-22.07656,64.33438,64.33438,0,0,1,5.36885,13.24911,78.65425,78.65425,0,0,1,1.82211,7.82023c18.70606-3.49791,43.99269-15.546,48.60648-36.00359C868.58277,251.23523,888.4556,232.968,866.04,214.59666Z" transform="translate(-176.66498 -201.09832)" fill="#2f2e41"/><ellipse cx="573.27891" cy="306.97447" rx="5.25681" ry="7.55666" transform="translate(10.29689 628.98339) rotate(-81.72174)" fill="#e6e6e6"/><ellipse cx="622.45043" cy="302.17642" rx="5.2568" ry="7.55666" transform="translate(57.13673 673.53534) rotate(-81.72174)" fill="#3f3d56"/><ellipse cx="559.8143" cy="267.16631" rx="5.25681" ry="7.55666" transform="translate(38.1643 581.58252) rotate(-81.72174)" fill="#ff6584"/><ellipse cx="542.60374" cy="251.92323" rx="4.77581" ry="3.3223" transform="translate(109.91982 591.50821) rotate(-89.56675)" fill="#e6e6e6"/><ellipse cx="535.35801" cy="221.55162" rx="4.77581" ry="3.3223" transform="translate(133.09963 554.12074) rotate(-89.56675)" fill="#3f3d56"/><ellipse cx="591.70317" cy="275.00353" rx="4.77581" ry="3.3223" transform="translate(135.56834 663.51202) rotate(-89.56675)" fill="#e6e6e6"/><ellipse cx="567.94137" cy="286.86752" rx="4.77581" ry="3.3223" transform="translate(100.12256 651.52518) rotate(-89.56675)" fill="#ff6584"/><ellipse cx="601.01863" cy="308.79527" rx="4.77581" ry="3.3223" transform="translate(111.0226 706.36344) rotate(-89.56675)" fill="#3f3d56"/><ellipse cx="716.40157" cy="334.83205" rx="1" ry="2.5" transform="translate(-237.78641 277.96167) rotate(-35.5592)" fill="#3f3d56"/><ellipse cx="713.40157" cy="330.83205" rx="1" ry="2.5" transform="translate(-236.01969 275.4711) rotate(-35.5592)" fill="#3f3d56"/></svg>
</defs>
<g transform="scale(0.5) translate(0)">
    <text x="50" y="10" font-family="Verdana" text-anchor="middle"
        font-size="5">Système de données centralisé</text>
    <g transform="translate(50 50)">
        <use xlink:href="#serveur-déconnecté" transform="scale(0.04)"/>
    </g>
    <g transform="translate(70 25)">
        <use xlink:href="#équipe" transform="scale(0.03)"/>
    </g>
    <g transform="translate(40 17)">
        <use xlink:href="#cellulaire" transform="scale(0.03)"/>
    </g>
    </g>
    <g transform="scale(0.5) translate(100)">
    <text x="50" y="10" font-family="Verdana" text-anchor="middle"
        font-size="5">Système de données distribué</text>
    <g transform="translate(50 50)">
        <use xlink:href="#serveur-déconnecté" transform="scale(0.04)"/>
    </g>
    <g transform="translate(70 25)">
        <use xlink:href="#équipe" transform="scale(0.03)"/>
    </g>
    <g transform="translate(40 17)">
        <use xlink:href="#cellulaire" transform="scale(0.03)"/>
    </g>
    </g>
 </svg>